<?xml version="1.0" encoding="UTF-8"?>
<svg version="1.1" xmlns="http://www.w3.org/2000/svg" width="160" height="160">
<path d="M0 0 C52.8 0 105.6 0 160 0 C160 52.8 160 105.6 160 160 C107.2 160 54.4 160 0 160 C0 107.2 0 54.4 0 0 Z " fill="#000000" transform="translate(0,0)"/>
<path d="M0 0 C0.69351563 0.25523438 1.38703125 0.51046875 2.1015625 0.7734375 C13.43432746 5.69483742 21.51194841 15.87743476 26.375 26.9375 C29.95193418 37.56353877 29.34423077 50.70831043 25 61 C25.99 61 26.98 61 28 61 C27.13063595 68.7853497 25.83178785 74.72974096 21 81 C21.99 80.2575 22.98 79.515 24 78.75 C27.23579387 76.42468254 30.54487746 74.69067125 34.1328125 72.98046875 C36.69546815 71.63480647 38.82835785 69.90018688 41 68 C39.8237487 74.72143599 35.02570946 77.92565941 30 82 C30.66 82 31.32 82 32 82 C30.60225672 85.41427917 29.17007471 86.8402322 26 88.6875 C24.948125 89.31205078 24.948125 89.31205078 23.875 89.94921875 C19.95338026 92.14695981 16.79632239 92.11552324 12.375 92.0625 C11.66859375 92.05798828 10.9621875 92.05347656 10.234375 92.04882812 C8.48954725 92.03703875 6.744763 92.01910324 5 92 C5 92.66 5 93.32 5 94 C6.916588 94.02712153 8.8332873 94.04645097 10.75 94.0625 C11.81734375 94.07410156 12.8846875 94.08570312 13.984375 94.09765625 C16.53368501 94.01510087 18.57933591 93.74617558 21 93 C17.05481424 97.38353973 14.0956814 98.75550384 8.25 99.4375 C1.96405465 99.30629431 -2.94699204 95.36867197 -8 92 C-6.88333826 95.34998521 -6.25305075 95.79340222 -3.4375 97.6875 C-2.47650391 98.34298828 -2.47650391 98.34298828 -1.49609375 99.01171875 C-1.00238281 99.33785156 -0.50867188 99.66398437 0 100 C-0.99 100.99 -1.98 101.98 -3 103 C-4.65 101.35 -6.3 99.7 -8 98 C-10.27071461 99.01790655 -11.80784632 99.77442829 -13.4375 101.6875 C-15 103 -15 103 -17.375 103.0625 C-21.58077526 101.3601624 -23.97175952 98.05648096 -26 94 C-28.9354495 94.45160762 -30.1921173 95.154631 -32.5625 97.0625 C-37.40657461 99.7927966 -41.55341895 99.79893431 -47 99 C-49.95221637 97.92478148 -52.29129478 96.63544466 -55 95 C-55 94.01 -55 93.02 -55 92 C-56.63261695 90.63268058 -56.63261695 90.63268058 -58.75 89.5 C-59.47703125 89.06816406 -60.2040625 88.63632813 -60.953125 88.19140625 C-61.62859375 87.79824219 -62.3040625 87.40507813 -63 87 C-65.5 85.4375 -65.5 85.4375 -67 84 C-67 82.68 -67 81.36 -67 80 C-68.62102968 78.28891311 -70.29503463 76.62746694 -72 75 C-73.44116215 73.05235914 -74.71006457 71.05434161 -76 69 C-75.505 68.01 -75.505 68.01 -75 67 C-75.60543548 65.63777017 -76.29114106 64.31138904 -77 63 C-78.97465607 58.82284294 -80.42361335 55.65974684 -80 51 C-79.67 51.66 -79.34 52.32 -79 53 C-78.01 52.505 -78.01 52.505 -77 52 C-77.495 51.071875 -77.99 50.14375 -78.5 49.1875 C-80.59565635 44.34067394 -80.66327163 39.19419211 -80 34 C-79.34 33.34 -78.68 32.68 -78 32 C-77.68714781 30.06375926 -77.68714781 30.06375926 -77.625 27.875 C-77.19141303 22.82739317 -75.47383177 19.38905637 -73 15 C-72.01 15 -71.02 15 -70 15 C-69.731875 14.4225 -69.46375 13.845 -69.1875 13.25 C-67.98280141 10.9674132 -66.59201885 9.0262058 -65 7 C-64.34 7.33 -63.68 7.66 -63 8 C-63.99 9.485 -63.99 9.485 -65 11 C-65.43738696 12.71444889 -65.80848688 14.44667784 -66.125 16.1875 C-66.37636719 17.53908203 -66.37636719 17.53908203 -66.6328125 18.91796875 C-66.75398438 19.60503906 -66.87515625 20.29210937 -67 21 C-65.68412059 19.87895467 -64.37239647 18.75303035 -63.0625 17.625 C-62.33160156 16.99851562 -61.60070312 16.37203125 -60.84765625 15.7265625 C-58.91619094 14.12252286 -58.91619094 14.12252286 -58 12 C-57.34 12 -56.68 12 -56 12 C-56.66 13.98 -57.32 15.96 -58 18 C-54.63398936 16.87799645 -53.93756749 15.99584797 -51.75 13.3125 C-38.2949284 -2.38508353 -19.60583114 -7.29666855 0 0 Z " fill="#150E05" transform="translate(97,30)"/>
<path d="M0 0 C0.99 0.99 1.98 1.98 3 3 C-1.455 3.495 -1.455 3.495 -6 4 C-6.495 3.01 -6.495 3.01 -7 2 C-7.66 2 -8.32 2 -9 2 C-9 2.66 -9 3.32 -9 4 C-9.80824219 3.96519531 -10.61648437 3.93039063 -11.44921875 3.89453125 C-13.05216797 3.85392578 -13.05216797 3.85392578 -14.6875 3.8125 C-15.74324219 3.77769531 -16.79898438 3.74289063 -17.88671875 3.70703125 C-21.37240172 4.03504408 -23.12454187 5.0813493 -26 7 C-26.66 7 -27.32 7 -28 7 C-27.505 8.98 -27.505 8.98 -27 11 C-29 11 -31 11 -33 11 C-33.99 12.485 -33.99 12.485 -35 14 C-34.34 14 -33.68 14 -33 14 C-32.67 15.32 -32.34 16.64 -32 18 C-33.32 18 -34.64 18 -36 18 C-36 19.32 -36 20.64 -36 22 C-34.68 22 -33.36 22 -32 22 C-32 21.34 -32 20.68 -32 20 C-31.34 20 -30.68 20 -30 20 C-30 19.34 -30 18.68 -30 18 C-28.35 18.33 -26.7 18.66 -25 19 C-25.495 20.485 -25.495 20.485 -26 22 C-28.1796875 22.73828125 -28.1796875 22.73828125 -30.875 23.3125 C-35.1168614 24.45178571 -35.1168614 24.45178571 -38.0625 27.6875 C-40.14373459 34.57495922 -40.14373459 34.57495922 -39 41.5 C-36.05160797 43.71129402 -33.59438685 43.19255644 -30 43 C-27 44 -27 44 -26.0859375 45.8203125 C-25.85132813 46.58085938 -25.61671875 47.34140625 -25.375 48.125 C-25.12363281 48.93710938 -24.87226562 49.74921875 -24.61328125 50.5859375 C-24 53 -24 53 -23.5625 56.75 C-22.892845 60.6191178 -21.88600992 62.3544909 -19 65 C-16.33071879 65.41870553 -16.33071879 65.41870553 -14 65 C-13.34 63.02 -12.68 61.04 -12 59 C-11.34 59 -10.68 59 -10 59 C-10.11859375 58.43152344 -10.2371875 57.86304688 -10.359375 57.27734375 C-11.41345769 50.96338843 -10.49408965 48.29407522 -7 43 C-7 42.01 -7 41.02 -7 40 C-7.99 39.67 -8.98 39.34 -10 39 C-9.05125 38.608125 -8.1025 38.21625 -7.125 37.8125 C-3.56562599 35.74806307 -3.27886449 34.73821927 -2 31 C-1.01 30.67 -0.02 30.34 1 30 C4.13780816 34.28833782 5.57763686 37.81853426 7 43 C7.66 43.33 8.32 43.66 9 44 C8.690625 42.3603125 8.690625 42.3603125 8.375 40.6875 C8 37 8 37 10 34 C10.99 34 11.98 34 13 34 C13 35.32 13 36.64 13 38 C13.66 38 14.32 38 15 38 C15 38.99 15 39.98 15 41 C16.98 41.495 16.98 41.495 19 42 C18.95875 40.906875 18.9175 39.81375 18.875 38.6875 C19 35 19 35 21 32 C21.02749478 29.93089407 21.02749478 29.93089407 20.625 27.8125 C20.315625 25.9253125 20.315625 25.9253125 20 24 C23 25 23 25 24.171875 27.0078125 C25.2807475 31.01439899 25.29075951 34.73791007 25.25 38.875 C25.26160156 40.04095703 25.26160156 40.04095703 25.2734375 41.23046875 C25.25677301 46.18815448 24.72251058 50.33560709 23 55 C22.195625 55.78375 21.39125 56.5675 20.5625 57.375 C17.96972755 60.0310108 17.55244262 60.96477619 16.625 64.375 C14.51815733 71.42121827 9.61075937 75.23142365 3.4375 78.875 C-0.01177862 80.6764212 -3.07722222 81.69824786 -7 82 C-7 81.01 -7 80.02 -7 79 C-14.96494099 77.39962546 -21.17052339 76.61134612 -29 79 C-29 79.99 -29 80.98 -29 82 C-36.43235387 81.60882348 -42.55901511 77.13586178 -48 72.375 C-51.37265416 68.36997319 -51.37265416 68.36997319 -52 66 C-51.125 62.25 -51.125 62.25 -50 59 C-49.34 59 -48.68 59 -48 59 C-47.94639141 52.15662066 -47.94639141 52.15662066 -51.375 46.625 C-52.24125 46.08875 -53.1075 45.5525 -54 45 C-57 41.48275862 -57 41.48275862 -57 39 C-58.32 39 -59.64 39 -61 39 C-61 38.01 -61 37.02 -61 36 C-60.01 35.505 -60.01 35.505 -59 35 C-59.66 34.67 -60.32 34.34 -61 34 C-60.71640113 32.5608866 -60.42278601 31.12374482 -60.125 29.6875 C-59.96257813 28.88699219 -59.80015625 28.08648437 -59.6328125 27.26171875 C-59 25 -59 25 -57 22 C-56.01 22 -55.02 22 -54 22 C-54.33 21.01 -54.66 20.02 -55 19 C-54.01 18.67 -53.02 18.34 -52 18 C-52.33 16.35 -52.66 14.7 -53 13 C-51.68 12.01 -50.36 11.02 -49 10 C-49 10.66 -49 11.32 -49 12 C-48.175 11.154375 -47.35 10.30875 -46.5 9.4375 C-44.48656119 7.72270522 -43.48872355 7.02452376 -40.8203125 6.890625 C-38.86309607 7.15530196 -36.92721531 7.56803795 -35 8 C-35 7.34 -35 6.68 -35 6 C-35.99 6 -36.98 6 -38 6 C-37.05439197 2.81931844 -36.36909169 1.27931263 -33.6875 -0.75 C-24.35636998 -5.09006047 -9.21934836 -4.56273249 0 0 Z " fill="#050401" transform="translate(98,32)"/>
<path d="M0 0 C7.3487577 3.07809807 11.32606303 10.92177653 14.2734375 17.95703125 C17.85648558 28.03194602 17.37071791 41.0166217 13.15625 50.78515625 C11.62621517 53.716 9.99569974 56.36282534 8 59 C7.01 58.505 7.01 58.505 6 58 C5.625 55.9375 5.625 55.9375 6 53 C7.41343444 51.13664349 8.93856267 49.49893482 10.58984375 47.84375 C13.96099978 43.43603353 13.18319162 37.30792049 13.1875 32 C13.19974609 31.2059375 13.21199219 30.411875 13.22460938 29.59375 C13.23541743 25.2705262 13.00964267 21.93985282 11 18 C11 18.99 11 19.98 11 21 C10.54150134 24.14399078 10.00608575 26.98174275 9 30 C8.65179959 31.66362417 8.31595508 33.32995171 8 35 C6.68 34.67 5.36 34.34 4 34 C4 33.01 4 32.02 4 31 C3.34 31 2.68 31 2 31 C2 29.68 2 28.36 2 27 C1.01 27 0.02 27 -1 27 C-1.2475 28.918125 -1.2475 28.918125 -1.5 30.875 C-1.63921875 31.95394531 -1.63921875 31.95394531 -1.78125 33.0546875 C-2.0372485 35.00498344 -2.0372485 35.00498344 -2 37 C-2.99 36.67 -3.98 36.34 -5 36 C-6.16306242 33.20511236 -6.97648985 30.36902112 -7.83984375 27.46875 C-8.73968575 24.82207873 -8.73968575 24.82207873 -11.12890625 24.15625 C-11.74636719 24.1046875 -12.36382812 24.053125 -13 24 C-13.0825 24.763125 -13.165 25.52625 -13.25 26.3125 C-14.14615794 29.52373261 -15.21611025 30.29374499 -18 32 C-17.7525 32.515625 -17.505 33.03125 -17.25 33.5625 C-16.91564696 36.82244217 -18.38222502 38.30974573 -20.07421875 40.984375 C-21.70429675 44.53340558 -21.31181548 48.18026041 -21 52 C-21.66 52 -22.32 52 -23 52 C-23.144375 52.969375 -23.28875 53.93875 -23.4375 54.9375 C-24 58 -24 58 -25 59 C-27.359375 59.28515625 -27.359375 59.28515625 -30 59 C-33.66053147 55.88206943 -35.75426548 52.07745137 -36.8125 47.4375 C-36.874375 46.303125 -36.93625 45.16875 -37 44 C-37.185625 42.700625 -37.37125 41.40125 -37.5625 40.0625 C-37.706875 39.051875 -37.85125 38.04125 -38 37 C-38.67546875 37.05800781 -39.3509375 37.11601563 -40.046875 37.17578125 C-47.21076233 37.53811659 -47.21076233 37.53811659 -50.75 35.125 C-52.63649356 30.40876611 -51.52424737 26.72827756 -50 22 C-48.55070336 18.68732197 -47.77525848 17.42843232 -44.625 15.6875 C-41.95981317 14.98947488 -39.74175514 14.84332828 -37 15 C-36.67 15.66 -36.34 16.32 -36 17 C-34.906875 16.979375 -33.81375 16.95875 -32.6875 16.9375 C-29 17 -29 17 -26 18 C-26 17.01 -26 16.02 -26 15 C-27.32 15 -28.64 15 -30 15 C-30 14.01 -30 13.02 -30 12 C-24.49633208 11.67625483 -20.56327794 11.46713966 -16 15 C-16 14.34 -16 13.68 -16 13 C-8.41 12.67 -0.82 12.34 7 12 C5.54375058 8.35937646 4.59826065 6.17134982 2.375 3.1875 C1.59125 2.135625 0.8075 1.08375 0 0 Z " fill="#F1BB4B" transform="translate(109,39)"/>
<path d="M0 0 C4.22574279 3.62206525 8.19932805 8.15897597 11 13 C11 14.32 11 15.64 11 17 C8.54724859 18.2263757 6.9494219 18.11415314 4.2109375 18.09765625 C3.26992187 18.09443359 2.32890625 18.09121094 1.359375 18.08789062 C-0.11789063 18.07532227 -0.11789063 18.07532227 -1.625 18.0625 C-2.61757812 18.05798828 -3.61015625 18.05347656 -4.6328125 18.04882812 C-7.0886016 18.03702145 -9.54427104 18.020554 -12 18 C-12 18.66 -12 19.32 -12 20 C-16 19 -16 19 -17.875 18.5 C-20.56431182 17.86722075 -23.27236149 17.43394249 -26 17 C-26 17.99 -26 18.98 -26 20 C-24.68 20 -23.36 20 -22 20 C-22 20.99 -22 21.98 -22 23 C-25.3 23 -28.6 23 -32 23 C-32.0825 22.21625 -32.165 21.4325 -32.25 20.625 C-32.72806339 17.85250896 -32.72806339 17.85250896 -35.0625 16.6875 C-35.701875 16.460625 -36.34125 16.23375 -37 16 C-37 16.66 -37 17.32 -37 18 C-37.66 18 -38.32 18 -39 18 C-39 18.66 -39 19.32 -39 20 C-40.32 20 -41.64 20 -43 20 C-43 18.68 -43 17.36 -43 16 C-41.68 16 -40.36 16 -39 16 C-39.33 14.68 -39.66 13.36 -40 12 C-40.66 12 -41.32 12 -42 12 C-40.25 8.125 -40.25 8.125 -38 7 C-37.505 7.99 -37.505 7.99 -37 9 C-36.34 9 -35.68 9 -35 9 C-35 7.68 -35 6.36 -35 5 C-29.28168032 0.71126024 -25.39524563 0.77972446 -18.37890625 1.640625 C-17.59386719 1.75921875 -16.80882812 1.8778125 -16 2 C-16 1.34 -16 0.68 -16 0 C-14.02 -0.33 -12.04 -0.66 -10 -1 C-10.99 -0.67 -11.98 -0.34 -13 0 C-13 0.66 -13 1.32 -13 2 C-10.36 1.34 -7.72 0.68 -5 0 C-6.051875 -0.474375 -7.10375 -0.94875 -8.1875 -1.4375 C-8.77917969 -1.70433594 -9.37085938 -1.97117187 -9.98046875 -2.24609375 C-18.78767497 -5.53389027 -31.65075103 -5.45685837 -40.359375 -2 C-42.83525738 -0.49089074 -43.92847171 1.3568969 -45 4 C-44.01 4 -43.02 4 -42 4 C-42 4.66 -42 5.32 -42 6 C-43.2375 5.9175 -44.475 5.835 -45.75 5.75 C-49.36423317 5.72029821 -49.36423317 5.72029821 -52.25 8 C-53.11625 8.99 -53.11625 8.99 -54 10 C-55.32 10 -56.64 10 -58 10 C-59.04449911 13.13349732 -58.93423645 13.98968256 -58 17 C-58.99 17.33 -59.98 17.66 -61 18 C-61 18.66 -61 19.32 -61 20 C-61.99 20 -62.98 20 -64 20 C-64.30744141 20.92232422 -64.30744141 20.92232422 -64.62109375 21.86328125 C-65.74739583 25.2421875 -66.87369792 28.62109375 -68 32 C-67.01 32.33 -66.02 32.66 -65 33 C-66.485 33.495 -66.485 33.495 -68 34 C-68 34.99 -68 35.98 -68 37 C-66.68 37 -65.36 37 -64 37 C-62.65625 38.42578125 -62.65625 38.42578125 -61.5 40.3125 C-60.07143477 42.61461357 -59.15080233 43.90093278 -56.859375 45.40625 C-55 47 -55 47 -54.609375 49.48046875 C-54.67898437 50.82044922 -54.67898437 50.82044922 -54.75 52.1875 C-54.78609375 53.08855469 -54.8221875 53.98960938 -54.859375 54.91796875 C-54.92898437 55.94857422 -54.92898437 55.94857422 -55 57 C-55.66 57 -56.32 57 -57 57 C-57.144375 58.11375 -57.28875 59.2275 -57.4375 60.375 C-58 64 -58 64 -59 66 C-62.75649327 64.55335047 -63.91876297 62.90660575 -65.625 59.3125 C-66.02976563 58.48363281 -66.43453125 57.65476562 -66.8515625 56.80078125 C-71.3085589 45.93116759 -72.26650665 32.38305053 -67.875 21.3125 C-65.44936091 16.42034026 -62.58918015 12.10702206 -59 8 C-58.52304687 7.40703125 -58.04609375 6.8140625 -57.5546875 6.203125 C-43.30760558 -9.97697808 -17.60926174 -11.22792377 0 0 Z " fill="#B4792C" transform="translate(105,34)"/>
<path d="M0 0 C0.66 0 1.32 0 2 0 C2 0.66 2 1.32 2 2 C2.53625 1.67 3.0725 1.34 3.625 1 C7.75373677 -0.73841548 11.78275157 -0.2976149 16 1 C16 2.65 16 4.3 16 6 C16.804375 6.0825 17.60875 6.165 18.4375 6.25 C21.53445026 6.90198953 23.53123913 7.68162837 26.3125 9.0625 C32.25615608 11.83352885 37.74961225 11.72763527 44 10 C40.05481424 14.38353973 37.0956814 15.75550384 31.25 16.4375 C24.96405465 16.30629431 20.05300796 12.36867197 15 9 C16.11666174 12.34998521 16.74694925 12.79340222 19.5625 14.6875 C20.20316406 15.12449219 20.84382813 15.56148437 21.50390625 16.01171875 C21.99761719 16.33785156 22.49132812 16.66398437 23 17 C22.01 17.99 21.02 18.98 20 20 C18.35 18.35 16.7 16.7 15 15 C12.72928539 16.01790655 11.19215368 16.77442829 9.5625 18.6875 C8 20 8 20 5.625 20.0625 C1.41922474 18.3601624 -0.97175952 15.05648096 -3 11 C-5.9354495 11.45160762 -7.1921173 12.154631 -9.5625 14.0625 C-14.39132711 16.78420255 -18.56958718 16.81613141 -24 16 C-26.69219472 14.92312211 -28.61532386 13.6957697 -31 12 C-28.58481019 10.79240509 -27.4235526 11.05523789 -24.75 11.25 C-17.91444668 11.32005692 -10.95129983 9.35226207 -5 6 C-3.99352195 3.42705842 -3.99352195 3.42705842 -4 1 C-2.68 1.33 -1.36 1.66 0 2 C0 1.34 0 0.68 0 0 Z " fill="#DDA03D" transform="translate(74,113)"/>
<path d="M0 0 C0.99 0.33 1.98 0.66 3 1 C2.34 1.66 1.68 2.32 1 3 C1.33 3.66 1.66 4.32 2 5 C-3.5 10 -3.5 10 -8 10 C-9.04449911 13.13349732 -8.93423645 13.98968256 -8 17 C-8.99 17.33 -9.98 17.66 -11 18 C-11 18.66 -11 19.32 -11 20 C-11.99 20 -12.98 20 -14 20 C-14.30744141 20.92232422 -14.30744141 20.92232422 -14.62109375 21.86328125 C-15.74739583 25.2421875 -16.87369792 28.62109375 -18 32 C-17.01 32.33 -16.02 32.66 -15 33 C-16.485 33.495 -16.485 33.495 -18 34 C-18 34.99 -18 35.98 -18 37 C-16.68 37 -15.36 37 -14 37 C-12.65625 38.42578125 -12.65625 38.42578125 -11.5 40.3125 C-10.07143477 42.61461357 -9.15080233 43.90093278 -6.859375 45.40625 C-5 47 -5 47 -4.609375 49.48046875 C-4.67898437 50.82044922 -4.67898437 50.82044922 -4.75 52.1875 C-4.78609375 53.08855469 -4.8221875 53.98960938 -4.859375 54.91796875 C-4.92898437 55.94857422 -4.92898437 55.94857422 -5 57 C-5.66 57 -6.32 57 -7 57 C-7.144375 58.11375 -7.28875 59.2275 -7.4375 60.375 C-8 64 -8 64 -9 66 C-12.75649327 64.55335047 -13.91876297 62.90660575 -15.625 59.3125 C-16.23214844 58.06919922 -16.23214844 58.06919922 -16.8515625 56.80078125 C-21.3085589 45.93116759 -22.26650665 32.38305053 -17.875 21.3125 C-14.06583229 13.62996512 -7.91382453 3.95691226 0 0 Z " fill="#EEA939" transform="translate(55,34)"/>
<path d="M0 0 C0.680625 0.70125 1.36125 1.4025 2.0625 2.125 C3.03805702 3.08700761 4.0175071 4.04507705 5 5 C5.4846875 5.48082031 5.969375 5.96164063 6.46875 6.45703125 C11.64120102 11.26183256 17.65224506 14.0275675 24 17 C25.33553352 17.66224803 26.66985635 18.32699176 28 19 C27 22 27 22 24.296875 23.38671875 C15.94865331 26.44834631 9.00971868 27.67348395 0 27 C0 26.01 0 25.02 0 24 C-1.63261695 22.63268058 -1.63261695 22.63268058 -3.75 21.5 C-4.47703125 21.07074219 -5.2040625 20.64148438 -5.953125 20.19921875 C-6.62859375 19.80347656 -7.3040625 19.40773438 -8 19 C-10.5 17.3125 -10.5 17.3125 -12 16 C-12 15.34 -12 14.68 -12 14 C-8.56470231 14.51529465 -5.23046147 15.17650736 -1.875 16.0625 C1.98350675 17.15676754 1.98350675 17.15676754 6 17 C5.401875 16.34 4.80375 15.68 4.1875 15 C1.68999139 11.57484533 -0.11333459 8.16815608 -1 4 C-0.57421875 1.75390625 -0.57421875 1.75390625 0 0 Z " fill="#130D04" transform="translate(42,98)"/>
<path d="M0 0 C7.3487577 3.07809807 11.32606303 10.92177653 14.2734375 17.95703125 C17.85648558 28.03194602 17.37071791 41.0166217 13.15625 50.78515625 C11.62621517 53.716 9.99569974 56.36282534 8 59 C7.01 58.505 7.01 58.505 6 58 C5.625 55.9375 5.625 55.9375 6 53 C7.41343444 51.13664349 8.93856267 49.49893482 10.58984375 47.84375 C13.96099978 43.43603353 13.18319162 37.30792049 13.1875 32 C13.20586914 30.80890625 13.20586914 30.80890625 13.22460938 29.59375 C13.22654297 28.8203125 13.22847656 28.046875 13.23046875 27.25 C13.23457764 26.55390625 13.23868652 25.8578125 13.24291992 25.140625 C12.94571732 22.52165775 12.05932422 20.40151976 11 18 C10.12786865 18.00523682 9.2557373 18.01047363 8.35717773 18.01586914 C5.09382454 18.03300245 1.83051977 18.04549445 -1.43286133 18.05493164 C-2.84009561 18.0599327 -4.24732477 18.0667357 -5.65454102 18.07543945 C-7.68767569 18.08769159 -9.72074114 18.0932707 -11.75390625 18.09765625 C-12.97408447 18.10289307 -14.1942627 18.10812988 -15.45141602 18.11352539 C-19.03512057 17.99887643 -22.46312255 17.57327963 -26 17 C-26 16.34 -26 15.68 -26 15 C-27.32 15 -28.64 15 -30 15 C-30 14.01 -30 13.02 -30 12 C-24.49633208 11.67625483 -20.56327794 11.46713966 -16 15 C-16 14.34 -16 13.68 -16 13 C-8.41 12.67 -0.82 12.34 7 12 C5.54375058 8.35937646 4.59826065 6.17134982 2.375 3.1875 C1.59125 2.135625 0.8075 1.08375 0 0 Z M-20 18 C-18.515 18.99 -18.515 18.99 -17 20 C-17 20.66 -17 21.32 -17 22 C-16.01 22.33 -15.02 22.66 -14 23 C-14.99 23.33 -15.98 23.66 -17 24 C-20 20.25 -20 20.25 -20 18 Z " fill="#DDA744" transform="translate(109,39)"/>
<path d="M0 0 C0.99 0.99 1.98 1.98 3 3 C-4.0819646 12.30565314 -12.77557687 17.87188208 -24 21 C-24.495 20.01 -24.495 20.01 -25 19 C-26.98714388 18.49270931 -26.98714388 18.49270931 -29.3125 18.3125 C-30.09238281 18.22613281 -30.87226562 18.13976562 -31.67578125 18.05078125 C-33.99287105 18.00015576 -35.79287394 18.32826598 -38 19 C-38 18.34 -38 17.68 -38 17 C-38.66 17 -39.32 17 -40 17 C-40 17.66 -40 18.32 -40 19 C-40.99 19 -41.98 19 -43 19 C-43.66 19.66 -44.32 20.32 -45 21 C-55.01750599 17.32182944 -63.74962403 12.96793073 -70 4 C-69.01 3.67 -68.02 3.34 -67 3 C-64 6.75 -64 6.75 -64 9 C-63.46503906 9.26683594 -62.93007813 9.53367187 -62.37890625 9.80859375 C-60.6138536 10.69256921 -58.85120029 11.58133891 -57.08984375 12.47265625 C-56.04957031 12.99730469 -55.00929688 13.52195312 -53.9375 14.0625 C-52.89464844 14.58972656 -51.85179687 15.11695312 -50.77734375 15.66015625 C-48.01287042 17.06648021 -48.01287042 17.06648021 -45 18 C-45 17.01 -45 16.02 -45 15 C-36.92834501 11.37360428 -31.21055308 12.26314897 -23 15 C-23 15.99 -23 16.98 -23 18 C-14.50164914 15.03950892 -6.85891695 11.03070034 -1 4 C-0.2127322 1.8618034 -0.2127322 1.8618034 0 0 Z " fill="#A66923" transform="translate(114,96)"/>
<path d="M0 0 C0.66 0 1.32 0 2 0 C2.16706602 2.47914036 2.33367176 4.95831013 2.5 7.4375 C2.54769531 8.14455078 2.59539062 8.85160156 2.64453125 9.58007812 C3 14.88671875 3 14.88671875 3 16 C4.46691458 14.44555348 5.92320641 12.88107825 7.375 11.3125 C8.18710938 10.44238281 8.99921875 9.57226562 9.8359375 8.67578125 C11.88977509 6.13628893 12.9900668 4.07974134 14 1 C14.33 1 14.66 1 15 1 C14.96614413 8.31286762 13.11825663 12.77577532 8 18 C0.69294606 24.43568465 0.69294606 24.43568465 -4 26 C-3.71623808 22.97823743 -3.42325009 19.95783861 -3.125 16.9375 C-3.04636719 16.08994141 -2.96773438 15.24238281 -2.88671875 14.36914062 C-2.38350594 9.35636691 -1.54885904 4.79625677 0 0 Z " fill="#DA9A32" transform="translate(128,79)"/>
<path d="M0 0 C2.79962929 2.43339871 4.03929069 4.92758708 5.5 8.3125 C5.92925781 9.28832031 6.35851562 10.26414062 6.80078125 11.26953125 C7.19652344 12.17058594 7.59226562 13.07164063 8 14 C9.5404309 17.1949678 11.03342546 20.05013819 13 23 C4.70698356 22.66012228 -1.32737444 21.16016618 -7.6875 15.6875 C-10.35941482 12.58230169 -12.68222352 9.37733144 -15 6 C-14.67 5.34 -14.34 4.68 -14 4 C-13.443125 4.845625 -12.88625 5.69125 -12.3125 6.5625 C-8.1833003 11.62137331 -1.73805495 14.16037691 4 17 C4.08466417 15.67192634 4.08466417 15.67192634 2.5625 13.5625 C0.58170747 9.04629302 0.27971438 4.88053362 0 0 Z " fill="#DD9C32" transform="translate(36,93)"/>
<path d="M0 0 C2.0657733 4.13154659 -0.64451482 9.80236848 -2 14 C-3.17162926 16.27630828 -4.38722921 17.99793971 -6 20 C-5.01 19.2575 -4.02 18.515 -3 17.75 C0.23579387 15.42468254 3.54487746 13.69067125 7.1328125 11.98046875 C9.69546815 10.63480647 11.82835785 8.90018688 14 7 C12.99778413 12.72694783 9.84512131 15.6280749 5.578125 19.234375 C1.63502748 21.93479936 -2.35652012 23.06976645 -7 24 C-7.92296875 24.18691406 -8.8459375 24.37382813 -9.796875 24.56640625 C-10.52390625 24.70949219 -11.2509375 24.85257813 -12 25 C-11.72929688 24.49210937 -11.45859375 23.98421875 -11.1796875 23.4609375 C-9.34264486 19.62869623 -7.88341894 15.63942491 -6.38671875 11.6640625 C-4.70828415 7.35057256 -2.69424071 3.76727164 0 0 Z " fill="#DD9C33" transform="translate(124,91)"/>
<path d="M0 0 C3.02023248 3.02023248 2.65181814 6.67498267 3 10.75 C3.46792581 16.12248156 4.03333686 20.91945356 6 26 C-1.79353245 23.21659555 -8.26306087 18.19432079 -12.125 10.8125 C-13.73545554 7.37501042 -14.20206224 4.79203467 -14 1 C-13.40251953 1.81210938 -13.40251953 1.81210938 -12.79296875 2.640625 C-10.69679139 5.39899347 -8.51150714 8.07294783 -6.3125 10.75 C-5.50425781 11.73484375 -4.69601563 12.7196875 -3.86328125 13.734375 C-3.24839844 14.48203125 -2.63351563 15.2296875 -2 16 C-2.020625 14.94683594 -2.04125 13.89367187 -2.0625 12.80859375 C-2.01074 9.6544688 -1.74712865 7.09771016 -1 4.0625 C-0.814375 3.29035156 -0.62875 2.51820312 -0.4375 1.72265625 C-0.2209375 0.86994141 -0.2209375 0.86994141 0 0 Z " fill="#DA9A33" transform="translate(31,80)"/>
<path d="M0 0 C0.33 0 0.66 0 1 0 C1.10957031 0.54527344 1.21914063 1.09054688 1.33203125 1.65234375 C2.51257658 7.2671325 4.1084379 12.58325399 6 18 C8.31 13.38 10.62 8.76 13 4 C14.36264859 6.72529718 13.76376333 8.24227497 13.22265625 11.2265625 C12.94711914 12.7734375 12.94711914 12.7734375 12.66601562 14.3515625 C12.46685547 15.43179688 12.26769531 16.51203125 12.0625 17.625 C11.86720703 18.71296875 11.67191406 19.8009375 11.47070312 20.921875 C10.98628878 23.61569136 10.49581315 26.30826233 10 29 C9.34 29 8.68 29 8 29 C6.34375 26.76953125 6.34375 26.76953125 4.5 23.8125 C3.8915625 22.84957031 3.283125 21.88664062 2.65625 20.89453125 C-0.03235073 16.19582101 -1.26918336 12.75558179 -1.1875 7.3125 C-1.18105469 6.35988281 -1.17460937 5.40726562 -1.16796875 4.42578125 C-1 2 -1 2 0 0 Z " fill="#E0A63D" transform="translate(18,62)"/>
<path d="M0 0 C0.33 0.66 0.66 1.32 1 2 C0.109375 3.875 0.109375 3.875 -1.25 6 C-1.68828125 6.70125 -2.1265625 7.4025 -2.578125 8.125 C-4 10 -4 10 -7 12 C-4.26869707 11.74403446 -1.54098536 11.47083413 1.1875 11.1875 C1.95642578 11.11724609 2.72535156 11.04699219 3.51757812 10.97460938 C8.05330633 10.48794326 11.21907997 9.76560283 15 7 C13.60225672 10.41427917 12.17007471 11.8402322 9 13.6875 C7.948125 14.31205078 7.948125 14.31205078 6.875 14.94921875 C1.3055792 18.07041499 -5.42158925 17.93539004 -11.5703125 16.328125 C-13.41118316 15.62872611 -15.21199682 14.82523223 -17 14 C-15 12 -15 12 -11.875 10.375 C-7.14035408 7.76346899 -3.66141742 3.91819215 0 0 Z " fill="#BB7A25" transform="translate(114,105)"/>
<path d="M0 0 C0.43570313 0.37511719 0.87140625 0.75023438 1.3203125 1.13671875 C2.56639088 2.20748307 3.81527015 3.27499351 5.06640625 4.33984375 C6.25356083 5.35911788 7.43065011 6.390442 8.58984375 7.44140625 C11.87582159 10.36130699 14.75280814 11.88764023 19 13 C19 13.66 19 14.32 19 15 C11.25404162 17.10059888 2.21452122 19.0418796 -5.50390625 16.01953125 C-9.04455526 13.90035827 -11.86721952 11.59906706 -14 8 C-13.43829102 8.31243652 -12.87658203 8.62487305 -12.29785156 8.94677734 C-9.87721118 10.05628038 -7.86455816 10.48063923 -5.234375 10.8515625 C-3.90019531 11.04492188 -3.90019531 11.04492188 -2.5390625 11.2421875 C-1.61867188 11.36851563 -0.69828125 11.49484375 0.25 11.625 C1.18585937 11.7590625 2.12171875 11.893125 3.0859375 12.03125 C5.38981945 12.36037599 7.69441524 12.68306149 10 13 C9.23300781 12.58878906 8.46601562 12.17757812 7.67578125 11.75390625 C4.95999782 9.97377959 3.81126318 8.69532001 2.1875 5.9375 C1.76855469 5.24527344 1.34960938 4.55304688 0.91796875 3.83984375 C0 2 0 2 0 0 Z " fill="#C88127" transform="translate(45,105)"/>
<path d="M0 0 C0.66 0.33 1.32 0.66 2 1 C2.40627919 9.53186306 1.49367748 16.34980119 -4.125 23.0625 C-5.6953125 24.78515625 -5.6953125 24.78515625 -7 26 C-7.33 26 -7.66 26 -8 26 C-10.26200586 18.01459326 -12.41640925 10.31616812 -13 2 C-10.27324841 4.40689803 -8.88033404 6.92471023 -7.3125 10.1875 C-6.87550781 11.08855469 -6.43851563 11.98960938 -5.98828125 12.91796875 C-5.66214844 13.60503906 -5.33601562 14.29210937 -5 15 C-4.34865075 13.43979133 -3.70417036 11.87671421 -3.0625 10.3125 C-2.70285156 9.44238281 -2.34320313 8.57226562 -1.97265625 7.67578125 C-1.0429688 5.11820735 -0.45837375 2.6778677 0 0 Z " fill="#D39633" transform="translate(141,63)"/>
<path d="M0 0 C0.99 0.33 1.98 0.66 3 1 C2.34 1.66 1.68 2.32 1 3 C1.33 3.66 1.66 4.32 2 5 C-3.5 10 -3.5 10 -8 10 C-9.04449911 13.13349732 -8.93423645 13.98968256 -8 17 C-8.99 17.33 -9.98 17.66 -11 18 C-11 18.66 -11 19.32 -11 20 C-11.99 20 -12.98 20 -14 20 C-14.30744141 20.92232422 -14.30744141 20.92232422 -14.62109375 21.86328125 C-15.74739583 25.2421875 -16.87369792 28.62109375 -18 32 C-17.01 32.33 -16.02 32.66 -15 33 C-16.485 33.495 -16.485 33.495 -18 34 C-18 37.3 -18 40.6 -18 44 C-18.66 44 -19.32 44 -20 44 C-20.80710976 29.86661136 -18.72352651 18.94483901 -9 8 C-2.91636364 1.45818182 -2.91636364 1.45818182 0 0 Z " fill="#E1B54C" transform="translate(55,34)"/>
<path d="M0 0 C2.64 0 5.28 0 8 0 C8.185625 0.721875 8.37125 1.44375 8.5625 2.1875 C10.53334841 6.04350775 13.39798015 7.73669876 17 10 C16.01 10.99 15.02 11.98 14 13 C12.35 11.35 10.7 9.7 9 8 C6.72928539 9.01790655 5.19215368 9.77442829 3.5625 11.6875 C2 13 2 13 -0.4375 13 C-3.73853706 11.71179042 -5.01130379 9.87256119 -7 7 C-4.69 7 -2.38 7 0 7 C0 4.69 0 2.38 0 0 Z " fill="#DA9737" transform="translate(80,120)"/>
<path d="M0 0 C2.7865653 2.66541029 3.93234305 4.00856553 4.203125 7.9765625 C4.2942815 15.07157647 4.08614355 20.57053428 1 27 C-1.49058979 23.74186996 -3.82486205 20.39503757 -6.125 17 C-6.82882813 15.96875 -7.53265625 14.9375 -8.2578125 13.875 C-9.72958508 11.44624524 -10.56148059 9.76400111 -11 7 C-7.78956118 8.38188453 -5.95063635 9.92421903 -3.75 12.625 C-3.22921875 13.25664063 -2.7084375 13.88828125 -2.171875 14.5390625 C-1.59179688 15.26222656 -1.59179688 15.26222656 -1 16 C-0.83246763 13.70839646 -0.66599948 11.41671509 -0.5 9.125 C-0.4071875 7.84882812 -0.314375 6.57265625 -0.21875 5.2578125 C-0.10123196 3.50763316 0 1.75412035 0 0 Z " fill="#DBAF49" transform="translate(135,46)"/>
<path d="M0 0 C-1.27514492 2.55028983 -2.40341297 2.93081711 -5 4 C-5.99 4 -6.98 4 -8 4 C-8.495 2.515 -8.495 2.515 -9 1 C-7.68 0.67 -6.36 0.34 -5 0 C-6.051875 -0.474375 -7.10375 -0.94875 -8.1875 -1.4375 C-8.77917969 -1.70433594 -9.37085938 -1.97117187 -9.98046875 -2.24609375 C-18.78767497 -5.53389027 -31.65075103 -5.45685837 -40.359375 -2 C-42.83525738 -0.49089074 -43.92847171 1.3568969 -45 4 C-44.01 4 -43.02 4 -42 4 C-42 4.66 -42 5.32 -42 6 C-47.75 5.25 -47.75 5.25 -50 3 C-49.34 2.34 -48.68 1.68 -48 1 C-48.33 0.34 -48.66 -0.32 -49 -1 C-47.25197854 -1.81674796 -45.50149811 -2.62823451 -43.75 -3.4375 C-42.77546875 -3.88996094 -41.8009375 -4.34242187 -40.796875 -4.80859375 C-27.45564151 -10.49166109 -12.19473046 -6.67258837 0 0 Z " fill="#874A14" transform="translate(105,34)"/>
<path d="M0 0 C0.33 0 0.66 0 1 0 C1 5.94 1 11.88 1 18 C1.66 18 2.32 18 3 18 C3.020625 17.319375 3.04125 16.63875 3.0625 15.9375 C4.46887896 11.53084593 7.6309507 9.05237626 11 6 C11.33 6.99 11.66 7.98 12 9 C10.64309132 11.44891111 9.25766593 13.69551587 7.6875 16 C7.06198242 16.94359375 7.06198242 16.94359375 6.42382812 17.90625 C5.29192212 19.61042746 4.14654585 21.3056374 3 23 C2.34 23.99 1.68 24.98 1 26 C0.79503906 25.37351562 0.59007812 24.74703125 0.37890625 24.1015625 C-0.02521484 22.87566406 -0.02521484 22.87566406 -0.4375 21.625 C-0.70433594 20.81289062 -0.97117187 20.00078125 -1.24609375 19.1640625 C-1.95179729 16.98968201 -1.95179729 16.98968201 -3 15 C-3.43500582 10.27349443 -3.56444891 6.22706285 -1.5625 1.875 C-1.046875 1.25625 -0.53125 0.6375 0 0 Z " fill="#E7B549" transform="translate(23,48)"/>
<path d="M0 0 C3 1 3 1 4.171875 3.0078125 C5.2807475 7.01439899 5.29075951 10.73791007 5.25 14.875 C5.25773437 15.65230469 5.26546875 16.42960937 5.2734375 17.23046875 C5.25676109 22.19170023 4.58064015 26.29571383 3 31 C2.34 30.67 1.68 30.34 1 30 C1 29.01 1 28.02 1 27 C0.34 26.67 -0.32 26.34 -1 26 C-0.67 24.02 -0.34 22.04 0 20 C0.66 20 1.32 20 2 20 C1.34 19.34 0.68 18.68 0 18 C-0.33 18 -0.66 18 -1 18 C-1.25 11.375 -1.25 11.375 1 8 C1.02749478 5.93089407 1.02749478 5.93089407 0.625 3.8125 C0.41875 2.554375 0.2125 1.29625 0 0 Z " fill="#413012" transform="translate(118,56)"/>
<path d="M0 0 C3.82451524 1.80602108 6.26236527 3.92233984 8.28515625 7.68359375 C9.80869884 12.62053777 9.27634581 17.89527884 9 23 C8.34 23 7.68 23 7 23 C5.66796875 21.609375 5.66796875 21.609375 4.1875 19.75 C2.27086338 17.4116096 0.69737826 15.7730337 -1.75 13.9375 C-4.52480918 11.54808099 -5.12445791 9.50216834 -6 6 C-5.18595703 6.61488281 -5.18595703 6.61488281 -4.35546875 7.2421875 C-3.64003906 7.78101563 -2.92460938 8.31984375 -2.1875 8.875 C-1.47980469 9.40867187 -0.77210937 9.94234375 -0.04296875 10.4921875 C1.60456297 11.70814781 3.29624211 12.86416141 5 14 C4.54636829 12.41531323 4.08688548 10.83230076 3.625 9.25 C3.36976563 8.36828125 3.11453125 7.4865625 2.8515625 6.578125 C2.0790066 4.23919428 1.16374324 2.16557438 0 0 Z " fill="#A0722C" transform="translate(125,36)"/>
<path d="M0 0 C3.87522827 0.39745931 6.86176054 1.34923813 10.3125 3.0625 C16.25615608 5.83352885 21.74961225 5.72763527 28 4 C24.05481424 8.38353973 21.0956814 9.75550384 15.25 10.4375 C9.49125757 10.30637114 4.35347339 7.22823312 0.23828125 3.33203125 C-0.17035156 2.89246094 -0.57898438 2.45289062 -1 2 C-0.67 1.34 -0.34 0.68 0 0 Z " fill="#A15F1B" transform="translate(90,119)"/>
<path d="M0 0 C0.66 1.32 1.32 2.64 2 4 C1.36191406 4.34933594 0.72382812 4.69867188 0.06640625 5.05859375 C-0.75988281 5.51363281 -1.58617188 5.96867187 -2.4375 6.4375 C-3.26121094 6.88996094 -4.08492187 7.34242187 -4.93359375 7.80859375 C-6.92308798 8.83662397 -6.92308798 8.83662397 -8 10 C-15.19814268 10.75966558 -20.08422082 10.20677631 -26 6 C-23.58481019 4.79240509 -22.4235526 5.05523789 -19.75 5.25 C-12.66170205 5.37472078 -6.47198552 2.61117571 0 0 Z " fill="#A4611C" transform="translate(69,119)"/>
<path d="M0 0 C0.66 1.32 1.32 2.64 2 4 C2.99 4 3.98 4 5 4 C3.35 5.98 1.7 7.96 0 10 C0.33 10.66 0.66 11.32 1 12 C-1.31 12 -3.62 12 -6 12 C-6 12.66 -6 13.32 -6 14 C-6.66 14 -7.32 14 -8 14 C-8 14.66 -8 15.32 -8 16 C-9.32 16 -10.64 16 -12 16 C-12 14.68 -12 13.36 -12 12 C-10.68 12 -9.36 12 -8 12 C-8.33 10.68 -8.66 9.36 -9 8 C-9.66 8 -10.32 8 -11 8 C-9.25 4.125 -9.25 4.125 -7 3 C-6.67 3.66 -6.34 4.32 -6 5 C-5.34 5 -4.68 5 -4 5 C-4 3.68 -4 2.36 -4 1 C-2.68 0.67 -1.36 0.34 0 0 Z " fill="#B1782D" transform="translate(74,38)"/>
<path d="M0 0 C0.66 0.33 1.32 0.66 2 1 C1.01 2.485 1.01 2.485 0 4 C-0.43738696 5.71444889 -0.80848688 7.44667784 -1.125 9.1875 C-1.29257812 10.08855469 -1.46015625 10.98960938 -1.6328125 11.91796875 C-1.75398438 12.60503906 -1.87515625 13.29210938 -2 14 C-0.68412059 12.87895467 0.62760353 11.75303035 1.9375 10.625 C2.66839844 9.99851562 3.39929688 9.37203125 4.15234375 8.7265625 C6.08380906 7.12252286 6.08380906 7.12252286 7 5 C7.66 5 8.32 5 9 5 C6.84734462 11.65366208 2.39669573 15.80256999 -3 20 C-3.33 20.66 -3.66 21.32 -4 22 C-4.66 22 -5.32 22 -6 22 C-6.74288073 8.27734214 -6.74288073 8.27734214 -2 2 C-1.34 1.34 -0.68 0.68 0 0 Z " fill="#D39F41" transform="translate(32,37)"/>
<path d="M0 0 C1.45792884 -0.05399736 2.91642712 -0.09279177 4.375 -0.125 C5.18710938 -0.14820313 5.99921875 -0.17140625 6.8359375 -0.1953125 C9 0 9 0 11 2 C13.91188245 2.37268887 13.91188245 2.37268887 17.3203125 2.4140625 C18.57714844 2.45273437 19.83398438 2.49140625 21.12890625 2.53125 C22.44761719 2.5621875 23.76632813 2.593125 25.125 2.625 C26.46486918 2.66318029 27.80471383 2.70223206 29.14453125 2.7421875 C32.42954619 2.8367203 35.71455138 2.92227156 39 3 C39 3.66 39 4.32 39 5 C35.80688754 5.9441974 32.92936219 6.12882394 29.60546875 6.1328125 C28.56712891 6.13410156 27.52878906 6.13539062 26.45898438 6.13671875 C24.83959961 6.13091797 24.83959961 6.13091797 23.1875 6.125 C21.58551758 6.13080078 21.58551758 6.13080078 19.95117188 6.13671875 C14.52734354 6.13001024 9.34157508 5.96011193 4 5 C4 4.34 4 3.68 4 3 C2.68 3 1.36 3 0 3 C0 2.01 0 1.02 0 0 Z M10 6 C11.485 6.99 11.485 6.99 13 8 C13 8.66 13 9.32 13 10 C13.99 10.33 14.98 10.66 16 11 C15.01 11.33 14.02 11.66 13 12 C10 8.25 10 8.25 10 6 Z " fill="#D5A545" transform="translate(79,51)"/>
<path d="M0 0 C2.30526367 4.12935385 2.38457487 7.9186882 2.375 12.5625 C2.37338867 13.3659082 2.37177734 14.16931641 2.37011719 14.99707031 C2.18174198 24.18313209 -0.45590759 31.67387789 -6 39 C-6.66 38.67 -7.32 38.34 -8 38 C-8.375 35.9375 -8.375 35.9375 -8 33 C-6.58656556 31.13664349 -5.06143733 29.49893482 -3.41015625 27.84375 C-0.78614407 24.41290859 -0.86380764 20.114378 -0.68359375 15.91796875 C-0.64169922 14.98662109 -0.59980469 14.05527344 -0.55664062 13.09570312 C-0.51732422 12.13599609 -0.47800781 11.17628906 -0.4375 10.1875 C-0.39431641 9.20845703 -0.35113281 8.22941406 -0.30664062 7.22070312 C-0.2009774 4.81392973 -0.09887673 2.40706017 0 0 Z " fill="#D09432" transform="translate(123,59)"/>
<path d="M0 0 C2.45823172 3.68734758 3.01242616 6.69699971 4 11 C4.9593419 9.72992786 5.91743294 8.45891081 6.875 7.1875 C7.40867188 6.47980469 7.94234375 5.77210937 8.4921875 5.04296875 C9.70814781 3.39543703 10.86416141 1.70375789 12 0 C13 3 13 3 12.0625 5.625 C9.67390412 9.53361144 6.85160539 12.69827112 3.7421875 16.046875 C1.94700036 17.88795872 1.94700036 17.88795872 1 20 C0.34 19.67 -0.32 19.34 -1 19 C-0.7525 17.63875 -0.7525 17.63875 -0.5 16.25 C0.28873311 10.86217525 0.08025923 5.43087444 0 0 Z " fill="#0E0903" transform="translate(130,77)"/>
<path d="M0 0 C0.99 0.33 1.98 0.66 3 1 C2.67 5.29 2.34 9.58 2 14 C2.66 14 3.32 14 4 14 C4.28875 13.38125 4.5775 12.7625 4.875 12.125 C6 10 6 10 8 8 C9.32 8 10.64 8 12 8 C10.8335478 10.3329044 9.60112611 11.2061813 7.5625 12.8125 C4.60678305 15.27761639 3.00976387 17.1853365 2 21 C1.34 21 0.68 21 0 21 C-0.19645093 17.87549468 -0.38063489 14.75038555 -0.5625 11.625 C-0.61857422 10.73554687 -0.67464844 9.84609375 -0.73242188 8.9296875 C-0.78076172 8.07890625 -0.82910156 7.228125 -0.87890625 6.3515625 C-0.9260376 5.56604004 -0.97316895 4.78051758 -1.02172852 3.97119141 C-1 2 -1 2 0 0 Z " fill="#231C0C" transform="translate(24,45)"/>
<path d="M0 0 C2.66735273 2.48952921 4.55746343 4.63408134 6 8 C6.99 6.02 7.98 4.04 9 2 C9.99 2.33 10.98 2.66 12 3 C10.33333333 8 8.66666667 13 7 18 C6.67 18 6.34 18 6 18 C5.82984375 17.443125 5.6596875 16.88625 5.484375 16.3125 C3.76684063 10.90409391 1.64657745 6.01937104 -1 1 C-0.67 0.67 -0.34 0.34 0 0 Z " fill="#120E06" transform="translate(129,63)"/>
<path d="M0 0 C3.63209013 3.49982915 5.84327692 6.62956337 6.1875 11.8359375 C6.1875 14.56379682 6.13089238 17.27549945 6 20 C6.66 20 7.32 20 8 20 C7.34 21.32 6.68 22.64 6 24 C5.67 24 5.34 24 5 24 C2.73799414 16.01459326 0.58359075 8.31616812 0 0 Z " fill="#E4A83D" transform="translate(128,65)"/>
<path d="M0 0 C0.125 3.375 0.125 3.375 0 7 C-0.66 7.66 -1.32 8.32 -2 9 C-2 8.01 -2 7.02 -2 6 C-4.64 6 -7.28 6 -10 6 C-10.1875 3.625 -10.1875 3.625 -10 1 C-6.1496895 -1.56687367 -4.41430237 -0.83288724 0 0 Z " fill="#FAC952" transform="translate(90,114)"/>
<path d="M0 0 C0.99 0.99 1.98 1.98 3 3 C-3.68740653 11.78720653 -11.96168595 18.12556931 -23 20 C-23 19.34 -23 18.68 -23 18 C-22.3709375 17.78085938 -21.741875 17.56171875 -21.09375 17.3359375 C-13.33015381 14.45966542 -6.37302762 10.44763315 -1 4 C-0.2127322 1.8618034 -0.2127322 1.8618034 0 0 Z " fill="#B37825" transform="translate(114,96)"/>
<path d="M0 0 C2.82078915 2.45681635 4.1559019 5.04774685 5.6875 8.4375 C6.12449219 9.38496094 6.56148437 10.33242187 7.01171875 11.30859375 C8 14 8 14 8 18 C5.10236863 17.00081677 4.04798181 16.07108417 2.3125 13.5 C0.63131607 9.01684285 0.27242284 4.75330882 0 0 Z " fill="#E2A034" transform="translate(36,93)"/>
<path d="M0 0 C6.15714404 1.14021186 9.48679884 4.23607304 12.984375 9.18359375 C14.06131056 11.10965158 14.56428155 12.8450881 15 15 C11.38522825 13.50198648 9.31379537 11.42462583 6.75 8.5 C6.04359375 7.7059375 5.3371875 6.911875 4.609375 6.09375 C3 4 3 4 3 2 C2.01 1.67 1.02 1.34 0 1 C0 0.67 0 0.34 0 0 Z " fill="#9E5D1D" transform="translate(113,31)"/>
<path d="M0 0 C0.99 0.33 1.98 0.66 3 1 C0.27670107 6.44659787 -6.88141923 9.6633485 -12.23828125 12.04296875 C-14.19680058 13.10690941 -15.50147684 14.36315163 -17 16 C-17.66 15.67 -18.32 15.34 -19 15 C-16.49504803 10.49108646 -14.95673458 8.63341481 -9.9375 6.859375 C-6.82922057 5.48070267 -4.38615212 3.28436778 -1.796875 1.109375 C-1.20390625 0.74328125 -0.6109375 0.3771875 0 0 Z " fill="#171005" transform="translate(136,96)"/>
<path d="M0 0 C8.44646925 6.15034169 8.44646925 6.15034169 12 10 C12.66 9.67 13.32 9.34 14 9 C14 11.31 14 13.62 14 16 C13.55269531 15.61328125 13.10539063 15.2265625 12.64453125 14.828125 C12.03996094 14.30734375 11.43539062 13.7865625 10.8125 13.25 C10.17570313 12.69828125 9.53890625 12.1465625 8.8828125 11.578125 C6.89286786 9.86780541 6.89286786 9.86780541 4.1875 8 C1.51621436 5.5576817 0.86700664 3.46802657 0 0 Z " fill="#D3A041" transform="translate(119,42)"/>
<path d="M0 0 C1.59190467 3.18380933 0.28749598 6.28076324 -0.4375 9.625 C-0.65889648 10.68460938 -0.65889648 10.68460938 -0.88476562 11.765625 C-1.25049493 13.51168749 -1.62447121 15.25601884 -2 17 C-2.99 17.33 -3.98 17.66 -5 18 C-6.25245261 13.97425947 -6.44589462 12.02349964 -4.73046875 8.0859375 C-3.21822263 5.34477006 -1.65695478 2.65593042 0 0 Z " fill="#DF9E36" transform="translate(31,66)"/>
<path d="M0 0 C-1.22198444 1.58888299 -2.45294475 3.17086464 -3.6875 4.75 C-4.71423828 6.07257812 -4.71423828 6.07257812 -5.76171875 7.421875 C-7.98461943 9.98228416 -10.29250406 11.97056346 -13 14 C-11.60036232 7.63801056 -9.46254217 3.27538485 -3.8125 -0.4375 C-2 -1 -2 -1 0 0 Z " fill="#A86822" transform="translate(45,33)"/>
<path d="M0 0 C0.66 0.33 1.32 0.66 2 1 C1.01 2.485 1.01 2.485 0 4 C-1.37104648 8.11313943 -2.26318799 11.65739818 -2 16 C-2.66 16 -3.32 16 -4 16 C-4 17.98 -4 19.96 -4 22 C-4.66 22 -5.32 22 -6 22 C-6.74288073 8.27734214 -6.74288073 8.27734214 -2 2 C-1.34 1.34 -0.68 0.68 0 0 Z " fill="#AD792E" transform="translate(32,37)"/>
<path d="M0 0 C5.34844008 0.53484401 9.35796103 2.46690767 14 5 C13.01 6.485 13.01 6.485 12 8 C11.34 8 10.68 8 10 8 C10 7.34 10 6.68 10 6 C9.29875 6.2475 8.5975 6.495 7.875 6.75 C3.85468598 7.09959252 2.11661638 5.39182187 -1 3 C-0.67 2.01 -0.34 1.02 0 0 Z " fill="#B56F21" transform="translate(90,119)"/>
<path d="M0 0 C0.33 0 0.66 0 1 0 C1 5.61 1 11.22 1 17 C-4.81034483 11.18965517 -4.81034483 11.18965517 -7.3125 8.3125 C-7.82425781 7.73113281 -8.33601563 7.14976563 -8.86328125 6.55078125 C-10 5 -10 5 -10 3 C-6.64379729 4.38877354 -4.92701272 5.91677965 -3 9 C-3 9.66 -3 10.32 -3 11 C-2.34 11 -1.68 11 -1 11 C-1.020625 9.741875 -1.04125 8.48375 -1.0625 7.1875 C-1.10886083 4.35948913 -0.91692961 2.75078884 0 0 Z " fill="#060401" transform="translate(29,80)"/>
<path d="M0 0 C4.51854431 1.98972775 7.21445201 4.98122179 10 9 C10.875 11.9375 10.875 11.9375 11 14 C10.01 14 9.02 14 8 14 C6.2109375 11.953125 6.2109375 11.953125 4.375 9.25 C3.76398438 8.36828125 3.15296875 7.4865625 2.5234375 6.578125 C1.17359739 4.29378021 0.44744063 2.58789988 0 0 Z " fill="#E2B84F" transform="translate(124,53)"/>
<path d="M0 0 C0.99 0.33 1.98 0.66 3 1 C2.34 1.66 1.68 2.32 1 3 C1.33 3.66 1.66 4.32 2 5 C-3.5 10 -3.5 10 -8 10 C-10.20067421 10.93283296 -10.20067421 10.93283296 -12 12 C-8.34538072 7.50300394 -4.74119446 3.37151606 0 0 Z " fill="#B3752A" transform="translate(55,34)"/>
<path d="M0 0 C0.66 0 1.32 0 2 0 C2.99 3.3 3.98 6.6 5 10 C5.66 9.34 6.32 8.68 7 8 C7.66 8.66 8.32 9.32 9 10 C8.01 12.64 7.02 15.28 6 18 C4 17 4 17 3.18359375 15.00390625 C2.93738281 14.19824219 2.69117188 13.39257812 2.4375 12.5625 C1.40082993 9.20847148 1.40082993 9.20847148 0 6 C-0.039992 4.00039988 -0.04346799 1.99952758 0 0 Z " fill="#1C1508" transform="translate(19,63)"/>
<path d="M0 0 C0.66 0 1.32 0 2 0 C5.34782974 5.24493326 6.94513949 9.87903309 8 16 C7.56429687 15.61328125 7.12859375 15.2265625 6.6796875 14.828125 C2.94255348 11.56015499 -0.8076016 8.65859411 -5 6 C-4.01 5.34 -3.02 4.68 -2 4 C-0.02 5.65 1.96 7.3 4 9 C2.68 6.03 1.36 3.06 0 0 Z " fill="#1A1107" transform="translate(123,36)"/>
<path d="M0 0 C0.43570313 0.37511719 0.87140625 0.75023438 1.3203125 1.13671875 C5.18607599 4.45859777 9.07657648 7.74642927 13 11 C12.67 11.99 12.34 12.98 12 14 C7.42625362 12.02497315 4.73139341 10.19463987 2 6 C0.75 2.6875 0.75 2.6875 0 0 Z " fill="#DB9730" transform="translate(45,105)"/>
<path d="M0 0 C6.54409037 -0.58169692 12.09295757 1.18757056 18 4 C19.828125 5.63671875 19.828125 5.63671875 21 7 C16.375 10 16.375 10 13 10 C12.67 9.01 12.34 8.02 12 7 C13.32 6.67 14.64 6.34 16 6 C10.74567937 3.54053077 5.69139902 2.09698167 0 1 C0 0.67 0 0.34 0 0 Z " fill="#96561A" transform="translate(84,28)"/>
<path d="M0 0 C0.99 0.33 1.98 0.66 3 1 C2.34 2.98 1.68 4.96 1 7 C2.98 5.35 4.96 3.7 7 2 C6.46324097 5.85103301 4.88399077 7.31797587 1.9375 9.75 C0.83728516 10.67039062 0.83728516 10.67039062 -0.28515625 11.609375 C-0.85105469 12.06828125 -1.41695312 12.5271875 -2 13 C-3.18771723 9.57056481 -2.80226223 7.62215325 -1.5625 4.25 C-1.27503906 3.45078125 -0.98757812 2.6515625 -0.69140625 1.828125 C-0.46324219 1.22484375 -0.23507813 0.6215625 0 0 Z " fill="#170F05" transform="translate(32,39)"/>
<path d="M0 0 C0.66 1.32 1.32 2.64 2 4 C-0.41698499 5.94918144 -2.18746401 7.00815254 -5.3359375 6.9765625 C-7.57364473 6.71537901 -9.78327805 6.40084514 -12 6 C-10.52436775 3.0487355 -8.49920648 2.93076085 -5.4375 1.875 C-4.42558594 1.52179688 -3.41367188 1.16859375 -2.37109375 0.8046875 C-1.58863281 0.53914063 -0.80617188 0.27359375 0 0 Z " fill="#B47021" transform="translate(69,119)"/>
<path d="M0 0 C1 3 1 3 -0.21484375 5.48046875 C-0.78332031 6.37378906 -1.35179687 7.26710938 -1.9375 8.1875 C-2.50339844 9.08855469 -3.06929687 9.98960938 -3.65234375 10.91796875 C-4.09707031 11.60503906 -4.54179687 12.29210937 -5 13 C-5.99 12.67 -6.98 12.34 -8 12 C-7.84595887 6.91664275 -4.97931568 4.64245282 -1.49609375 1.35546875 C-1.00238281 0.90816406 -0.50867187 0.46085937 0 0 Z " fill="#E8BF52" transform="translate(34,54)"/>
<path d="M0 0 C5.28 0.33 10.56 0.66 16 1 C13 4 13 4 10.84375 4.328125 C10.0703125 4.30234375 9.296875 4.2765625 8.5 4.25 C7.33984375 4.22679688 7.33984375 4.22679688 6.15625 4.203125 C4 4 4 4 1 3 C0.67 2.01 0.34 1.02 0 0 Z " fill="#0B0602" transform="translate(101,121)"/>
<path d="M0 0 C0.52078125 0.30679688 1.0415625 0.61359375 1.578125 0.9296875 C4.61656401 2.27248151 7.46388645 2.6649441 10.75 3.125 C12.50570312 3.37636719 12.50570312 3.37636719 14.296875 3.6328125 C15.63492188 3.81457031 15.63492188 3.81457031 17 4 C16.34 4.45375 15.68 4.9075 15 5.375 C14.01 6.179375 14.01 6.179375 13 7 C13 7.66 13 8.32 13 9 C7.50151887 7.65890704 3.907435 4.96523729 0 1 C0 0.67 0 0.34 0 0 Z " fill="#B37624" transform="translate(31,113)"/>
<path d="M0 0 C1.0625 1.8125 1.0625 1.8125 2 4 C1.67 4.99 1.34 5.98 1 7 C1.99 7.33 2.98 7.66 4 8 C3.01 8.33 2.02 8.66 1 9 C1 12.3 1 15.6 1 19 C0.34 19 -0.32 19 -1 19 C-1.02697137 16.39576408 -1.04682489 13.79180756 -1.0625 11.1875 C-1.07087891 10.44951172 -1.07925781 9.71152344 -1.08789062 8.95117188 C-1.10259828 5.70077932 -1.03531702 3.10595105 0 0 Z " fill="#C89336" transform="translate(36,59)"/>
<path d="M0 0 C-1.98 2.97 -1.98 2.97 -4 6 C-3.01 6 -2.02 6 -1 6 C-1 6.66 -1 7.32 -1 8 C-6.75 7.25 -6.75 7.25 -9 5 C-8.34 4.34 -7.68 3.68 -7 3 C-7.33 2.34 -7.66 1.68 -8 1 C-4.93251126 -0.86240388 -3.40254489 -1.2151946 0 0 Z " fill="#8B5219" transform="translate(64,32)"/>
<path d="M0 0 C0.66 0.33 1.32 0.66 2 1 C2.02712066 2.43739513 2.04645067 3.87493863 2.0625 5.3125 C2.07410156 6.11300781 2.08570313 6.91351563 2.09765625 7.73828125 C2 10 2 10 1 13 C-1.0625 13.6875 -1.0625 13.6875 -3 14 C-2.40380045 9.13103697 -1.43023178 4.67209049 0 0 Z " fill="#DDA942" transform="translate(141,63)"/>
<path d="M0 0 C0.33 0.66 0.66 1.32 1 2 C0.0390625 3.91015625 0.0390625 3.91015625 -1.375 6.0625 C-1.83648437 6.77535156 -2.29796875 7.48820312 -2.7734375 8.22265625 C-4 10 -4 10 -5 11 C-6.66617115 11.04063832 -8.33388095 11.042721 -10 11 C-6.79239749 7.19364503 -3.59253891 3.45436433 0 0 Z " fill="#E59F33" transform="translate(114,105)"/>
<path d="M0 0 C0 1.98 0 3.96 0 6 C-0.70125 5.505 -1.4025 5.01 -2.125 4.5 C-6.49825231 2.21830314 -10.36504036 2.57385857 -15 4 C-15 3.01 -15 2.02 -15 1 C-9.9752761 0.37470103 -5.07471573 -0.13012092 0 0 Z " fill="#BE8835" transform="translate(91,111)"/>
<path d="M0 0 C-0.33 0.61875 -0.66 1.2375 -1 1.875 C-2.14193235 3.91018344 -2.14193235 3.91018344 -2 6 C-3.8125 7.0625 -3.8125 7.0625 -6 8 C-6.99 7.67 -7.98 7.34 -9 7 C-8.34 7 -7.68 7 -7 7 C-7.33 6.01 -7.66 5.02 -8 4 C-8.66 3.67 -9.32 3.34 -10 3 C-6.48812804 0.59185923 -4.27343092 -0.36629408 0 0 Z " fill="#7F4C18" transform="translate(82,35)"/>
<path d="M0 0 C0.66 1.32 1.32 2.64 2 4 C-1.96 4 -5.92 4 -10 4 C-10 3.34 -10 2.68 -10 2 C-6.49223216 0.39644899 -3.85645121 -0.22036864 0 0 Z " fill="#E1B44C" transform="translate(72,54)"/>
<path d="M0 0 C0.33 0 0.66 0 1 0 C1 3.3 1 6.6 1 10 C0.01 10 -0.98 10 -2 10 C-2 11.65 -2 13.3 -2 15 C-2.33 15 -2.66 15 -3 15 C-3.56229448 4.27475338 -3.56229448 4.27475338 0 0 Z " fill="#C1963F" transform="translate(23,48)"/>
<path d="M0 0 C3.3287315 1.40691484 5.13167372 3.00691581 7.3125 5.875 C7.84488281 6.55304687 8.37726563 7.23109375 8.92578125 7.9296875 C10 10 10 10 9.66796875 12.2578125 C9.44753906 12.83273438 9.22710937 13.40765625 9 14 C7.68 14 6.36 14 5 14 C5 13.34 5 12.68 5 12 C5.66 12 6.32 12 7 12 C5.44298069 7.32894208 2.91552627 3.91294315 0 0 Z " fill="#CF993D" transform="translate(109,39)"/>
<path d="M0 0 C2.31 0.33 4.62 0.66 7 1 C7.33 2.32 7.66 3.64 8 5 C6.02 5.33 4.04 5.66 2 6 C0 3 0 3 0 0 Z " fill="#F8C879" transform="translate(71,121)"/>
<path d="M0 0 C0.33 0 0.66 0 1 0 C1.64017007 5.12136059 0.27881106 8.25922746 -2.48828125 12.4296875 C-4 14 -4 14 -7.3125 14.5 C-8.199375 14.335 -9.08625 14.17 -10 14 C-9.278125 13.54625 -8.55625 13.0925 -7.8125 12.625 C-3.9386002 9.00936019 -2.14656056 4.78637334 0 0 Z " fill="#1F1607" transform="translate(115,104)"/>
<path d="M0 0 C0.66 0 1.32 0 2 0 C2 0.66 2 1.32 2 2 C2.99 1.67 3.98 1.34 5 1 C7.1875 1.4375 7.1875 1.4375 9 2 C9 2.99 9 3.98 9 5 C5.7 5 2.4 5 -1 5 C-1.33 4.01 -1.66 3.02 -2 2 C-1.34 2 -0.68 2 0 2 C0 1.34 0 0.68 0 0 Z " fill="#0B0904" transform="translate(74,52)"/>
<path d="M0 0 C1.37562854 1.28965176 2.70766393 2.62689293 4 4 C4 4.66 4 5.32 4 6 C4.5775 6.2475 5.155 6.495 5.75 6.75 C8.3002997 8.16683317 10.01785701 9.87627537 12 12 C6.65478385 10.49665796 2.86491984 6.82879909 -1 3 C-1.33 2.34 -1.66 1.68 -2 1 C-1.34 0.67 -0.68 0.34 0 0 Z " fill="#B27423" transform="translate(46,99)"/>
<path d="M0 0 C4.455 2.97 4.455 2.97 9 6 C8.01 6.99 7.02 7.98 6 9 C3.69 7.02 1.38 5.04 -1 3 C-0.67 2.01 -0.34 1.02 0 0 Z " fill="#9C5A19" transform="translate(88,124)"/>
<path d="M0 0 C0.66 0 1.32 0 2 0 C2.66 1.65 3.32 3.3 4 5 C0.25 6.125 0.25 6.125 -2 5 C-2.66 5.66 -3.32 6.32 -4 7 C-4 5.02 -4 3.04 -4 1 C-2.68 1.33 -1.36 1.66 0 2 C0 1.34 0 0.68 0 0 Z " fill="#EAC170" transform="translate(74,113)"/>
<path d="M0 0 C0.66 0.66 1.32 1.32 2 2 C0.44148245 2.82011312 -1.12201716 3.63076213 -2.6875 4.4375 C-3.99267578 5.11619141 -3.99267578 5.11619141 -5.32421875 5.80859375 C-7.90998264 6.95991928 -10.21356528 7.56320753 -13 8 C-13 7.34 -13 6.68 -13 6 C-11.96939453 5.60167969 -11.96939453 5.60167969 -10.91796875 5.1953125 C-10.01691406 4.84210938 -9.11585937 4.48890625 -8.1875 4.125 C-7.29417969 3.77695313 -6.40085937 3.42890625 -5.48046875 3.0703125 C-2.82288409 2.01167845 -2.82288409 2.01167845 0 0 Z " fill="#975819" transform="translate(104,108)"/>
<path d="M0 0 C0.66 0.33 1.32 0.66 2 1 C2 1.66 2 2.32 2 3 C2.66 3 3.32 3 4 3 C4 5.31 4 7.62 4 10 C3.34 10 2.68 10 2 10 C-1.07692308 4.58461538 -1.07692308 4.58461538 -0.6875 1.625 C-0.460625 1.08875 -0.23375 0.5525 0 0 Z " fill="#C0872C" transform="translate(24,81)"/>
<path d="M0 0 C2.00293347 3.00440021 2.49271626 4.70993945 3.125 8.1875 C3.37636719 9.53908203 3.37636719 9.53908203 3.6328125 10.91796875 C3.75398437 11.60503906 3.87515625 12.29210937 4 13 C2.68 12.67 1.36 12.34 0 12 C0 8.04 0 4.08 0 0 Z " fill="#2F210B" transform="translate(130,77)"/>
<path d="M0 0 C0.66 0.99 1.32 1.98 2 3 C1.195625 3.61875 0.39125 4.2375 -0.4375 4.875 C-3.03874519 6.74164041 -3.03874519 6.74164041 -4 9 C-4.99 8.67 -5.98 8.34 -7 8 C-5.50902342 4.2047869 -3.24299151 2.38957269 0 0 Z " fill="#9F5C1A" transform="translate(71,124)"/>
<path d="M0 0 C0.33 0 0.66 0 1 0 C0.67 2.97 0.34 5.94 0 9 C-0.99 9 -1.98 9 -3 9 C-5.17032476 10.43990623 -5.17032476 10.43990623 -7 12 C-6.03250577 9.84174363 -5.21906689 8.2099391 -3.5 6.5625 C-1.60096688 4.5843405 -0.90100969 2.56441218 0 0 Z " fill="#CB8E2F" transform="translate(142,80)"/>
<path d="M0 0 C1.27351308 2.54702616 0.80191925 3.4282945 0.0625 6.125 C-0.13214844 6.84945312 -0.32679687 7.57390625 -0.52734375 8.3203125 C-0.76130859 9.15175781 -0.76130859 9.15175781 -1 10 C-2.32 10.33 -3.64 10.66 -5 11 C-3.77472971 6.94718288 -2.30119506 3.55639236 0 0 Z " fill="#EAB144" transform="translate(31,66)"/>
<path d="M0 0 C0.99 0.33 1.98 0.66 3 1 C2.67 2.98 2.34 4.96 2 7 C0.68 6.67 -0.64 6.34 -2 6 C-2 5.01 -2 4.02 -2 3 C-2.66 3 -3.32 3 -4 3 C-3.67 2.34 -3.34 1.68 -3 1 C-2.01 1.33 -1.02 1.66 0 2 C0 1.34 0 0.68 0 0 Z " fill="#CE9E3E" transform="translate(115,67)"/>
<path d="M0 0 C1.65 0.33 3.3 0.66 5 1 C4.67 1.99 4.34 2.98 4 4 C1.93359375 4.73046875 1.93359375 4.73046875 -0.5625 5.1875 C-1.38878906 5.34605469 -2.21507813 5.50460938 -3.06640625 5.66796875 C-4.02353516 5.83232422 -4.02353516 5.83232422 -5 6 C-5 5.34 -5 4.68 -5 4 C-4.01 4 -3.02 4 -2 4 C-2 3.34 -2 2.68 -2 2 C-1.34 2 -0.68 2 0 2 C0 1.34 0 0.68 0 0 Z " fill="#4D3B18" transform="translate(68,50)"/>
<path d="M0 0 C2.64 0 5.28 0 8 0 C8 2.31 8 4.62 8 7 C6.02 7 4.04 7 2 7 C2.33 6.34 2.66 5.68 3 5 C4.32 5.33 5.64 5.66 7 6 C6.67 5.01 6.34 4.02 6 3 C2.99152582 1.77479736 2.99152582 1.77479736 0 1 C0 0.67 0 0.34 0 0 Z " fill="#F2A731" transform="translate(72,120)"/>
<path d="M0 0 C0.33 0.99 0.66 1.98 1 3 C-0.9375 6.1875 -0.9375 6.1875 -3 9 C-3.66 8.67 -4.32 8.34 -5 8 C-4.45773019 4.20411134 -2.79872437 2.52788007 0 0 Z " fill="#F1AA38" transform="translate(120,89)"/>
<path d="M0 0 C2.35170044 2.13790949 3.88791835 4.00593401 5 7 C5.125 10.25 5.125 10.25 5 13 C2.94876752 10.94876752 2.35852882 9.72994937 1.375 7.0625 C0.98441406 6.02802734 0.98441406 6.02802734 0.5859375 4.97265625 C0 3 0 3 0 0 Z " fill="#E7BC51" transform="translate(118,49)"/>
<path d="M0 0 C2.31 1.65 4.62 3.3 7 5 C6.34 6.32 5.68 7.64 5 9 C2.28404014 5.8459821 1.03153759 4.12615036 0 0 Z " fill="#B47C2F" transform="translate(119,42)"/>
<path d="M0 0 C0 0.99 0 1.98 0 3 C-2.63259597 5.41914224 -4.59428799 6.86476266 -8 8 C-8 7.34 -8 6.68 -8 6 C-8.66 5.34 -9.32 4.68 -10 4 C-7.98177083 3.54427083 -5.96354167 3.08854167 -3.9453125 2.6328125 C-1.79280036 2.09525572 -1.79280036 2.09525572 0 0 Z " fill="#AF7624" transform="translate(128,112)"/>
<path d="M0 0 C0.639375 0.2475 1.27875 0.495 1.9375 0.75 C2.2675 1.74 2.5975 2.73 2.9375 3.75 C-0.07281744 4.68423645 -0.92900268 4.79449911 -4.0625 3.75 C-4.0625 2.76 -4.0625 1.77 -4.0625 0.75 C-2.0625 -0.25 -2.0625 -0.25 0 0 Z " fill="#F7DEA3" transform="translate(85.0625,113.25)"/>
<path d="M0 0 C0.99 0 1.98 0 3 0 C3 2.64 3 5.28 3 8 C2.01 8.495 2.01 8.495 1 9 C-0.4783226 6.04335481 -0.06032783 3.25770263 0 0 Z " fill="#F9CE59" transform="translate(21,58)"/>
<path d="M0 0 C2.97 0.495 2.97 0.495 6 1 C6 1.99 6 2.98 6 4 C5.01 4.495 5.01 4.495 4 5 C1.375 4.0625 1.375 4.0625 -1 3 C-0.67 2.01 -0.34 1.02 0 0 Z " fill="#BB7724" transform="translate(90,119)"/>
<path d="M0 0 C0.99 0.33 1.98 0.66 3 1 C2.34 3.31 1.68 5.62 1 8 C-0.32 8.33 -1.64 8.66 -3 9 C-2.01 6.03 -1.02 3.06 0 0 Z " fill="#2A200D" transform="translate(138,65)"/>
<path d="M0 0 C-0.66 0 -1.32 0 -2 0 C-2 0.66 -2 1.32 -2 2 C-2.66 2 -3.32 2 -4 2 C-4 2.66 -4 3.32 -4 4 C-5.32 4 -6.64 4 -8 4 C-8 2.68 -8 1.36 -8 0 C-4.71303767 -0.79953138 -3.28976808 -1.09658936 0 0 Z " fill="#C6933B" transform="translate(70,50)"/>
<path d="M0 0 C3.82946843 1.45255699 5.12050295 3.42895561 7 7 C6.01 7 5.02 7 4 7 C0 2.65714286 0 2.65714286 0 0 Z " fill="#130D04" transform="translate(19,83)"/>
<path d="M0 0 C0.66 0.33 1.32 0.66 2 1 C0.68 3.31 -0.64 5.62 -2 8 C-2.99 8 -3.98 8 -5 8 C-3.8141763 4.62496331 -2.72426311 2.35277269 0 0 Z " fill="#1E1507" transform="translate(122,91)"/>
<path d="M0 0 C0.66 0.33 1.32 0.66 2 1 C2.39310414 3.32288812 2.50749695 5.61845176 2.65625 7.96875 C2.82640625 8.97421875 2.82640625 8.97421875 3 10 C3.66 10.33 4.32 10.66 5 11 C4.01 11 3.02 11 2 11 C1.47007308 9.54494642 0.9513211 8.08581873 0.4375 6.625 C0.14746094 5.81289062 -0.14257812 5.00078125 -0.44140625 4.1640625 C-1 2 -1 2 0 0 Z " fill="#BC862E" transform="translate(113,74)"/>
<path d="M0 0 C0.33 1.32 0.66 2.64 1 4 C0.01 4 -0.98 4 -2 4 C-2.33 4.99 -2.66 5.98 -3 7 C-3.99 6.67 -4.98 6.34 -6 6 C-5.34 5.67 -4.68 5.34 -4 5 C-4 3.68 -4 2.36 -4 1 C-2.68 0.67 -1.36 0.34 0 0 Z " fill="#9E6422" transform="translate(74,38)"/>
<path d="M0 0 C1.2065625 0.0309375 1.2065625 0.0309375 2.4375 0.0625 C2.7675 1.0525 3.0975 2.0425 3.4375 3.0625 C1.625 3.75 1.625 3.75 -0.5625 4.0625 C-2.3125 2.625 -2.3125 2.625 -3.5625 1.0625 C-2.5625 0.0625 -2.5625 0.0625 0 0 Z " fill="#AA661E" transform="translate(79.5625,128.9375)"/>
<path d="M0 0 C0.66 0.33 1.32 0.66 2 1 C0.77065985 4.68802044 -0.93859378 5.72356973 -4 8 C-4.66 7.67 -5.32 7.34 -6 7 C-2.25 1.125 -2.25 1.125 0 0 Z " fill="#2D200A" transform="translate(123,104)"/>
<path d="M0 0 C0.66 0.99 1.32 1.98 2 3 C1.01 4.98 0.02 6.96 -1 9 C-1.99 9 -2.98 9 -4 9 C-3.71125 8.443125 -3.4225 7.88625 -3.125 7.3125 C-1.9586747 4.91505355 -0.9660119 2.48403061 0 0 Z " fill="#1A1206" transform="translate(141,77)"/>
<path d="M0 0 C0.66 0 1.32 0 2 0 C2.33 1.32 2.66 2.64 3 4 C2.01 4.33 1.02 4.66 0 5 C0 5.66 0 6.32 0 7 C-0.99 7 -1.98 7 -3 7 C-1.125 2.25 -1.125 2.25 0 0 Z " fill="#C28D37" transform="translate(44,47)"/>
<path d="M0 0 C2.375 0.1875 2.375 0.1875 5 1 C6.3125 3.5625 6.3125 3.5625 7 6 C3.63279613 4.60667426 2.0140476 3.0210714 0 0 Z " fill="#AD7129" transform="translate(121,40)"/>
<path d="M0 0 C-0.33 1.65 -0.66 3.3 -1 5 C-1.33 4.01 -1.66 3.02 -2 2 C-4.64 2 -7.28 2 -10 2 C-10 1.67 -10 1.34 -10 1 C-6.56484998 0.37542727 -3.50935186 0 0 0 Z " fill="#F8B23E" transform="translate(90,118)"/>
<path d="M0 0 C2.97 0.495 2.97 0.495 6 1 C6 1.66 6 2.32 6 3 C3.69 3.33 1.38 3.66 -1 4 C-1.33 3.34 -1.66 2.68 -2 2 C-1.34 2 -0.68 2 0 2 C0 1.34 0 0.68 0 0 Z " fill="#AC7022" transform="translate(58,117)"/>
<path d="M0 0 C0.99 0 1.98 0 3 0 C3.125 2.875 3.125 2.875 3 6 C2.34 6.66 1.68 7.32 1 8 C0.02391783 5.07175348 -0.08226668 3.04386724 0 0 Z " fill="#38270D" transform="translate(119,79)"/>
<path d="M0 0 C-1.07401108 2.91517292 -1.77810176 4.77810176 -4 7 C-4.99 7 -5.98 7 -7 7 C-7 5 -7 5 -4.625 2.375 C-2 0 -2 0 0 0 Z " fill="#AD772C" transform="translate(41,42)"/>
<path d="M0 0 C0.33 0.66 0.66 1.32 1 2 C-2.3 1.67 -5.6 1.34 -9 1 C-9 0.67 -9 0.34 -9 0 C-5.67032582 -0.83241855 -3.24733335 -1.2757381 0 0 Z " fill="#B17926" transform="translate(48,114)"/>
<path d="M0 0 C3.63 0 7.26 0 11 0 C11 0.33 11 0.66 11 1 C7.37 1.66 3.74 2.32 0 3 C0 2.01 0 1.02 0 0 Z " fill="#C2822C" transform="translate(76,112)"/>
<path d="M0 0 C4.875 2.625 4.875 2.625 6 6 C5.01 6.33 4.02 6.66 3 7 C0 2.25 0 2.25 0 0 Z " fill="#905A1E" transform="translate(125,36)"/>
</svg>
