<?xml version="1.0" encoding="UTF-8"?>
<svg version="1.1" xmlns="http://www.w3.org/2000/svg" width="1080" height="1080">
<path d="M0 0 C1.03418174 -0.00512655 1.03418174 -0.00512655 2.08925605 -0.01035666 C4.39893696 -0.01694411 6.70745503 0.00505299 9.01702881 0.0269165 C10.6727699 0.0280448 12.328513 0.02741146 13.98425293 0.02514648 C18.47991547 0.02399772 22.97515207 0.04753323 27.47071552 0.07544231 C32.16856547 0.10042892 36.86642492 0.1027958 41.56433105 0.10754395 C50.46078312 0.11998179 59.35703882 0.15281434 68.25340438 0.1929419 C78.38145084 0.23763446 88.50950662 0.25964032 98.63762712 0.27972364 C119.47221181 0.32154626 140.30661966 0.39191404 161.14105225 0.48101807 C161.36792725 1.07914307 161.59480225 1.67726807 161.82855225 2.29351807 C163.01680267 4.6997528 163.01680267 4.6997528 165.72594929 5.85661411 C168.14105225 7.48101807 168.14105225 7.48101807 168.77305126 10.16597652 C168.77623521 11.25679311 168.77941916 12.34760969 168.78269958 13.47148132 C168.79824387 14.72353363 168.81378815 15.97558594 168.82980347 17.26557922 C168.82167643 18.65567324 168.8130222 20.04576425 168.80389404 21.43585205 C168.81230512 22.89777943 168.8228293 24.35969596 168.83531189 25.82159424 C168.86241594 29.79489052 168.85764469 33.76756034 168.84561133 37.74090838 C168.83849023 41.05615169 168.84697234 44.37127837 168.85551673 47.68651253 C168.87548615 55.50687399 168.86988085 63.3269299 168.84783936 71.14727783 C168.82547665 79.21879367 168.84306859 87.28950969 168.88088864 95.36094993 C168.91210648 102.28761695 168.92004339 109.21403617 168.90893489 116.14076477 C168.90244126 120.27921517 168.90448055 124.41720398 168.9282589 128.55560112 C168.94948038 132.447352 168.94157514 136.33797304 168.91116524 140.2296524 C168.90482673 141.65830504 168.90872572 143.08704502 168.92357635 144.51563454 C169.02734261 155.37769472 169.02734261 155.37769472 166.78977394 158.16319466 C165.15602112 159.23628235 165.15602112 159.23628235 162.14105225 160.48101807 C161.81105225 161.14101807 161.48105225 161.80101807 161.14105225 162.48101807 C151.26945915 168.57875896 138.43504177 167.04716212 127.3324585 167.02008057 C125.11572809 167.02999715 122.89900592 167.04194203 120.68229675 167.05581665 C114.87572695 167.0880482 109.06934576 167.0985606 103.26269531 167.10266113 C93.94518245 167.11144928 84.6278232 167.1468651 75.31043816 167.19483566 C72.05979022 167.20742629 68.80933743 167.2066632 65.55867004 167.20455933 C63.57253874 167.21113737 61.58640879 167.21814317 59.60028076 167.22564697 C58.69686951 167.22152298 57.79345825 167.21739899 56.8626709 167.21315002 C55.61614494 167.22122429 55.61614494 167.22122429 54.34443665 167.22946167 C53.62497643 167.22979715 52.90551622 167.23013264 52.16425419 167.23047829 C49.81038547 167.52196563 48.23585474 168.39748649 46.14105225 169.48101807 C45.02730225 169.60476807 43.91355225 169.72851807 42.76605225 169.85601807 C36.26816946 170.97634268 33.05423644 174.44978124 29.14105225 179.48101807 C28.48105225 179.48101807 27.82105225 179.48101807 27.14105225 179.48101807 C27.01780579 180.01069687 26.89455933 180.54037567 26.76757812 181.08610535 C26.30416309 182.8575223 25.76647426 184.60987737 25.18981934 186.34773254 C21.56768848 197.99832273 21.53649543 209.26109515 21.53167725 221.38336182 C21.51666661 223.5591198 21.49993351 225.73486651 21.48156738 227.91059875 C21.43820536 233.58709285 21.41796437 239.26343332 21.40283203 244.94006348 C21.38314776 250.75263436 21.34119108 256.56504202 21.3012085 262.37750244 C21.22624438 273.74529025 21.17574914 285.11304093 21.14105225 296.48101807 C21.80973863 296.48156283 22.47842501 296.4821076 23.16737461 296.48266888 C39.45148033 296.49764786 55.7352595 296.54013958 72.01920414 296.61310863 C79.89408008 296.64773549 87.76878139 296.67311111 95.64373779 296.67657471 C102.50900753 296.67961783 109.37396608 296.70015479 116.23911566 296.74154264 C119.87296213 296.76284319 123.50636654 296.77548872 127.14027596 296.76717186 C131.20094637 296.75820651 135.26043993 296.78830401 139.32098389 296.82159424 C141.12065361 296.80865578 141.12065361 296.80865578 142.9566803 296.79545593 C149.97976515 296.8920181 153.98589623 297.54545861 159.14105225 302.48101807 C159.14105225 303.14101807 159.14105225 303.80101807 159.14105225 304.48101807 C160.13105225 304.48101807 161.12105225 304.48101807 162.14105225 304.48101807 C165.48307062 313.65548017 166.72280136 321.73416366 166.65863037 331.46612549 C166.66406782 332.8114141 166.67119947 334.15669673 166.67987061 335.50196838 C166.6979095 339.11347727 166.69111972 342.72452268 166.67835426 346.33603835 C166.66813076 350.137657 166.67764502 353.93923955 166.68389893 357.74085999 C166.69114576 364.11810334 166.68166329 370.49516049 166.66253662 376.87237549 C166.64074538 384.2224329 166.64784731 391.57204677 166.66984224 398.92209357 C166.68804777 405.26220062 166.69053036 411.6021749 166.68008757 417.94229966 C166.6738844 421.71628319 166.67292911 425.49005878 166.68623352 429.26402855 C166.69786807 432.81101374 166.68962975 436.35743151 166.66665649 439.904356 C166.65892771 441.8107515 166.67065806 443.71719554 166.6831665 445.62356567 C166.59892628 454.25807582 165.33817188 462.19227678 159.51605225 468.91851807 C152.30884701 475.07491845 142.51926934 474.92477677 133.53118896 474.91339111 C132.31053238 474.92358276 131.08987579 474.93377441 129.83222961 474.9442749 C126.51668278 474.96912505 123.20157749 474.98109954 119.88597631 474.98712897 C116.40925775 474.99656949 112.93266446 475.022777 109.45602417 475.0471344 C102.88672037 475.09064807 96.31744109 475.11928758 89.74803746 475.14245778 C82.26299013 475.16959108 74.77806978 475.21349722 67.29311347 475.2587465 C51.90915854 475.35137576 36.52517964 475.42315537 21.14105225 475.48101807 C21.14143197 476.209129 21.14181169 476.93723993 21.14220291 477.68741482 C21.16456913 520.8178001 21.18173281 563.94818475 21.19211758 607.07857467 C21.19336832 612.25447052 21.19466264 617.43036637 21.19598389 622.60626221 C21.19637735 624.15193802 21.19637735 624.15193802 21.19677877 625.72883961 C21.20113297 642.42526818 21.20901915 659.12169332 21.21820504 675.81811985 C21.22754851 692.9434817 21.23310933 710.06884176 21.23514074 727.19420606 C21.23651452 737.76592921 21.24085733 748.33764266 21.24896871 758.90936283 C21.25424471 766.15360602 21.25585459 773.39784418 21.25455362 780.64208915 C21.25391159 784.82489062 21.25491268 789.00767509 21.26025772 793.19047356 C21.26511322 797.01803562 21.26537667 800.84556922 21.26195114 804.67313258 C21.26152757 806.05948481 21.26280518 807.44583879 21.26593543 808.83218756 C21.26993821 810.71404957 21.26719226 812.59592234 21.26410007 814.47778606 C21.2644798 815.52391557 21.26485952 816.57004508 21.26525074 817.64787549 C21.14618412 820.36395278 20.75374948 822.83662908 20.14105225 825.48101807 C19.48105225 825.48101807 18.82105225 825.48101807 18.14105225 825.48101807 C17.85230225 826.40914307 17.56355225 827.33726807 17.26605225 828.29351807 C16.14105225 831.48101807 16.14105225 831.48101807 14.14105225 834.48101807 C11.27123833 834.85016155 11.27123833 834.85016155 7.52261353 834.84178162 C6.83486788 834.84434489 6.14712223 834.84690817 5.43853581 834.84954911 C3.12283115 834.85450966 0.80777153 834.83795753 -1.50787354 834.82159424 C-3.16331975 834.82074845 -4.81876709 834.82122216 -6.47421265 834.82292175 C-10.97818067 834.82378503 -15.48191062 834.80610568 -19.98582315 834.78519988 C-24.6890331 834.76648831 -29.39224807 834.76468701 -34.0954895 834.76112366 C-43.0061331 834.75178692 -51.91666671 834.72715117 -60.82726181 834.69707519 C-70.96978412 834.66358177 -81.1123116 834.64705791 -91.25487542 834.63198888 C-112.122961 834.60060299 -132.99094746 834.54781093 -153.85894775 834.48101807 C-157.85894775 827.73101807 -157.85894775 827.73101807 -157.85894775 825.48101807 C-158.84894775 825.15101807 -159.83894775 824.82101807 -160.85894775 824.48101807 C-160.88181525 780.30931373 -160.89944655 736.13761002 -160.91001308 691.96590094 C-160.91126385 686.75609622 -160.91255817 681.54629151 -160.91387939 676.33648682 C-160.9141417 675.29926811 -160.91440402 674.26204941 -160.91467427 673.19339983 C-160.91903066 656.37854711 -160.92691804 639.56369779 -160.93610055 622.74884708 C-160.94543795 605.50710843 -160.95100355 588.26537157 -160.95303625 571.0236305 C-160.9544113 560.37666048 -160.95876091 549.72970008 -160.96686422 539.08273302 C-160.97213274 531.79085536 -160.97375181 524.4989827 -160.97244913 517.20710327 C-160.97180592 512.99429456 -160.97282139 508.78150272 -160.97815323 504.56869698 C-160.98299239 500.71723645 -160.98328296 496.86580425 -160.97984665 493.01434247 C-160.97942147 491.61593064 -160.98071285 490.2175171 -160.98383094 488.81910868 C-160.98780435 486.9281903 -160.9851001 485.03726133 -160.98199558 483.14634132 C-160.9823753 482.09299713 -160.98275502 481.03965293 -160.98314625 479.95438921 C-160.85894775 477.48101807 -160.85894775 477.48101807 -159.85894775 475.48101807 C-160.41148664 475.48562703 -160.96402554 475.490236 -161.53330803 475.49498463 C-175.01422332 475.6056885 -188.49505833 475.68796336 -201.97633171 475.74007893 C-208.49597023 475.76613217 -215.01527978 475.80145332 -221.534729 475.85821533 C-227.83063093 475.91268573 -234.12621713 475.94247073 -240.42233658 475.95540428 C-242.82003878 475.96461706 -245.21772441 475.98260747 -247.6152916 476.00966835 C-250.98318078 476.04615687 -254.34977829 476.05095493 -257.71783447 476.04864502 C-258.70111221 476.0666214 -259.68438995 476.08459778 -260.69746399 476.1031189 C-267.83130846 476.05044539 -272.77483485 474.12163612 -278.85894775 470.48101807 C-279.76633886 470.06454702 -280.67372997 469.64807598 -281.60861778 469.2189846 C-283.85894775 467.48101807 -283.85894775 467.48101807 -284.48256683 464.60306454 C-284.48185432 463.42115819 -284.48114182 462.23925184 -284.48040771 461.02153015 C-284.48679654 460.36292608 -284.49318536 459.70432201 -284.49976778 459.02576023 C-284.51505476 456.81418694 -284.49453555 454.60439477 -284.47418213 452.3928833 C-284.47768224 450.80949305 -284.48333957 449.22610631 -284.49099731 447.64273071 C-284.50526996 443.33895969 -284.48816069 439.03582566 -284.46471214 434.73211551 C-284.44464098 430.23403554 -284.45048068 425.73598299 -284.45281982 421.23786926 C-284.45276622 413.68445292 -284.4329871 406.13128643 -284.40093994 398.57794189 C-284.36403221 389.83630762 -284.3552658 381.09500062 -284.36223745 372.3532986 C-284.36853485 363.95390732 -284.35780322 355.55462866 -284.33827209 347.15526009 C-284.3300821 343.57593244 -284.32739147 339.99666222 -284.32896423 336.41732597 C-284.3298409 332.20574747 -284.31568624 327.99448172 -284.2897377 323.78298569 C-284.28255418 322.23417107 -284.28050273 320.68532323 -284.28385544 319.13649559 C-284.28754927 317.02849457 -284.2728981 314.92141701 -284.25335693 312.81352234 C-284.24962822 311.63199302 -284.24589951 310.4504637 -284.2420578 309.23313046 C-284.11563148 308.32493337 -283.98920517 307.41673628 -283.85894775 306.48101807 C-280.85894775 304.48101807 -280.85894775 304.48101807 -277.85894775 304.48101807 C-277.67332275 303.86226807 -277.48769775 303.24351807 -277.29644775 302.60601807 C-275.14290729 299.42252346 -272.49113637 299.32420471 -268.85894775 298.48101807 C-268.19894775 298.15101807 -267.53894775 297.82101807 -266.85894775 297.48101807 C-265.43979121 297.38918491 -264.0163925 297.35908255 -262.5942688 297.36076355 C-261.69961914 297.35938889 -260.80496948 297.35801422 -259.88320923 297.3565979 C-258.40722763 297.36199081 -258.40722763 297.36199081 -256.90142822 297.36749268 C-255.86725769 297.36734665 -254.83308716 297.36720062 -253.76757812 297.36705017 C-250.33707609 297.36774883 -246.90662784 297.37553906 -243.47613525 297.38336182 C-241.10244781 297.38522616 -238.72875999 297.38664999 -236.35507202 297.38764954 C-230.0980524 297.39147341 -223.84105588 297.4013026 -217.58404541 297.41235352 C-211.20302645 297.42257043 -204.82200378 297.42714776 -198.440979 297.43218994 C-185.91362538 297.44292496 -173.38628779 297.45980846 -160.85894775 297.48101807 C-160.86171313 296.87363171 -160.86447851 296.26624535 -160.86732769 295.64045334 C-160.93377609 280.81519911 -160.98331965 265.98995938 -161.01438427 251.16459274 C-161.0298088 243.99494811 -161.05081308 236.82540329 -161.08526611 229.65582275 C-161.11530454 223.40189264 -161.13455478 217.14803488 -161.14121324 210.89403462 C-161.14510126 207.58701687 -161.15575436 204.28025248 -161.17613792 200.97328949 C-161.19805686 197.26838643 -161.20090858 193.56390568 -161.19952393 189.85894775 C-161.21030975 188.78000244 -161.22109558 187.70105713 -161.23220825 186.5894165 C-161.20602599 180.07434999 -160.31783567 174.32329431 -158.54633045 168.04927444 C-157.69131613 164.85469886 -157.42427143 161.7796935 -157.29644775 158.48101807 C-157.13491134 154.48666307 -156.70704528 151.98951572 -154.85894775 148.48101807 C-154.51841287 146.32578469 -154.51841287 146.32578469 -154.42144775 144.10601807 C-154.04250899 139.9647587 -152.85666286 137.15681387 -150.85894775 133.48101807 C-149.867003 130.38848441 -149.02582864 127.32815069 -148.39801025 124.14117432 C-148.24074463 123.34582275 -148.083479 122.55047119 -147.92144775 121.73101807 C-147.78867432 120.99367432 -147.65590088 120.25633057 -147.519104 119.49664307 C-146.74345652 117.12839395 -145.63326466 116.18566285 -143.85894775 114.48101807 C-143.17421381 112.15292264 -142.51041624 109.8186403 -141.85894775 107.48101807 C-140.62651567 104.75919895 -139.26831188 102.11502383 -137.85894775 99.48101807 C-137.19894775 99.48101807 -136.53894775 99.48101807 -135.85894775 99.48101807 C-135.91824463 98.73980713 -135.9775415 97.99859619 -136.03863525 97.23492432 C-135.8260788 93.97726561 -135.04310527 92.89640379 -132.98394775 90.41851807 C-130.88893458 87.86300683 -129.23972759 85.49058188 -127.85894775 82.48101807 C-127.19894775 82.48101807 -126.53894775 82.48101807 -125.85894775 82.48101807 C-125.48769775 81.42914307 -125.48769775 81.42914307 -125.10894775 80.35601807 C-122.24854035 73.77708105 -117.58301559 68.76320362 -112.85894775 63.48101807 C-111.71269494 62.14804534 -110.56685797 60.8147149 -109.42144775 59.48101807 C-104.32424317 53.66218676 -98.99164918 48.21195917 -92.85894775 43.48101807 C-92.32269775 42.90351807 -91.78644775 42.32601807 -91.23394775 41.73101807 C-89.85894775 40.48101807 -89.85894775 40.48101807 -86.85894775 40.48101807 C-86.52894775 39.49101807 -86.19894775 38.50101807 -85.85894775 37.48101807 C-82.89430595 34.75675262 -80.72458367 33.38299978 -76.85894775 32.48101807 C-75.31728134 31.10616274 -75.31728134 31.10616274 -73.85894775 29.48101807 C-71.81344681 27.77643394 -70.09671813 26.57348432 -67.60894775 25.60601807 C-65.11451131 24.58556679 -63.1679132 23.44442984 -60.92144775 21.98101807 C-57.63286584 19.87436597 -54.58948322 18.67478942 -50.85894775 17.48101807 C-49.20399991 16.6659356 -47.55893487 15.83063431 -45.92144775 14.98101807 C-41.92799613 12.93000062 -38.19558799 11.58824536 -33.85894775 10.48101807 C-33.52894775 10.15101807 -33.19894775 9.82101807 -32.85894775 9.48101807 C-30.35087927 8.94614325 -27.83086855 8.51696351 -25.30426025 8.07867432 C-22.62429006 7.57106956 -22.62429006 7.57106956 -19.85894775 5.48101807 C-17.60413825 5.19034281 -15.38398785 5.10462362 -13.112854 5.02008057 C-10.68266349 4.67247972 -10.68266349 4.67247972 -9.14676285 2.47739029 C-6.02514315 -0.24656886 -4.10707085 -0.01225991 0 0 Z " fill="#FFA200" transform="translate(597.8589477539063,122.51898193359375)"/>
</svg>
