<?xml version="1.0" encoding="UTF-8"?>
<svg version="1.1" xmlns="http://www.w3.org/2000/svg" width="1080" height="1080">
<path d="M0 0 C137.94 0 275.88 0 418 0 C418 0.66 418 1.32 418 2 C424.43247646 3.63537537 430.54850005 4.34271868 437.1796875 4.65625 C440 5 440 5 443 7 C444.96710167 7.39840034 446.94942111 7.72476534 448.9375 8 C452.76372973 8.53102569 455.58905862 9.23768029 459 11 C461.02633579 11.37375762 461.02633579 11.37375762 463.0625 11.5 C467 12 467 12 470 14 C471.94603274 14.59070014 471.94603274 14.59070014 474 15 C477.02555412 15.64178421 478.30491252 16.20327502 481 18 C481.86625 18.28875 482.7325 18.5775 483.625 18.875 C487.1505914 20.05019713 490.43557166 21.51453437 493.8125 23.0546875 C496.18433807 24.12152331 496.18433807 24.12152331 499.5 25.125 C502 26 502 26 503 28 C504.97888961 28.72693904 506.97954558 29.39816251 509 30 C509 30.66 509 31.32 509 32 C509.87527344 32.25910156 510.75054688 32.51820313 511.65234375 32.78515625 C515.0052689 34.00191205 517.59523014 35.47479661 520.5625 37.4375 C523.2956826 39.23248375 525.98923779 40.99394533 528.83984375 42.59765625 C529.55269531 43.06042969 530.26554688 43.52320313 531 44 C531 44.66 531 45.32 531 46 C531.66 46.20625 532.32 46.4125 533 46.625 C537.07180186 48.49124252 540.68796998 50.97561527 544 54 C544 54.66 544 55.32 544 56 C544.556875 56.04125 545.11375 56.0825 545.6875 56.125 C549.17346586 57.44401411 550.71595476 60.13030213 553 63 C553.99 63.66 554.98 64.32 556 65 C556 65.66 556 66.32 556 67 C556.99 67.33 557.98 67.66 559 68 C560.36639342 69.6396721 561.6949419 71.31110128 563 73 C563.763125 73.74507813 564.52625 74.49015625 565.3125 75.2578125 C568.20840842 78.21264929 570.65508432 81.31667258 573.125 84.625 C576.21360377 88.81131935 576.21360377 88.81131935 579.6796875 92.6796875 C581.61350042 94.61350042 582.673356 96.8793764 583.9375 99.28125 C584.94335115 101.06199887 584.94335115 101.06199887 586.5 102.46875 C588.67465959 104.688715 589.66375522 107.26026149 590.9375 110.0625 C592.05955558 112.10860135 593.35103044 113.36843381 595 115 C596.97247598 119.01800663 598 121.4896156 598 126 C598.99 126.33 599.98 126.66 601 127 C601.71706982 128.98248715 602.38290413 130.98415349 603 133 C603.66 133.66 604.32 134.32 605 135 C605.1953125 137.1640625 605.1953125 137.1640625 605.125 139.625 C605.10695313 140.44226563 605.08890625 141.25953125 605.0703125 142.1015625 C605.04710937 142.72804688 605.02390625 143.35453125 605 144 C605.99 144.33 606.98 144.66 608 145 C610.5352547 149.48477813 612.09922288 154.38306191 612.625 159.5 C612.63538045 163.05388209 612.63538045 163.05388209 615 165 C616.00207388 167.94950047 616.10806432 170.65162606 616.0625 173.75 C616.05347656 174.54921875 616.04445313 175.3484375 616.03515625 176.171875 C616.01775391 177.07679688 616.01775391 177.07679688 616 178 C616.99 178.33 617.98 178.66 619 179 C619.99 186.92 620.98 194.84 622 203 C622.66 203 623.32 203 624 203 C624 342.59 624 482.18 624 626 C623.34 626 622.68 626 622 626 C621.91959473 626.7113208 621.83918945 627.4226416 621.75634766 628.15551758 C621.38760918 631.37553553 621.00645601 634.59396492 620.625 637.8125 C620.49867188 638.93205078 620.37234375 640.05160156 620.2421875 641.20507812 C620.11328125 642.27822266 619.984375 643.35136719 619.8515625 644.45703125 C619.67874756 645.9416687 619.67874756 645.9416687 619.50244141 647.45629883 C619 650 619 650 617 653 C616.65489228 655.07905791 616.65489228 655.07905791 616.5625 657.3125 C616.19174152 661.49195919 614.91325687 664.25320529 613 668 C612.80871853 669.94469499 612.61816061 671.88951752 612.4453125 673.8359375 C611.57116285 678.08399807 609.0944389 682.9055611 606 686 C605.75045995 687.43410368 605.52607358 688.87260072 605.3125 690.3125 C604.10130018 696.8003998 601.1409506 702.25146777 598 708 C597.34 708 596.68 708 596 708 C595.896875 709.093125 595.79375 710.18625 595.6875 711.3125 C594.98423275 715.08456978 594.69352251 715.6431678 592 718 C591.64830932 719.32860925 591.31229724 720.66158328 591 722 C590.34 722.33 589.68 722.66 589 723 C587.95191959 724.97522846 586.9479589 726.97481509 586 729 C585.34 729 584.68 729 584 729 C583.67 730.32 583.34 731.64 583 733 C582.34 733 581.68 733 581 733 C581.1546875 734.0828125 581.1546875 734.0828125 581.3125 735.1875 C580.8714033 739.1573703 578.99516318 740.50403068 576 743 C575.34 743 574.68 743 574 743 C573.7525 743.53625 573.505 744.0725 573.25 744.625 C568.92361941 752.84512311 563.15307011 759.21666672 556 765 C555.236875 765.763125 554.47375 766.52625 553.6875 767.3125 C550.60393177 770.39606823 547.36337491 773.25806364 544.0859375 776.1328125 C542.03345365 777.91752661 542.03345365 777.91752661 540.4140625 779.6796875 C539 781 539 781 536 782 C534.46145793 783.41033023 533.07919657 784.91334963 531.671875 786.453125 C529.81360837 788.17245581 527.99279186 789.20655249 525.75 790.375 C522.78491273 791.97047646 520.01977331 793.62318544 517.3125 795.625 C514.35502055 797.80563001 511.3360761 799.43843246 508 801 C507.05125 801.474375 506.1025 801.94875 505.125 802.4375 C504.09375 802.953125 503.0625 803.46875 502 804 C501.36964844 804.32097656 500.73929688 804.64195312 500.08984375 804.97265625 C495.78794144 807.1526183 491.44721656 809.12748776 487 811 C485.96746094 811.47953125 485.96746094 811.47953125 484.9140625 811.96875 C480.02186056 814.23461195 475.1670074 815.95078036 469.96875 817.38671875 C468.01797952 817.8270846 468.01797952 817.8270846 467 819 C465.42393803 819.34731736 463.83862922 819.65314477 462.25 819.9375 C459.50824883 820.46029154 457.09434359 820.96226257 454.5 822 C451.15090118 823.33963953 447.74833655 823.89273055 444.20703125 824.53515625 C441.97154591 824.90869659 441.97154591 824.90869659 440 826 C437.94033058 826.18148136 435.87687012 826.32109708 433.8125 826.4375 C428.90127118 826.77507892 424.63797546 827.38210158 420 829 C420 829.66 420 830.32 420 831 C281.4 831 142.8 831 0 831 C0 830.34 0 829.68 0 829 C-6.07413952 827.21348838 -11.82148233 826.64025874 -18.14453125 826.34375 C-21 826 -21 826 -24 824 C-25.96710167 823.60159966 -27.94942111 823.27523466 -29.9375 823 C-33.764679 822.46884257 -36.58736868 821.75952717 -40 820 C-42.0603418 819.62651905 -42.0603418 819.62651905 -44.125 819.5 C-48 819 -48 819 -50 817 C-51.86747382 816.39855234 -51.86747382 816.39855234 -53.9375 816 C-56.98961332 815.36105291 -58.28652376 814.80898416 -61 813 C-63.33163378 812.32741333 -65.6652039 811.66152556 -68 811 C-72.4750253 809.20998988 -76.78203566 807.16015856 -81.07421875 804.9765625 C-82.82967028 804.0863741 -84.6015949 803.22886171 -86.375 802.375 C-89 801 -89 801 -91 799 C-91.7425 798.71125 -92.485 798.4225 -93.25 798.125 C-96.51813738 796.78803471 -99.09387927 795.01192973 -102 793 C-103.49993139 792.02072824 -104.999936 791.04156862 -106.5 790.0625 C-109.26218939 788.23034071 -111.86305248 786.34952448 -114.375 784.1875 C-116.86461552 781.84268408 -116.86461552 781.84268408 -120 781 C-121.68997323 779.35697047 -123.35216394 777.68528688 -125 776 C-126.17769122 774.96786612 -127.36560424 773.94730071 -128.5625 772.9375 C-131.1634129 770.72842769 -133.72247935 768.55082312 -136 766 C-136 765.34 -136 764.68 -136 764 C-136.99 763.67 -137.98 763.34 -139 763 C-141.1875 761.0625 -141.1875 761.0625 -143 759 C-143 758.34 -143 757.68 -143 757 C-143.99 756.67 -144.98 756.34 -146 756 C-147.56618444 754.30897478 -149.05780525 752.54793612 -150.5 750.75 C-151.2734375 749.79609375 -152.046875 748.8421875 -152.84375 747.859375 C-154.76347441 745.3136535 -156.36481242 742.72997128 -158 740 C-158.804375 739.21625 -159.60875 738.4325 -160.4375 737.625 C-163.45336668 734.53557559 -167 730.52868544 -167 726 C-168.32 725.34 -169.64 724.68 -171 724 C-171 722.68 -171 721.36 -171 720 C-171.99 719.34 -172.98 718.68 -174 718 C-175.1328125 716.1953125 -175.1328125 716.1953125 -176.125 714.125 C-176.45757812 713.44695313 -176.79015625 712.76890625 -177.1328125 712.0703125 C-178 710 -178 710 -178.4921875 707.8046875 C-178.65976563 707.20914063 -178.82734375 706.61359375 -179 706 C-179.66 705.67 -180.32 705.34 -181 705 C-181 702.69 -181 700.38 -181 698 C-182.32 697.67 -183.64 697.34 -185 697 C-185.1953125 694.98177083 -185.390625 692.96354167 -185.5859375 690.9453125 C-185.86374749 688.77331755 -185.86374749 688.77331755 -188 687 C-188.2165625 685.5459375 -188.2165625 685.5459375 -188.4375 684.0625 C-188.6969134 681.01922013 -188.6969134 681.01922013 -190.5 679.5 C-192.6977589 677.3022411 -192.56090891 675.01091031 -193 672 C-193.99 670.515 -193.99 670.515 -195 669 C-195.33915398 665.70720119 -195.44194347 662.43650606 -195.55859375 659.12890625 C-196.04347047 655.69185978 -196.89585752 654.64985524 -199 652 C-201.72330601 643.59732078 -202.39448527 634.98870095 -202.62158203 626.21826172 C-202.76402844 621.75660107 -203.48211356 618.24276692 -205 614 C-205 612.68 -205 611.36 -205 610 C-205.66 610 -206.32 610 -207 610 C-207 481.96 -207 353.92 -207 222 C-206.34 222 -205.68 222 -205 222 C-204.855625 221.0925 -204.71125 220.185 -204.5625 219.25 C-204 216 -204 216 -203.48022461 214.05200195 C-202.99073784 211.96042277 -202.82841956 210.06229614 -202.75390625 207.91796875 C-202.72103516 207.15033203 -202.68816406 206.38269531 -202.65429688 205.59179688 C-202.59355128 204.00077916 -202.53620753 202.40962758 -202.48242188 200.81835938 C-202.26544293 195.91791046 -201.47717492 191.71316512 -200 187 C-199.74944479 185.52739724 -199.53137457 184.04805841 -199.375 182.5625 C-199.25125 181.386875 -199.1275 180.21125 -199 179 C-198.01 178.67 -197.02 178.34 -196 178 C-195.67 172.72 -195.34 167.44 -195 162 C-194.01 161.67 -193.02 161.34 -192 161 C-191.95101562 160.28972656 -191.90203125 159.57945312 -191.8515625 158.84765625 C-191.77679688 157.92855469 -191.70203125 157.00945312 -191.625 156.0625 C-191.55539063 155.14597656 -191.48578125 154.22945312 -191.4140625 153.28515625 C-191.27742187 152.53105469 -191.14078125 151.77695312 -191 151 C-190.34 150.67 -189.68 150.34 -189 150 C-188.34227572 146.97065509 -188.34227572 146.97065509 -188 144 C-187.34 144 -186.68 144 -186 144 C-185.93941406 143.37351562 -185.87882812 142.74703125 -185.81640625 142.1015625 C-185.73261719 141.28429687 -185.64882812 140.46703125 -185.5625 139.625 C-185.48128906 138.81289063 -185.40007812 138.00078125 -185.31640625 137.1640625 C-185 135 -185 135 -184 133 C-183.01 133 -182.02 133 -181 133 C-181 130.69 -181 128.38 -181 126 C-180.01 125.505 -180.01 125.505 -179 125 C-178.24052812 123.31595367 -177.4873049 121.62830998 -176.7890625 119.91796875 C-173.66923077 112.33461538 -173.66923077 112.33461538 -171 111 C-170.896875 110.2575 -170.79375 109.515 -170.6875 108.75 C-169.76163299 105.04653194 -167.69234293 103.69234293 -165 101 C-163.63366177 98.73875017 -162.40831812 96.44051818 -161.2109375 94.0859375 C-159.99240925 91.98692433 -158.72140144 90.69179502 -157 89 C-155.70949026 87.22245354 -154.44052864 85.42916353 -153.1875 83.625 C-150.08248398 79.29731284 -147.17170953 76.24466297 -143 73 C-142.05942648 71.91612581 -141.14235833 70.8114032 -140.25 69.6875 C-139.5075 68.800625 -138.765 67.91375 -138 67 C-137.34 67 -136.68 67 -136 67 C-135.505 65.515 -135.505 65.515 -135 64 C-133.5569464 62.75372644 -132.10852326 61.51229245 -130.6171875 60.32421875 C-127.52953852 57.79592647 -124.80590846 54.8864993 -122.125 51.9375 C-119.88285565 49.89319192 -117.52565701 48.57548696 -114.86328125 47.14453125 C-112.81065436 45.88369335 -111.15259829 44.43518777 -109.375 42.8125 C-106.67184998 40.39003824 -104.73496794 39.22636169 -101 39 C-100.67 38.01 -100.34 37.02 -100 36 C-97.51645061 34.27531292 -95.12391448 33.04898944 -92.3125 31.9375 C-89.8572058 31.11696579 -89.8572058 31.11696579 -88 29 C-86.34015202 28.31653318 -84.67163195 27.65411685 -83 27 C-81.72442695 26.36357919 -80.45395535 25.71687673 -79.1875 25.0625 C-75.87791695 23.38291759 -72.55183856 22.03523105 -69.0625 20.78125 C-66.84841495 19.94258142 -64.71461093 18.98638418 -62.5625 18 C-58.70055118 16.24701106 -54.79809552 14.87128316 -50.75 13.61328125 C-48.99609867 13.14058444 -48.99609867 13.14058444 -48 12 C-45.26368199 11.46178208 -42.5157942 11.03521964 -39.76171875 10.59765625 C-37.04417075 10.12901452 -37.04417075 10.12901452 -34.9296875 8.96484375 C-32.06741883 7.53370941 -29.27446953 7.55645663 -26.12109375 7.34375 C-23.70479457 7.10252039 -23.70479457 7.10252039 -21 5 C-18.14453125 4.65625 -18.14453125 4.65625 -14.8125 4.5 C-9.60762676 4.17978968 -4.99364284 3.46871848 0 2 C0 1.34 0 0.68 0 0 Z M97.00366211 78.44580078 C96.21297368 78.4652128 95.42228525 78.48462482 94.60763657 78.50462508 C86.06126089 78.72028744 77.56604719 79.0617577 69.0625 80 C56.80661315 81.33203029 44.50359912 81.40822275 32.18579102 81.5703125 C30.53922503 81.59894531 28.89265927 81.6275906 27.24609375 81.65625 C26.48871918 81.66144653 25.7313446 81.66664307 24.95101929 81.67199707 C20.82894493 81.75031128 17.74604798 82.31516473 14 84 C10.67481017 84.27420668 7.39170533 84.41235746 4.05859375 84.47851562 C-0.8945802 84.67192527 -4.44522254 85.89902871 -9 88 C-11.8359375 88.6953125 -11.8359375 88.6953125 -14.375 89.125 C-17.48336409 89.4602552 -17.48336409 89.4602552 -20 91 C-22.24683187 91.53261552 -24.50665479 91.96301616 -26.7734375 92.40234375 C-29.26068208 92.942654 -29.26068208 92.942654 -32 95 C-34.32809543 95.68473395 -36.66237777 96.34853151 -39 97 C-41.68666006 97.9534825 -44.33994915 98.97331371 -47 100 C-47 100.66 -47 101.32 -47 102 C-49.31 102.66 -51.62 103.32 -54 104 C-54 104.66 -54 105.32 -54 106 C-54.721875 106.103125 -55.44375 106.20625 -56.1875 106.3125 C-59.27746686 107.06782523 -61.39558686 108.19137976 -64 110 C-64.495 110.99 -64.495 110.99 -65 112 C-67.0625 113.125 -67.0625 113.125 -69 114 C-69 114.66 -69 115.32 -69 116 C-69.5775 116.268125 -70.155 116.53625 -70.75 116.8125 C-73.05550043 118.02929189 -75.02056192 119.30333879 -77 121 C-77 121.66 -77 122.32 -77 123 C-78.32 123.66 -79.64 124.32 -81 125 C-81 125.66 -81 126.32 -81 127 C-81.99 127.33 -82.98 127.66 -84 128 C-84 128.66 -84 129.32 -84 130 C-84.87398437 130.3403125 -84.87398437 130.3403125 -85.765625 130.6875 C-88.61203354 132.3595162 -89.8996097 134.27976811 -91.75 137 C-92.36359375 137.886875 -92.9771875 138.77375 -93.609375 139.6875 C-95.17178234 141.83592313 -95.17178234 141.83592313 -95 144 C-96.485 144.495 -96.485 144.495 -98 145 C-98.68346682 146.65984798 -99.34588315 148.32836805 -100 150 C-100.78375 151.03125 -101.5675 152.0625 -102.375 153.125 C-105.19114202 156.90194342 -106.56530085 160.89637164 -108.0078125 165.3515625 C-109.05262188 168.14046314 -110.45257124 170.46358096 -112 173 C-112.36442233 174.66014616 -112.69972883 176.32706064 -113 178 C-113.32613281 178.60199219 -113.65226562 179.20398438 -113.98828125 179.82421875 C-115.17020058 182.36602982 -115.40500085 184.46334408 -115.625 187.25 C-115.69976562 188.14203125 -115.77453125 189.0340625 -115.8515625 189.953125 C-115.90054688 190.62859375 -115.94953125 191.3040625 -116 192 C-116.66 192 -117.32 192 -118 192 C-118.03738281 192.60328125 -118.07476562 193.2065625 -118.11328125 193.828125 C-118.17902344 194.62734375 -118.24476563 195.4265625 -118.3125 196.25 C-118.37050781 197.03890625 -118.42851562 197.8278125 -118.48828125 198.640625 C-119 201 -119 201 -120.50439453 202.79663086 C-122.38602141 205.56869788 -122.39578274 207.28385797 -122.44140625 210.61328125 C-122.46783203 211.69673828 -122.49425781 212.78019531 -122.52148438 213.89648438 C-122.53501953 215.02376953 -122.54855469 216.15105469 -122.5625 217.3125 C-122.59721168 219.53790453 -122.63996692 221.76320053 -122.69140625 223.98828125 C-122.70373291 224.97352783 -122.71605957 225.95877441 -122.72875977 226.97387695 C-123 230 -123 230 -123.99560547 233.05834961 C-125.67804912 238.5764956 -125.33926897 244.3617217 -125.37890625 250.078125 C-125.40490706 252.03649853 -125.4309112 253.99487202 -125.4570837 255.95324326 C-125.4913756 258.69682724 -125.51696598 261.44046666 -125.54260254 264.18414307 C-125.60065492 270.21144072 -125.67747947 276.23853741 -125.75390625 282.265625 C-125.76198492 282.92956268 -125.77006359 283.59350037 -125.77838707 284.27755737 C-125.90555733 294.5120229 -126.21345958 304.72880893 -126.62585449 314.95526123 C-127.14653828 328.13292031 -127.36295075 341.31413052 -127.5625 354.5 C-127.57284019 355.16892776 -127.58318039 355.83785553 -127.59383392 356.52705383 C-128.22226288 397.18835028 -128.23773361 437.83854109 -127.5625 478.5 C-127.5429425 479.69701538 -127.52338501 480.89403076 -127.50323486 482.12731934 C-127.29487966 494.49115548 -126.9897342 506.84353249 -126.4921875 519.19921875 C-126.09492168 529.12809285 -125.87270102 539.05266955 -125.75390625 548.98828125 C-125.74555063 549.6591917 -125.73719501 550.33010216 -125.7285862 551.02134323 C-125.65175345 557.19456566 -125.57970493 563.36781532 -125.52319336 569.54125977 C-125.49751831 572.31105732 -125.46675204 575.08070957 -125.43040466 577.85038757 C-125.39690477 580.42013178 -125.37084006 582.98998731 -125.35340881 585.55989075 C-125.33676682 586.71357651 -125.32012482 587.86726227 -125.30297852 589.0559082 C-125.29267105 590.06257034 -125.28236359 591.06923248 -125.27174377 592.10639954 C-124.97059085 595.31315651 -124.07504389 597.97334828 -123 601 C-122.74046626 603.19449827 -122.55659484 605.3988884 -122.4375 607.60546875 C-122.36273438 608.83587891 -122.28796875 610.06628906 -122.2109375 611.33398438 C-122.06967294 613.91467861 -121.9290537 616.49540825 -121.7890625 619.07617188 C-121.71429688 620.30271484 -121.63953125 621.52925781 -121.5625 622.79296875 C-121.50191406 623.9121167 -121.44132812 625.03126465 -121.37890625 626.18432617 C-121.18251125 629.20157355 -121.18251125 629.20157355 -119 632 C-118.66666667 634.33333333 -118.33333333 636.66666667 -118 639 C-117.01 640.485 -117.01 640.485 -116 642 C-115.40099106 644.52914886 -114.98970449 647.06177308 -114.5625 649.625 C-114.08715001 652.24628387 -114.08715001 652.24628387 -112 655 C-111.95919217 656.99958364 -111.95745644 659.00045254 -112 661 C-111.67 661.66 -111.34 662.32 -111 663 C-110.01 663 -109.02 663 -108 663 C-107.896875 664.010625 -107.79375 665.02125 -107.6875 666.0625 C-106.95467681 670.25957827 -105.89509351 673.20981299 -104 677 C-103.34 677.33 -102.68 677.66 -102 678 C-101.28452053 679.20140928 -100.62811669 680.43819437 -100 681.6875 C-97.61064886 686.11064407 -94.89562178 690.21161849 -92 694.3125 C-91.58492187 694.9108667 -91.16984375 695.5092334 -90.7421875 696.12573242 C-88.17059242 699.72283191 -85.53835019 702.29244487 -82 705 C-81.34 705.99 -80.68 706.98 -80 708 C-79.34 708 -78.68 708 -78 708 C-77.505 709.485 -77.505 709.485 -77 711 C-75.18739868 713.22931824 -75.18739868 713.22931824 -73 715 C-72.01 715 -71.02 715 -70 715 C-69.505 716.485 -69.505 716.485 -69 718 C-68.01 718 -67.02 718 -66 718 C-65.505 719.485 -65.505 719.485 -65 721 C-62.95461642 722.51234964 -62.95461642 722.51234964 -60.4375 723.875 C-57.14980393 725.76038348 -53.92207836 727.67618474 -50.75 729.75 C-47.58373493 731.73444558 -44.61247289 732.96786489 -41 734 C-39.43470464 734.49117889 -37.87234932 734.99179103 -36.3125 735.5 C-35.19294922 735.85578125 -35.19294922 735.85578125 -34.05078125 736.21875 C-32 737 -32 737 -29 739 C-26.67126625 739.68255989 -24.33817209 740.35050775 -22 741 C-21.67 741.33 -21.34 741.66 -21 742 C-18.00258143 742.53962604 -14.99445673 742.96548069 -11.98046875 743.40234375 C-9 744 -9 744 -7.01953125 745.03515625 C-4.1892559 746.38733809 -1.61875901 746.35693766 1.5 746.5 C7.59783315 746.77971712 7.59783315 746.77971712 9.82568359 748 C12.61085056 749.28093913 14.82154458 749.28860059 17.8828125 749.34375 C19.04135742 749.37210938 20.19990234 749.40046875 21.39355469 749.4296875 C23.24062012 749.46449219 23.24062012 749.46449219 25.125 749.5 C34.66460213 749.75328533 44.02672851 750.23370424 53.484375 751.5 C69.07369707 753.36574678 84.75206575 753.1429614 100.42358398 753.12939453 C103.0682792 753.13075175 105.71297163 753.13249781 108.35766602 753.13470459 C114.760727 753.13912293 121.16377618 753.13820341 127.5668376 753.13529195 C132.77702766 753.13302215 137.98721445 753.13273219 143.19740486 753.13381577 C143.94245163 753.133969 144.6874984 753.13412223 145.45512234 753.13428011 C146.96926736 753.13459987 148.48341239 753.13492409 149.99755741 753.1352527 C164.15566835 753.13809601 178.31377278 753.13483864 192.47188265 753.12945233 C204.5855064 753.12498627 216.69912056 753.12576084 228.81274414 753.13037109 C242.92292773 753.13573879 257.03310563 753.13782046 271.1432901 753.13475883 C272.65178653 753.13444032 274.16028295 753.13412595 275.66877937 753.13381577 C276.78172233 753.13358435 276.78172233 753.13358435 277.91714899 753.13334826 C283.11261344 753.13248962 288.30807425 753.13393188 293.50353813 753.13629532 C299.84726372 753.13911802 306.19097696 753.13830348 312.53470116 753.13301457 C315.76317621 753.13041047 318.99162682 753.12986641 322.22010231 753.13266373 C338.36245779 753.14535286 354.33671918 753.00152326 370.375 751 C379.51839977 749.87102579 388.66801686 749.61141954 397.87451172 749.4296875 C398.98455566 749.40132812 400.09459961 749.37296875 401.23828125 749.34375 C402.22868408 749.32505859 403.21908691 749.30636719 404.23950195 749.28710938 C407.15807329 748.98355937 409.3136367 748.14128553 412 747 C415.51218422 746.67548239 419.00274656 746.56029908 422.52734375 746.44140625 C426.28369253 745.9639401 428.67420791 744.74706452 432 743 C434.484375 742.55859375 434.484375 742.55859375 436.75 742.4375 C440.3040023 742.31354031 440.3040023 742.31354031 443 740 C444.11375 739.855625 445.2275 739.71125 446.375 739.5625 C450.16397336 738.97455586 451.10269804 738.26351716 454 736 C456.32315031 735.2986716 458.65789079 734.63514826 461 734 C465.95269986 732.05429648 470.4345597 729.70199528 475 727 C475 726.34 475 725.68 475 725 C475.72058594 724.91621094 476.44117188 724.83242188 477.18359375 724.74609375 C480.60652302 723.83932608 482.38114056 722.35429563 485.0625 720.0625 C487.96584034 717.59756853 490.56731242 715.63217341 494 714 C496.25065102 712.08333079 496.25065102 712.08333079 498 710 C498 709.34 498 708.68 498 708 C498.99 707.67 499.98 707.34 501 707 C503.2085766 705.12491838 503.2085766 705.12491838 505 703 C505 702.34 505 701.68 505 701 C505.99 700.67 506.98 700.34 508 700 C509.53768412 698.08109972 509.53768412 698.08109972 510.9375 695.75 C512.62267511 693.10724399 514.26084951 690.68118393 516.25 688.25 C518.0658842 685.91529174 518.93563284 683.73694414 520 681 C520.66 680.67 521.32 680.34 522 680 C523.28576597 677.53610005 524.47713669 675.08919912 525.625 672.5625 C525.94984375 671.86833984 526.2746875 671.17417969 526.609375 670.45898438 C528.38408041 666.87904856 528.38408041 666.87904856 529 663 C529.99 662.67 530.98 662.34 532 662 C532.04898438 661.31292969 532.09796875 660.62585938 532.1484375 659.91796875 C532.22320313 659.01691406 532.29796875 658.11585938 532.375 657.1875 C532.47941406 655.84751953 532.47941406 655.84751953 532.5859375 654.48046875 C533 652 533 652 535 649 C535.58962315 646.66607501 536.00831917 644.32909599 536.4375 641.9609375 C536.623125 641.31382812 536.80875 640.66671875 537 640 C537.66 639.67 538.32 639.34 539 639 C539.45437152 636.39850033 539.79710598 633.87163138 540.0625 631.25 C540.91854004 623.38292126 540.91854004 623.38292126 541.53515625 620.484375 C542.31148218 616.33527173 542.32084854 612.0964352 542.4296875 607.8828125 C542.6762149 602.43866577 542.6762149 602.43866577 544.50276184 599.96405029 C546.82752377 595.36176894 546.43917597 590.84942279 546.43237305 585.76269531 C546.44255903 584.61835557 546.45274502 583.47401583 546.46323967 582.29499912 C546.4935883 578.47265905 546.50268556 574.65057039 546.51171875 570.828125 C546.52708982 568.12120995 546.54685583 565.41433101 546.56639099 562.70744324 C546.6108392 556.16590027 546.63926088 549.6243827 546.66194075 543.08273178 C546.68078524 537.75052121 546.7060016 532.41837394 546.73553467 527.08621216 C546.73973923 526.32617242 546.74394379 525.56613269 546.74827576 524.78306144 C546.75681016 523.24428879 546.76535477 521.70551618 546.77390957 520.16674364 C546.86574716 503.47012424 546.92838942 486.77346006 546.98057175 470.07667524 C546.99787504 464.56257796 547.0178903 459.04849344 547.03847313 453.53440762 C547.13612786 427.05641609 547.12536117 400.57965151 547.02606201 374.10168457 C547.00702449 369.01957668 546.98993239 363.93746491 546.97393799 358.85534668 C546.92104252 342.22678906 546.85427409 325.59838305 546.76107025 308.96999836 C546.75254778 307.44599221 546.7440359 305.921986 546.73553467 304.39797974 C546.72923538 303.27013822 546.72923538 303.27013822 546.72280884 302.11951202 C546.69406854 296.84880373 546.67256322 291.57809596 546.65411377 286.30734253 C546.63148274 279.88943694 546.59821747 273.47169124 546.55149907 267.05391407 C546.52768342 263.74549239 546.51025346 260.43725332 546.50235176 257.12874985 C546.49278979 253.50526712 546.46489798 249.88237215 546.43237305 246.2590332 C546.43380877 245.1984542 546.43524448 244.13787519 546.43672371 243.04515743 C546.36590503 237.51866434 545.89664198 233.85687752 543 229 C542.55859375 225.484375 542.55859375 225.484375 542.4375 221.75 C542.20681681 216.50323889 541.63243703 211.55348954 540.4765625 206.4296875 C539.60737974 201.99828032 539.32502851 197.49907879 539 193 C538.01 192.67 537.02 192.34 536 192 C535.95101562 191.28972656 535.90203125 190.57945312 535.8515625 189.84765625 C535.77679687 188.92855469 535.70203125 188.00945312 535.625 187.0625 C535.52058594 185.68771484 535.52058594 185.68771484 535.4140625 184.28515625 C535.27742187 183.53105469 535.14078125 182.77695312 535 182 C534.34 181.67 533.68 181.34 533 181 C532.796875 179.1015625 532.796875 179.1015625 532.75 176.625 C532.169678 169.13454752 528.20203323 163.55633535 524.3359375 157.3125 C523 155 523 155 522.5 152.8125 C522.10093354 150.59453719 522.10093354 150.59453719 519 149 C518.32460898 147.33684962 517.65913927 145.66965794 517 144 C515.72112938 142.27086034 514.38407732 140.58363608 513 138.9375 C509.18698011 134.38851119 509.18698011 134.38851119 507.99609375 131.9140625 C506.73557255 129.49188451 505.15449621 128.17888232 503.0625 126.4375 C499.13131928 123.1382474 499.13131928 123.1382474 497.37109375 121.28515625 C496.07000518 119.77204267 496.07000518 119.77204267 494 120 C493.76410156 119.40960938 493.52820313 118.81921875 493.28515625 118.2109375 C491.70554877 115.49343648 490.04616645 114.36411097 487.4375 112.625 C486.09751953 111.72394531 486.09751953 111.72394531 484.73046875 110.8046875 C483.82941406 110.20914063 482.92835938 109.61359375 482 109 C481.19175781 108.44570312 480.38351562 107.89140625 479.55078125 107.3203125 C474.30757679 103.74175869 469.0337875 100.85344642 463.1875 98.375 C460 97 460 97 459 96 C457.906875 95.87625 456.81375 95.7525 455.6875 95.625 C451.88060831 94.97976412 450.94750536 94.21062902 448 92 C445.67182036 91.63239269 443.3381615 91.29758419 441 91 C440.01 90.34 439.02 89.68 438 89 C436.03289833 88.60159966 434.05057889 88.27523466 432.0625 88 C426.39763122 87.21379764 426.39763122 87.21379764 424.08203125 85.96875 C420.97835595 84.52463842 418.02570961 84.63575687 414.625 84.5 C407.59133355 84.21808952 407.59133355 84.21808952 404.28857422 83 C400.37291337 81.80931352 396.70897372 81.68424734 392.65625 81.65625 C391.46060928 81.63540344 391.46060928 81.63540344 390.24081421 81.61413574 C388.54095281 81.58451302 386.84102314 81.55861017 385.14105225 81.53613281 C372.90291591 81.3687002 360.76459937 81.08792116 348.59198856 79.74885368 C340.24020971 78.8994632 331.87882861 78.65798904 323.49194336 78.44580078 C322.29718724 78.41435734 322.29718724 78.41435734 321.07829463 78.38227868 C301.76759334 77.88312498 282.45894036 77.85230185 263.14294171 77.8656745 C258.17609948 77.86827566 253.20925872 77.86583966 248.24241638 77.86428833 C239.91347922 77.8624884 231.58455103 77.86481463 223.25561523 77.86962891 C213.74267244 77.87506544 204.22975113 77.87330433 194.71680886 77.8678025 C186.42508979 77.86320615 178.13337704 77.86265217 169.8416571 77.86524117 C164.94379225 77.86676893 160.04593734 77.86709787 155.1480732 77.86370468 C135.76083811 77.85215469 116.38534941 77.9502156 97.00366211 78.44580078 Z " fill="#FFA200" transform="translate(332,125)"/>
<path d="M0 0 C1.0450621 -0.00191345 2.09012421 -0.0038269 3.16685486 -0.00579834 C5.36978395 -0.00715578 7.57272117 -0.00349022 9.77563477 0.00488281 C13.14422576 0.01559917 16.51228477 0.0049668 19.88085938 -0.0078125 C22.02474076 -0.00649104 24.16862181 -0.00392892 26.3125 0 C27.31781265 -0.00404846 28.32312531 -0.00809692 29.35890198 -0.01226807 C30.30015427 -0.00596375 31.24140656 0.00034058 32.21118164 0.00683594 C33.0346962 0.00842712 33.85821075 0.01001831 34.7066803 0.01165771 C37.44433675 0.30340236 39.55895993 1.20852397 42.08984375 2.265625 C44.37619908 2.47912627 46.67003686 2.62027092 48.96484375 2.703125 C56.56024283 3.13782526 56.56024283 3.13782526 59.90234375 4.765625 C63.46125583 6.44040715 66.29146244 6.73662916 70.171875 6.95703125 C72.08984375 7.265625 72.08984375 7.265625 74.08984375 9.265625 C76.08222395 9.49425879 78.07498834 9.72054499 80.0703125 9.921875 C82.8540609 10.39570451 84.74935581 11.7258303 87.08984375 13.265625 C89.07620673 13.97188739 91.07832634 14.63456071 93.08984375 15.265625 C98.66141989 17.18845585 103.85917968 19.56079491 109.08984375 22.265625 C110.03601563 22.73097656 110.9821875 23.19632812 111.95703125 23.67578125 C118.35959464 26.92496242 124.64607756 30.54485509 130.58984375 34.578125 C132.99304215 36.28550151 132.99304215 36.28550151 135.40234375 37.390625 C137.08984375 38.265625 137.08984375 38.265625 138.08984375 40.265625 C139.75204956 41.27302246 141.42005049 42.27085455 143.08984375 43.265625 C147.84389659 46.58865991 152.0363604 50.10547104 156.08984375 54.265625 C157.07984375 55.07 158.06984375 55.874375 159.08984375 56.703125 C162.16219217 59.32742261 164.51497247 62.16257499 167.08984375 65.265625 C168.75254662 66.60389804 170.41900556 67.93752285 172.08984375 69.265625 C176.08984375 73.80616554 176.08984375 73.80616554 176.08984375 76.265625 C177.07984375 76.595625 178.06984375 76.925625 179.08984375 77.265625 C180.48738249 78.8788333 181.81112114 80.55670018 183.08984375 82.265625 C183.84523438 83.22339844 184.600625 84.18117188 185.37890625 85.16796875 C186.53519531 86.67037109 186.53519531 86.67037109 187.71484375 88.203125 C188.49085938 89.20214844 189.266875 90.20117188 190.06640625 91.23046875 C192.08984375 94.265625 192.08984375 94.265625 193.17578125 97.58203125 C193.47742188 98.46761719 193.7790625 99.35320312 194.08984375 100.265625 C195.07984375 100.595625 196.06984375 100.925625 197.08984375 101.265625 C198.15234375 103.578125 198.15234375 103.578125 199.08984375 106.265625 C200.09000184 108.53264999 200.823398 110.02049491 202.65234375 111.703125 C204.54247496 113.75761544 204.72226845 115.54556777 205.08984375 118.265625 C205.74984375 118.265625 206.40984375 118.265625 207.08984375 118.265625 C207.19296875 119.214375 207.29609375 120.163125 207.40234375 121.140625 C207.7752367 124.55670001 207.7752367 124.55670001 211.08984375 126.265625 C213.25230682 131.35377341 214.08429925 136.85280036 215.08984375 142.265625 C216.07984375 142.595625 217.06984375 142.925625 218.08984375 143.265625 C218.41984375 146.235625 218.74984375 149.205625 219.08984375 152.265625 C219.74984375 152.265625 220.40984375 152.265625 221.08984375 152.265625 C221.21101563 153.31363281 221.3321875 154.36164063 221.45703125 155.44140625 C221.6258832 156.82036386 221.79517716 158.19926739 221.96484375 159.578125 C222.04347656 160.26841797 222.12210938 160.95871094 222.203125 161.66992188 C222.64928222 165.22201971 223.06964568 167.2353279 225.08984375 170.265625 C225.43359375 172.38671875 225.43359375 172.38671875 225.58984375 174.703125 C225.80782962 178.01081007 225.80782962 178.01081007 227.08203125 181.015625 C228.63868648 184.4909483 228.57338695 188.07729784 228.71484375 191.828125 C228.77067627 193.12858765 228.77067627 193.12858765 228.82763672 194.45532227 C229.43225339 210.35785514 229.36290002 226.30330276 228.71484375 242.203125 C228.6686792 243.49851196 228.6686792 243.49851196 228.62158203 244.82006836 C228.58274902 245.61550049 228.54391602 246.41093262 228.50390625 247.23046875 C228.47248535 247.9174585 228.44106445 248.60444824 228.40869141 249.31225586 C228.0368651 251.59019019 227.16674832 253.23554421 226.08984375 255.265625 C225.68601599 256.98387252 225.33291405 258.71471245 225.02734375 260.453125 C224.1930466 265.16242215 224.1930466 265.16242215 223.08984375 266.265625 C222.69041199 268.78758467 222.33904527 271.29526156 222.02734375 273.828125 C221.89102539 274.89450195 221.89102539 274.89450195 221.75195312 275.98242188 C221.52744872 277.74300903 221.30815978 279.50425978 221.08984375 281.265625 C220.42984375 281.265625 219.76984375 281.265625 219.08984375 281.265625 C218.75984375 284.235625 218.42984375 287.205625 218.08984375 290.265625 C217.09984375 290.595625 216.10984375 290.925625 215.08984375 291.265625 C214.98027344 291.90628906 214.87070312 292.54695313 214.7578125 293.20703125 C213.76970344 298.59744734 212.67310571 303.40909252 210.08984375 308.265625 C209.09984375 308.595625 208.10984375 308.925625 207.08984375 309.265625 C207.08984375 311.245625 207.08984375 313.225625 207.08984375 315.265625 C206.42984375 315.265625 205.76984375 315.265625 205.08984375 315.265625 C204.65671875 316.9671875 204.65671875 316.9671875 204.21484375 318.703125 C203.84359375 319.87875 203.47234375 321.054375 203.08984375 322.265625 C202.42984375 322.595625 201.76984375 322.925625 201.08984375 323.265625 C199.53974857 325.59076777 198.26107957 327.76466916 197.35546875 330.4140625 C195.53072893 334.52535901 192.95341626 337.99437261 190.33984375 341.640625 C189.82679688 342.37023437 189.31375 343.09984375 188.78515625 343.8515625 C181.69301205 353.83045886 181.69301205 353.83045886 178.08984375 357.265625 C177.42984375 357.265625 176.76984375 357.265625 176.08984375 357.265625 C175.85265625 357.81734375 175.61546875 358.3690625 175.37109375 358.9375 C173.77739232 361.83337211 171.80067102 364.06074537 169.58984375 366.515625 C168.79578125 367.40765625 168.00171875 368.2996875 167.18359375 369.21875 C165.08984375 371.265625 165.08984375 371.265625 163.08984375 371.265625 C162.75984375 372.255625 162.42984375 373.245625 162.08984375 374.265625 C160.11027433 375.95650722 158.11039179 377.62392972 156.08984375 379.265625 C155.75984375 379.925625 155.42984375 380.585625 155.08984375 381.265625 C154.09984375 381.595625 153.10984375 381.925625 152.08984375 382.265625 C150.40050453 383.9093064 148.73724451 385.5799126 147.08984375 387.265625 C141.71043996 392.265625 141.71043996 392.265625 138.08984375 392.265625 C137.75984375 393.255625 137.42984375 394.245625 137.08984375 395.265625 C136.09984375 395.595625 135.10984375 395.925625 134.08984375 396.265625 C133.59484375 396.760625 133.09984375 397.255625 132.58984375 397.765625 C131.08984375 399.265625 131.08984375 399.265625 128.08984375 400.265625 C127.75984375 400.925625 127.42984375 401.585625 127.08984375 402.265625 C125.43992793 402.97273178 123.76906755 403.63125156 122.08984375 404.265625 C117.83462601 405.94425082 117.83462601 405.94425082 115.08984375 409.265625 C114.24421875 409.53375 113.39859375 409.801875 112.52734375 410.078125 C109.57785627 411.09703886 107.74902155 412.061178 105.21484375 413.765625 C101.87322549 415.94053025 99.01967108 416.94303415 95.14453125 417.7421875 C92.86104468 418.32391221 90.90610284 419.19556287 88.77734375 420.203125 C84.39600852 422.25233589 79.96320779 423.48738588 75.27734375 424.65234375 C73.13063126 425.06151329 73.13063126 425.06151329 72.08984375 426.265625 C69.93239977 426.51089232 67.77601596 426.64880295 65.609375 426.7890625 C62.9390076 427.16676015 62.9390076 427.16676015 60.23046875 428.76953125 C56.63466404 430.48245812 53.98924757 430.6944808 50.02734375 430.828125 C45.23608174 430.94955596 45.23608174 430.94955596 40.69749451 432.26873779 C37.93691312 433.32408934 35.96798686 433.51896763 33.02758789 433.52441406 C31.5556472 433.53387054 31.5556472 433.53387054 30.05397034 433.54351807 C29.00491013 433.5394696 27.95584991 433.53542114 26.875 433.53125 C25.78650253 433.53316345 24.69800507 433.5350769 23.57652283 433.53704834 C21.27765674 433.53840755 18.97878292 433.53472957 16.67993164 433.52636719 C13.16860628 433.51567452 9.65779374 433.52626636 6.14648438 433.5390625 C3.91015512 433.53774066 1.67382619 433.53517775 -0.5625 433.53125 C-1.60953598 433.53529846 -2.65657196 433.53934692 -3.7353363 433.54351807 C-8.89614692 433.51046861 -13.05824971 433.21961403 -17.91015625 431.265625 C-20.05090574 431.05811677 -22.19855888 430.91326331 -24.34765625 430.828125 C-31.30844489 430.39406222 -31.30844489 430.39406222 -34.72265625 428.765625 C-37.55586147 427.43235196 -39.14628156 427.00287746 -42.16015625 426.703125 C-45.91015625 426.265625 -45.91015625 426.265625 -48.91015625 424.265625 C-50.84946335 423.74009339 -50.84946335 423.74009339 -52.97265625 423.390625 C-57.38455807 422.48102836 -61.34723065 421.00748245 -65.49609375 419.2734375 C-67.68076442 418.36139052 -69.87541713 417.51823201 -72.09765625 416.703125 C-75.75913664 415.34591638 -79.33283867 413.83070144 -82.91015625 412.265625 C-82.91015625 411.605625 -82.91015625 410.945625 -82.91015625 410.265625 C-84.42609375 409.9253125 -84.42609375 409.9253125 -85.97265625 409.578125 C-89.67467022 408.53856956 -92.238666 406.75774733 -95.265625 404.44140625 C-97.34461638 402.95500149 -99.49364909 402.07112739 -101.91015625 401.265625 C-101.91015625 400.605625 -101.91015625 399.945625 -101.91015625 399.265625 C-102.71453125 399.141875 -103.51890625 399.018125 -104.34765625 398.890625 C-105.61609375 398.58125 -105.61609375 398.58125 -106.91015625 398.265625 C-107.24015625 397.605625 -107.57015625 396.945625 -107.91015625 396.265625 C-109.38156125 395.382782 -110.88711609 394.55606356 -112.41015625 393.765625 C-116.79904514 391.48784722 -116.79904514 391.48784722 -117.91015625 389.265625 C-118.90015625 388.935625 -119.89015625 388.605625 -120.91015625 388.265625 C-122.04307584 387.16703631 -123.16924687 386.06069417 -124.26171875 384.921875 C-129.06121218 380.09963515 -134.22488777 375.57886248 -139.53515625 371.328125 C-140.31890625 370.6475 -141.10265625 369.966875 -141.91015625 369.265625 C-141.91015625 368.605625 -141.91015625 367.945625 -141.91015625 367.265625 C-142.57015625 367.265625 -143.23015625 367.265625 -143.91015625 367.265625 C-146.91015625 363.80408654 -146.91015625 363.80408654 -146.91015625 361.265625 C-147.90015625 360.935625 -148.89015625 360.605625 -149.91015625 360.265625 C-152.91015625 356.82118056 -152.91015625 356.82118056 -152.91015625 354.265625 C-153.90015625 353.935625 -154.89015625 353.605625 -155.91015625 353.265625 C-163.91015625 344.23336694 -163.91015625 344.23336694 -163.91015625 340.265625 C-164.57015625 340.265625 -165.23015625 340.265625 -165.91015625 340.265625 C-167.31572929 338.22739488 -168.59554906 336.20785594 -169.84765625 334.078125 C-170.19505859 333.49998047 -170.54246094 332.92183594 -170.90039062 332.32617188 C-171.91016381 330.64321657 -172.9103001 328.95449092 -173.91015625 327.265625 C-174.77833984 325.91017578 -174.77833984 325.91017578 -175.6640625 324.52734375 C-176.91015625 322.265625 -176.91015625 322.265625 -176.91015625 319.265625 C-177.90015625 318.935625 -178.89015625 318.605625 -179.91015625 318.265625 C-181.38847885 315.30897981 -180.97048408 312.52332763 -180.91015625 309.265625 C-181.90015625 308.935625 -182.89015625 308.605625 -183.91015625 308.265625 C-186.85280638 304.01400292 -188.39702162 299.39697125 -188.91015625 294.265625 C-189.57015625 294.265625 -190.23015625 294.265625 -190.91015625 294.265625 C-190.91015625 290.965625 -190.91015625 287.665625 -190.91015625 284.265625 C-192.23015625 283.935625 -193.55015625 283.605625 -194.91015625 283.265625 C-197.06678391 274.21863978 -198.46210174 265.56661865 -198.91015625 256.265625 C-199.57015625 256.265625 -200.23015625 256.265625 -200.91015625 256.265625 C-201.70256177 253.43931211 -202.06155248 250.8527155 -202.15625 247.921875 C-202.18799316 247.09381348 -202.21973633 246.26575195 -202.25244141 245.41259766 C-202.2838623 244.53909668 -202.3152832 243.6655957 -202.34765625 242.765625 C-202.58010865 237.04238063 -202.89866621 231.51968307 -204.03515625 225.890625 C-205.41635113 218.69818055 -205.00121422 211.12957809 -203.3984375 203.984375 C-202.48118759 198.87712752 -202.50537972 193.65953781 -202.3046875 188.48242188 C-202.26730469 187.61552734 -202.22992188 186.74863281 -202.19140625 185.85546875 C-202.16111328 185.07034912 -202.13082031 184.28522949 -202.09960938 183.47631836 C-201.91392815 181.30963866 -201.49866482 179.35548565 -200.91015625 177.265625 C-200.25015625 177.265625 -199.59015625 177.265625 -198.91015625 177.265625 C-198.884375 176.50121094 -198.85859375 175.73679687 -198.83203125 174.94921875 C-198.35509258 165.94158168 -196.46515422 157.85754839 -193.91015625 149.265625 C-192.92015625 149.265625 -191.93015625 149.265625 -190.91015625 149.265625 C-190.91015625 145.965625 -190.91015625 142.665625 -190.91015625 139.265625 C-190.25015625 139.265625 -189.59015625 139.265625 -188.91015625 139.265625 C-188.66265625 138.275625 -188.41515625 137.285625 -188.16015625 136.265625 C-186.95203484 131.98467304 -185.00194331 128.17503285 -182.91015625 124.265625 C-182.25015625 124.265625 -181.59015625 124.265625 -180.91015625 124.265625 C-180.97203125 123.1725 -181.03390625 122.079375 -181.09765625 120.953125 C-180.91015625 117.265625 -180.91015625 117.265625 -179.47265625 115.515625 C-178.95703125 115.103125 -178.44140625 114.690625 -177.91015625 114.265625 C-177.41515625 112.780625 -177.41515625 112.780625 -176.91015625 111.265625 C-176.25015625 111.265625 -175.59015625 111.265625 -174.91015625 111.265625 C-174.25015625 108.955625 -173.59015625 106.645625 -172.91015625 104.265625 C-172.25015625 104.265625 -171.59015625 104.265625 -170.91015625 104.265625 C-170.82765625 103.564375 -170.74515625 102.863125 -170.66015625 102.140625 C-169.7300662 98.5752798 -168.14329256 96.17546928 -165.91015625 93.265625 C-165.25015625 93.265625 -164.59015625 93.265625 -163.91015625 93.265625 C-163.65234375 92.53988281 -163.39453125 91.81414062 -163.12890625 91.06640625 C-161.85773126 88.14514833 -160.36999223 85.95689851 -158.41015625 83.453125 C-157.80171875 82.66292969 -157.19328125 81.87273437 -156.56640625 81.05859375 C-156.01984375 80.46691406 -155.47328125 79.87523437 -154.91015625 79.265625 C-154.25015625 79.265625 -153.59015625 79.265625 -152.91015625 79.265625 C-152.66910156 78.70746094 -152.42804688 78.14929688 -152.1796875 77.57421875 C-147.50837648 69.07961933 -138.95101581 61.9347545 -131.59765625 55.73828125 C-130.13716388 54.4637312 -128.76380904 53.09061911 -127.41015625 51.703125 C-124.9353923 49.29023015 -122.41396112 47.40167444 -119.55859375 45.4765625 C-117.87469202 44.30693762 -117.87469202 44.30693762 -116.4765625 42.80859375 C-114.62266479 40.98243516 -112.64427254 39.63500016 -110.47265625 38.203125 C-109.71082031 37.69652344 -108.94898438 37.18992187 -108.1640625 36.66796875 C-105.91015625 35.265625 -105.91015625 35.265625 -103.6875 34.20703125 C-101.73073418 33.39100907 -101.73073418 33.39100907 -100.91015625 31.265625 C-99.25577012 30.56904137 -97.58761307 29.90465617 -95.91015625 29.265625 C-94.92015625 28.605625 -93.93015625 27.945625 -92.91015625 27.265625 C-91.92015625 27.265625 -90.93015625 27.265625 -89.91015625 27.265625 C-89.41515625 25.780625 -89.41515625 25.780625 -88.91015625 24.265625 C-86.93031144 23.54129153 -84.92432187 22.88818528 -82.91015625 22.265625 C-81.62770954 21.66481488 -80.35721822 21.03803985 -79.09765625 20.390625 C-72.45192293 16.9919515 -65.79429087 14.09593767 -58.66015625 11.87890625 C-56.90625492 11.40620944 -56.90625492 11.40620944 -55.91015625 10.265625 C-53.88215835 10.0402919 -51.85340751 9.81795315 -49.8203125 9.64453125 C-47.67726145 9.40340273 -47.67726145 9.40340273 -45.91015625 7.265625 C-43.9660273 6.85752796 -42.00329325 6.53510097 -40.03515625 6.265625 C-35.83064052 5.73605223 -35.83064052 5.73605223 -31.92578125 4.234375 C-29.12990915 2.89062252 -26.62080658 2.90947816 -23.53515625 2.765625 C-18.84927665 2.55305943 -18.84927665 2.55305943 -14.38647461 1.26074219 C-9.56200345 -0.12029191 -4.99382557 -0.02015105 0 0 Z M-6.59765625 82.640625 C-8.19577148 82.82939209 -8.19577148 82.82939209 -9.82617188 83.02197266 C-10.82712891 83.1513623 -11.82808594 83.28075195 -12.859375 83.4140625 C-13.76002686 83.52927246 -14.66067871 83.64448242 -15.58862305 83.76318359 C-18.16809121 84.17314333 -18.16809121 84.17314333 -20.91015625 86.265625 C-22.4189085 86.61443745 -23.94291796 86.89999201 -25.47265625 87.140625 C-30.96026558 88.15655268 -35.81041296 90.04353318 -40.91015625 92.265625 C-41.63074219 92.57113281 -42.35132813 92.87664062 -43.09375 93.19140625 C-44.70276858 93.87451072 -46.30709982 94.56864394 -47.91015625 95.265625 C-47.91015625 95.925625 -47.91015625 96.585625 -47.91015625 97.265625 C-48.87953125 97.389375 -49.84890625 97.513125 -50.84765625 97.640625 C-51.85828125 97.846875 -52.86890625 98.053125 -53.91015625 98.265625 C-54.24015625 98.925625 -54.57015625 99.585625 -54.91015625 100.265625 C-55.63203125 100.53375 -56.35390625 100.801875 -57.09765625 101.078125 C-60.61751156 102.56428613 -63.01142307 104.79861804 -65.91015625 107.265625 C-68.28515625 108.578125 -68.28515625 108.578125 -69.91015625 109.265625 C-69.91015625 109.925625 -69.91015625 110.585625 -69.91015625 111.265625 C-70.74546875 111.389375 -70.74546875 111.389375 -71.59765625 111.515625 C-74.64693544 112.50458041 -76.56205588 114.11319966 -78.91015625 116.265625 C-78.91015625 116.925625 -78.91015625 117.585625 -78.91015625 118.265625 C-79.4721875 118.4925 -80.03421875 118.719375 -80.61328125 118.953125 C-83.55642486 120.63492135 -85.41060357 122.7367161 -87.66015625 125.265625 C-88.459375 126.1525 -89.25859375 127.039375 -90.08203125 127.953125 C-92.11687616 130.03581198 -92.11687616 130.03581198 -91.91015625 132.265625 C-92.57015625 132.265625 -93.23015625 132.265625 -93.91015625 132.265625 C-98.52216994 137.1957086 -101.97581506 143.35878575 -104.03515625 149.765625 C-104.32390625 150.590625 -104.61265625 151.415625 -104.91015625 152.265625 C-106.39515625 152.760625 -106.39515625 152.760625 -107.91015625 153.265625 C-107.91015625 155.245625 -107.91015625 157.225625 -107.91015625 159.265625 C-109.39515625 159.760625 -109.39515625 159.760625 -110.91015625 160.265625 C-111.63448972 162.24546981 -112.28759597 164.25145938 -112.91015625 166.265625 C-113.57015625 167.4 -114.23015625 168.534375 -114.91015625 169.703125 C-117.58120289 174.77909924 -117.81436443 180.25840799 -118.3203125 185.875 C-118.91015625 189.265625 -118.91015625 189.265625 -120.42276001 191.17773438 C-122.21280705 193.69046255 -122.28957306 195.00736872 -122.29833984 198.0625 C-122.30779633 199.0102832 -122.31725281 199.95806641 -122.32699585 200.93457031 C-122.32092316 201.95131836 -122.31485046 202.96806641 -122.30859375 204.015625 C-122.31146393 205.06588867 -122.31433411 206.11615234 -122.31729126 207.19824219 C-122.31933146 209.4173232 -122.3138047 211.63642221 -122.30126953 213.85546875 C-122.28521584 217.25301306 -122.30112032 220.64936771 -122.3203125 224.046875 C-122.31833006 226.20312763 -122.31448637 228.35937951 -122.30859375 230.515625 C-122.31466644 231.53237305 -122.32073914 232.54912109 -122.32699585 233.59667969 C-122.31753937 234.54446289 -122.30808289 235.49224609 -122.29833984 236.46875 C-122.29595306 237.30051758 -122.29356628 238.13228516 -122.29110718 238.98925781 C-121.825081 241.773991 -120.6494702 243.08264826 -118.91015625 245.265625 C-118.3203125 248.4375 -118.3203125 248.4375 -117.97265625 252.015625 C-117.2313899 257.97664192 -115.88993092 262.13949923 -112.91015625 267.265625 C-111.85759319 269.57948726 -110.88800936 271.91877753 -109.91015625 274.265625 C-109.25015625 274.265625 -108.59015625 274.265625 -107.91015625 274.265625 C-107.97203125 275.19375 -108.03390625 276.121875 -108.09765625 277.078125 C-108.2415235 280.22800367 -108.2415235 280.22800367 -106.47265625 281.890625 C-105.95703125 282.344375 -105.44140625 282.798125 -104.91015625 283.265625 C-104.22265625 285.453125 -104.22265625 285.453125 -103.91015625 287.265625 C-103.25015625 287.265625 -102.59015625 287.265625 -101.91015625 287.265625 C-101.64203125 287.966875 -101.37390625 288.668125 -101.09765625 289.390625 C-98.51199132 296.01692319 -98.51199132 296.01692319 -93.91015625 301.265625 C-93.25015625 301.265625 -92.59015625 301.265625 -91.91015625 301.265625 C-91.70003906 301.7915625 -91.48992187 302.3175 -91.2734375 302.859375 C-89.34195912 306.26851736 -86.76820248 308.91747291 -84.09765625 311.765625 C-83.57623047 312.33410156 -83.05480469 312.90257812 -82.51757812 313.48828125 C-78.54192728 317.76669701 -74.49328235 321.58137356 -69.28515625 324.328125 C-65.91015625 326.265625 -65.91015625 326.265625 -64.53515625 327.66796875 C-62.40995665 329.75740778 -60.06102901 331.18781955 -57.53515625 332.765625 C-56.59929687 333.3534375 -55.6634375 333.94125 -54.69921875 334.546875 C-53.77882813 335.1140625 -52.8584375 335.68125 -51.91015625 336.265625 C-50.58177734 337.08740234 -50.58177734 337.08740234 -49.2265625 337.92578125 C-46.5229817 339.4895725 -43.8870313 340.31077829 -40.91015625 341.265625 C-31.23368566 344.94209559 -31.23368566 344.94209559 -29.91015625 346.265625 C-28.25095729 346.63433588 -26.58241354 346.96157822 -24.91015625 347.265625 C-20.02126736 348.15451389 -20.02126736 348.15451389 -18.91015625 349.265625 C-15.99258677 349.64360971 -13.08652191 349.97390007 -10.16015625 350.265625 C-1.45743706 351.14971076 -1.45743706 351.14971076 1.671875 351.8125 C12.15470772 353.77697269 23.57007125 352.29447093 34.02734375 350.890625 C34.9805249 350.76461914 35.93370605 350.63861328 36.91577148 350.50878906 C42.30036959 349.76360612 42.30036959 349.76360612 47.08984375 347.265625 C48.598596 346.91681255 50.12260546 346.63125799 51.65234375 346.390625 C57.13995308 345.37469732 61.99010046 343.48771682 67.08984375 341.265625 C67.81042969 340.96011719 68.53101563 340.65460938 69.2734375 340.33984375 C70.88245608 339.65673928 72.48678732 338.96260606 74.08984375 338.265625 C74.08984375 337.605625 74.08984375 336.945625 74.08984375 336.265625 C75.05921875 336.141875 76.02859375 336.018125 77.02734375 335.890625 C78.03796875 335.684375 79.04859375 335.478125 80.08984375 335.265625 C80.41984375 334.605625 80.74984375 333.945625 81.08984375 333.265625 C82.73347509 332.54403076 84.40034761 331.87211079 86.08984375 331.265625 C86.08984375 330.605625 86.08984375 329.945625 86.08984375 329.265625 C87.01796875 329.08 87.01796875 329.08 87.96484375 328.890625 C90.28105207 328.39365144 90.28105207 328.39365144 92.08984375 326.265625 C92.77046875 326.100625 93.45109375 325.935625 94.15234375 325.765625 C94.79171875 325.600625 95.43109375 325.435625 96.08984375 325.265625 C96.41984375 324.605625 96.74984375 323.945625 97.08984375 323.265625 C98.07984375 322.935625 99.06984375 322.605625 100.08984375 322.265625 C101.77716652 320.28302074 103.44350432 318.2823908 105.08984375 316.265625 C106.07984375 315.605625 107.06984375 314.945625 108.08984375 314.265625 C108.08984375 313.605625 108.08984375 312.945625 108.08984375 312.265625 C108.74984375 312.265625 109.40984375 312.265625 110.08984375 312.265625 C111.86656072 310.58602662 111.86656072 310.58602662 113.65234375 308.453125 C114.27238281 307.74542969 114.89242187 307.03773438 115.53125 306.30859375 C117.27409129 304.25289032 117.27409129 304.25289032 118.08984375 301.265625 C118.74984375 301.265625 119.40984375 301.265625 120.08984375 301.265625 C122.7997579 298.30935502 124.19095034 296.11802532 125.08984375 292.265625 C125.55132813 291.81703125 126.0128125 291.3684375 126.48828125 290.90625 C128.25964358 289.09168371 129.10481762 287.43924508 130.15234375 285.140625 C131.86920318 281.37594528 131.86920318 281.37594528 134.08984375 280.265625 C134.23421875 279.316875 134.37859375 278.368125 134.52734375 277.390625 C135.15706774 273.89215838 135.7199057 273.63556305 138.08984375 271.265625 C138.84391476 268.95905486 139.50128175 266.619873 140.08984375 264.265625 C141.02656524 260.9285547 141.95066949 257.64221417 143.15234375 254.390625 C144.35545268 250.38026191 144.73853351 246.42587786 145.08984375 242.265625 C146.07984375 241.935625 147.06984375 241.605625 148.08984375 241.265625 C148.11513854 234.46631665 148.13268724 227.66702037 148.14477539 220.86767578 C148.14981318 218.55321804 148.15664356 216.2387635 148.1652832 213.92431641 C148.17737299 210.6031821 148.1830775 207.28208975 148.1875 203.9609375 C148.19266129 202.92131866 148.19782257 201.88169983 148.20314026 200.81057739 C148.20321579 199.84973236 148.20329132 198.88888733 148.20336914 197.89892578 C148.20558975 197.05065216 148.20781036 196.20237854 148.21009827 195.32839966 C148.22216559 193.20160107 148.22216559 193.20160107 147.08984375 191.265625 C146.42984375 191.265625 145.76984375 191.265625 145.08984375 191.265625 C144.98671875 190.028125 144.88359375 188.790625 144.77734375 187.515625 C143.84304575 177.06471595 143.84304575 177.06471595 139.08984375 168.265625 C138.42317708 165.93229167 137.75651042 163.59895833 137.08984375 161.265625 C136.42984375 160.605625 135.76984375 159.945625 135.08984375 159.265625 C134.92484375 158.255 134.75984375 157.244375 134.58984375 156.203125 C134.42484375 155.23375 134.25984375 154.264375 134.08984375 153.265625 C133.42984375 152.935625 132.76984375 152.605625 132.08984375 152.265625 C130.71618845 149.72964599 129.52645736 147.12957616 128.30859375 144.515625 C127.29379836 142.12865966 127.29379836 142.12865966 125.08984375 141.265625 C124.41543244 139.6020771 123.74981165 137.93495558 123.08984375 136.265625 C121.69027178 133.98078194 121.69027178 133.98078194 120.08984375 132.265625 C119.42984375 132.265625 118.76984375 132.265625 118.08984375 132.265625 C117.86296875 131.70875 117.63609375 131.151875 117.40234375 130.578125 C115.72553874 127.62375428 113.51660023 125.63460157 111.08984375 123.265625 C110.45046875 122.440625 109.81109375 121.615625 109.15234375 120.765625 C107.45700095 118.71066403 105.944764 117.23637573 103.90234375 115.578125 C101.08984375 113.265625 101.08984375 113.265625 100.08984375 111.265625 C98.74507737 110.44318204 97.3631941 109.6807412 95.96484375 108.953125 C92.31197436 106.98753338 88.97772881 104.84550596 85.640625 102.390625 C80.21579665 98.45523315 74.15184759 95.65242682 67.98828125 93.08203125 C66.66827538 92.5143744 65.36144343 91.91548662 64.06640625 91.29296875 C58.66808012 88.73022548 53.32301473 87.19584925 47.49609375 85.87890625 C45.08984375 85.265625 45.08984375 85.265625 44.08984375 84.265625 C27.04119005 81.09992907 10.57350442 80.60666615 -6.59765625 82.640625 Z " fill="#FFA200" transform="translate(528.91015625,323.734375)"/>
<path d="M0 0 C0.76828125 -0.01224609 1.5365625 -0.02449219 2.328125 -0.03710938 C6.3342862 -0.04750599 9.12902041 0.0501852 12.625 2.1875 C14.67936268 2.74566646 16.7379114 3.18494543 18.8203125 3.625 C20.625 4.1875 20.625 4.1875 22.625 6.1875 C23.615 6.55875 24.605 6.93 25.625 7.3125 C33.72985725 10.67965364 41.41004538 17.4600832 45.625 25.1875 C45.625 26.1775 45.625 27.1675 45.625 28.1875 C46.615 28.1875 47.605 28.1875 48.625 28.1875 C48.728125 29.115625 48.83125 30.04375 48.9375 31 C49.27203363 34.16442882 49.27203363 34.16442882 51.14746094 35.42382812 C53.45001865 38.17228763 53.01371679 41.17352656 52.953125 44.59375 C52.95125183 45.31485962 52.94937866 46.03596924 52.94744873 46.77893066 C52.9407326 48.30204906 52.92682666 49.82515033 52.90625 51.34814453 C52.87511523 53.67887416 52.86527979 56.00892682 52.859375 58.33984375 C52.85020362 59.82032074 52.83982742 61.30079085 52.828125 62.78125 C52.82387512 63.4781897 52.81962524 64.17512939 52.81524658 64.89318848 C52.77048314 67.92527817 52.59158358 70.28774925 51.625 73.1875 C50.635 73.6825 50.635 73.6825 49.625 74.1875 C48.89806096 76.16638961 48.22683749 78.16704558 47.625 80.1875 C46.965 80.1875 46.305 80.1875 45.625 80.1875 C45.13 82.1675 45.13 82.1675 44.625 84.1875 C43.965 84.1875 43.305 84.1875 42.625 84.1875 C42.25375 85.54875 42.25375 85.54875 41.875 86.9375 C39.82057778 92.27899778 36.45766769 94.4259756 31.625 97.1875 C30.655625 97.88875 29.68625 98.59 28.6875 99.3125 C25.52809688 101.24682844 23.2782333 101.83957302 19.625 102.1875 C19.625 102.8475 19.625 103.5075 19.625 104.1875 C17.12776548 104.86635987 14.62803859 105.53067427 12.125 106.1875 C11.08085938 106.47367188 11.08085938 106.47367188 10.015625 106.765625 C3.13209713 108.55024334 -2.70612976 109.04558725 -9.375 106.1875 C-11.96519408 105.65216577 -14.55962081 105.18798346 -17.16796875 104.75 C-19.375 104.1875 -19.375 104.1875 -21.375 102.1875 C-23.02491582 101.48039322 -24.69062256 100.80806011 -26.375 100.1875 C-26.375 99.5275 -26.375 98.8675 -26.375 98.1875 C-28.025 97.8575 -29.675 97.5275 -31.375 97.1875 C-31.375 96.5275 -31.375 95.8675 -31.375 95.1875 C-32.11621094 94.95546875 -32.85742188 94.7234375 -33.62109375 94.484375 C-36.89207872 92.94399626 -38.25654194 91.29919448 -40.4375 88.4375 C-41.46423828 87.09171875 -41.46423828 87.09171875 -42.51171875 85.71875 C-43.12660156 84.8834375 -43.74148438 84.048125 -44.375 83.1875 C-44.81457031 82.5996875 -45.25414062 82.011875 -45.70703125 81.40625 C-48.00749695 78.16664288 -49.22438109 74.96810499 -50.375 71.1875 C-50.71756836 70.58993896 -51.06013672 69.99237793 -51.41308594 69.37670898 C-52.64664966 66.5692557 -52.63396017 64.3474076 -52.640625 61.28515625 C-52.64320313 60.14755859 -52.64578125 59.00996094 -52.6484375 57.83789062 C-52.64070312 56.65388672 -52.63296875 55.46988281 -52.625 54.25 C-52.63273438 53.06986328 -52.64046875 51.88972656 -52.6484375 50.67382812 C-52.64585937 49.53494141 -52.64328125 48.39605469 -52.640625 47.22265625 C-52.63836914 46.1850415 -52.63611328 45.14742676 -52.63378906 44.07836914 C-52.36470346 41.07247988 -51.62208444 38.91852054 -50.375 36.1875 C-49.62787855 34.08061752 -48.88693689 31.97201318 -48.15625 29.859375 C-47.375 28.1875 -47.375 28.1875 -45.375 27.1875 C-44.5344585 25.77802054 -43.75011266 24.33461412 -43 22.875 C-39.95918936 17.26461546 -36.85771023 14.39689135 -31.375 11.1875 C-30.611875 10.548125 -29.84875 9.90875 -29.0625 9.25 C-23.30504284 4.83148637 -17.39322535 2.76055051 -10.375 1.1875 C-7.12230549 -0.43884726 -3.570215 0.00296529 0 0 Z " fill="#FFA200" transform="translate(763.375,264.8125)"/>
</svg>
