<?xml version="1.0" encoding="UTF-8"?>
<svg version="1.1" xmlns="http://www.w3.org/2000/svg" width="1080" height="1080">
<path d="M0 0 C2.97733591 0.47492266 5.79220744 0.64477334 8.80395508 0.69995117 C9.87194336 0.72831055 10.93993164 0.75666992 12.0402832 0.78588867 C14.25366135 0.83769389 16.46722732 0.88204649 18.6809082 0.91870117 C24.62203587 1.09018291 29.57963615 1.69701873 35.14208984 3.80737305 C37.7159474 4.71944441 40.16084513 4.92817957 42.87817383 5.05151367 C46.56314419 5.22698845 48.81679311 5.79755318 52.06567383 7.48901367 C53.7218204 7.87120134 55.39024407 8.20296469 57.06567383 8.48901367 C60.44920962 9.06669051 63.03551754 9.89254703 66.06567383 11.48901367 C68.3973076 12.16160034 70.73087773 12.82748811 73.06567383 13.48901367 C78.65279011 15.35885018 83.83989711 17.78671088 89.06567383 20.48901367 C90.48299805 21.18510742 90.48299805 21.18510742 91.92895508 21.89526367 C95.06721929 23.48979891 98.09461063 25.20410423 101.12817383 26.98901367 C102.12977539 27.57682617 103.13137695 28.16463867 104.16333008 28.77026367 C105.12110352 29.33745117 106.07887695 29.90463867 107.06567383 30.48901367 C107.99250977 31.01495117 108.9193457 31.54088867 109.87426758 32.08276367 C112.06567383 33.48901367 112.06567383 33.48901367 113.06567383 35.48901367 C114.7285665 36.49527693 116.39583562 37.49431868 118.06567383 38.48901367 C119.57577861 39.74437034 121.05526176 41.03740618 122.50317383 42.36401367 C124.9750716 44.62007853 127.3850798 46.72856815 130.06567383 48.73901367 C134.17442123 52.06294416 137.05666412 56.68053075 140.11254883 60.94213867 C141.81400814 63.54551769 141.81400814 63.54551769 144.06567383 64.48901367 C144.06567383 65.47901367 144.06567383 66.46901367 144.06567383 67.48901367 C145.05567383 67.81901367 146.04567383 68.14901367 147.06567383 68.48901367 C148.45239258 70.26635742 148.45239258 70.26635742 149.75317383 72.42651367 C150.19016602 73.13678711 150.6271582 73.84706055 151.07739258 74.57885742 C152.06567383 76.48901367 152.06567383 76.48901367 152.06567383 78.48901367 C153.05567383 78.81901367 154.04567383 79.14901367 155.06567383 79.48901367 C155.18942383 80.29338867 155.31317383 81.09776367 155.44067383 81.92651367 C155.64692383 82.77213867 155.85317383 83.61776367 156.06567383 84.48901367 C156.72567383 84.81901367 157.38567383 85.14901367 158.06567383 85.48901367 C159.06567383 87.16088867 159.06567383 87.16088867 160.06567383 89.23901367 C160.41243164 89.95702148 160.75918945 90.6750293 161.11645508 91.41479492 C162.18162225 93.74238245 163.12762248 96.10780641 164.06567383 98.48901367 C164.39567383 98.81901367 164.72567383 99.14901367 165.06567383 99.48901367 C165.10648166 101.48859731 165.10821739 103.48946621 165.06567383 105.48901367 C166.38567383 105.81901367 167.70567383 106.14901367 169.06567383 106.48901367 C169.06567383 109.78901367 169.06567383 113.08901367 169.06567383 116.48901367 C170.05567383 116.48901367 171.04567383 116.48901367 172.06567383 116.48901367 C172.06567383 118.79901367 172.06567383 121.10901367 172.06567383 123.48901367 C172.72567383 123.48901367 173.38567383 123.48901367 174.06567383 123.48901367 C175.74220575 126.50536818 176.52600128 129.22363039 177.12817383 132.61401367 C177.74841185 136.16692625 177.74841185 136.16692625 179.06567383 139.48901367 C179.30409699 143.09185258 179.44863917 146.69359728 179.58911133 150.30151367 C179.74637695 151.35338867 179.90364258 152.40526367 180.06567383 153.48901367 C181.05567383 154.14901367 182.04567383 154.80901367 183.06567383 155.48901367 C183.68164062 157.56445312 183.68164062 157.56445312 184.01489258 160.10229492 C184.14057617 161.02075195 184.26625977 161.93920898 184.39575195 162.88549805 C184.51370117 163.8477832 184.63165039 164.81006836 184.75317383 165.80151367 C184.88272461 166.75219727 185.01227539 167.70288086 185.14575195 168.68237305 C185.71455534 172.98902728 186.13414753 177.13923403 186.06567383 181.48901367 C186.72567383 181.48901367 187.38567383 181.48901367 188.06567383 181.48901367 C188.06567383 310.84901367 188.06567383 440.20901367 188.06567383 573.48901367 C129.98567383 573.48901367 71.90567383 573.48901367 12.06567383 573.48901367 C12.01668945 551.61104492 11.96770508 529.73307617 11.91723633 507.19213867 C11.88185857 493.34708274 11.84599638 479.50203062 11.80786133 465.65698242 C11.78785414 458.38403361 11.76796983 451.11108448 11.74829102 443.83813477 C11.74581958 442.92662458 11.74334814 442.0151144 11.74080181 441.07598269 C11.70111316 426.37206435 11.6683574 411.66813836 11.63817401 396.96419778 C11.60702893 381.86715122 11.56840649 366.77013706 11.52288377 351.67312694 C11.4950421 342.36205414 11.47299037 333.05100497 11.45841132 323.73990181 C11.44784621 317.34965571 11.42999951 310.95945542 11.40650679 304.56924388 C11.3931777 300.88580972 11.38298243 297.20243959 11.38146019 293.51898003 C11.37972161 289.51625271 11.36261012 285.51373246 11.34414673 281.51104736 C11.34704883 279.78336966 11.34704883 279.78336966 11.35000956 278.02078938 C11.30557093 271.55437906 10.73178592 265.44851552 9.52351987 259.09260917 C8.87302018 255.39346599 8.73736401 251.73560164 8.62817383 247.98901367 C8.36422321 241.8281039 7.46316581 236.30689633 5.75708008 230.35620117 C4.75369215 226.19525915 4.55686512 222.05593747 4.37426758 217.78979492 C4.27243164 217.03053711 4.1705957 216.2712793 4.06567383 215.48901367 C3.40567383 215.15901367 2.74567383 214.82901367 2.06567383 214.48901367 C1.35473633 212.52026367 1.35473633 212.52026367 0.69067383 209.98901367 C-1.43029543 202.53897591 -3.98957373 196.49335593 -8.93432617 190.48901367 C-8.93432617 189.49901367 -8.93432617 188.50901367 -8.93432617 187.48901367 C-9.91371408 186.46881794 -10.91328066 185.46751562 -11.93432617 184.48901367 C-11.93432617 183.82901367 -11.93432617 183.16901367 -11.93432617 182.48901367 C-12.76963867 182.14870117 -12.76963867 182.14870117 -13.62182617 181.80151367 C-16.57500484 180.12538524 -18.53105034 177.8922895 -20.93432617 175.48901367 C-26.02730468 171.27865072 -26.02730468 171.27865072 -31.93432617 168.48901367 C-31.93432617 167.82901367 -31.93432617 167.16901367 -31.93432617 166.48901367 C-33.04807617 166.36526367 -34.16182617 166.24151367 -35.30932617 166.11401367 C-38.93432617 165.48901367 -38.93432617 165.48901367 -40.93432617 163.48901367 C-43.42380538 162.87878152 -43.42380538 162.87878152 -46.24682617 162.48901367 C-51.52539612 161.68246547 -51.52539612 161.68246547 -54.08276367 160.47265625 C-57.85216799 159.17240539 -61.44348116 159.18359304 -65.38354492 159.18823242 C-66.19620316 159.1839473 -67.00886139 159.17966217 -67.84614563 159.17524719 C-69.56327384 159.16951764 -71.28042632 159.16899349 -72.99755859 159.17333984 C-75.59605539 159.1764825 -78.19339324 159.15308467 -80.79174805 159.12768555 C-92.11213523 159.05139284 -92.11213523 159.05139284 -103.03515625 161.78881836 C-105.02880078 162.52384504 -106.82732382 162.81861348 -108.93432617 163.05151367 C-112.04350331 163.19974741 -112.04350331 163.19974741 -113.93432617 165.48901367 C-116.5896999 166.0542137 -119.2257733 166.22689565 -121.93432617 166.48901367 C-121.93432617 167.14901367 -121.93432617 167.80901367 -121.93432617 168.48901367 C-122.90370117 168.77776367 -123.87307617 169.06651367 -124.87182617 169.36401367 C-128.04096821 170.13116049 -128.04096821 170.13116049 -128.93432617 172.48901367 C-130.26765951 172.82234701 -131.60099284 173.15568034 -132.93432617 173.48901367 C-133.26432617 174.14901367 -133.59432617 174.80901367 -133.93432617 175.48901367 C-134.92432617 175.81901367 -135.91432617 176.14901367 -136.93432617 176.48901367 C-138.10995117 177.69557617 -138.10995117 177.69557617 -139.30932617 178.92651367 C-141.93432617 181.48901367 -141.93432617 181.48901367 -144.62182617 182.48901367 C-147.14044501 183.2681758 -147.14044501 183.2681758 -147.93432617 185.73901367 C-148.26432617 186.64651367 -148.59432617 187.55401367 -148.93432617 188.48901367 C-150.15951497 189.90765334 -151.38566628 191.32554756 -152.62573242 192.73120117 C-155.04362983 195.97912307 -156.44556122 199.74630848 -157.93432617 203.48901367 C-158.92432617 203.48901367 -159.91432617 203.48901367 -160.93432617 203.48901367 C-160.87245117 204.56151367 -160.81057617 205.63401367 -160.74682617 206.73901367 C-160.95403252 210.88314064 -161.49934269 211.39845771 -163.93432617 214.48901367 C-164.70685834 217.17015473 -165.35965513 219.76763759 -165.93432617 222.48901367 C-166.30901872 224.15574949 -166.68401392 225.82241729 -167.05932617 227.48901367 C-167.35206725 228.82211152 -167.64413278 230.15535891 -167.93432617 231.48901367 C-168.92432617 231.48901367 -169.91432617 231.48901367 -170.93432617 231.48901367 C-170.89952148 232.75616211 -170.8647168 234.02331055 -170.82885742 235.32885742 C-170.8006938 237.02806278 -170.77339643 238.72728265 -170.74682617 240.42651367 C-170.72168945 241.25731445 -170.69655273 242.08811523 -170.6706543 242.9440918 C-170.65615234 244.18642578 -170.65615234 244.18642578 -170.64135742 245.45385742 C-170.61779175 246.57715454 -170.61779175 246.57715454 -170.59375 247.72314453 C-170.90939479 250.28654224 -171.49344386 251.976073 -172.43069172 254.34919643 C-174.45922792 260.36462733 -174.35858009 266.19643988 -174.33305359 272.49195862 C-174.33970042 273.78188388 -174.34634724 275.07180915 -174.35319549 276.40082306 C-174.37114334 279.96064135 -174.37067333 283.52025022 -174.36706603 287.08010304 C-174.36644029 290.92664051 -174.3830798 294.77310886 -174.39758301 298.61961365 C-174.42034047 305.27711568 -174.43224919 311.93456549 -174.43671227 318.59210396 C-174.44318085 328.21767831 -174.46613071 337.84315838 -174.49305556 347.46869468 C-174.53629776 363.0868639 -174.56627917 378.70502915 -174.58789062 394.32324219 C-174.60890801 409.49155637 -174.63622383 424.65983786 -174.671875 439.828125 C-174.67408851 440.77320897 -174.67630202 441.71829295 -174.67858261 442.69201583 C-174.69594373 450.08359897 -174.71366922 457.47518123 -174.7315098 464.86676323 C-174.81880804 501.07415975 -174.8743355 537.28154172 -174.93432617 573.48901367 C-234.33432617 573.48901367 -293.73432617 573.48901367 -354.93432617 573.48901367 C-355.0148493 508.70753872 -355.0148493 508.70753872 -355.03692627 488.66815186 C-355.03811027 487.5961101 -355.03811027 487.5961101 -355.03931819 486.50241093 C-355.06580909 462.45174494 -355.08681579 438.40107742 -355.10369873 414.35040283 C-355.10425096 413.56573125 -355.10480319 412.78105967 -355.10537215 411.97261016 C-355.11734282 394.9209908 -355.12842369 377.86937097 -355.13858749 360.81775044 C-355.14357699 352.45605553 -355.14876318 344.09436074 -355.15405273 335.73266602 C-355.15457577 334.90056167 -355.15509881 334.06845733 -355.15563769 333.2111377 C-355.17269352 306.22357107 -355.20274653 279.23603786 -355.23951505 252.24849149 C-355.27722021 224.52321847 -355.30186208 196.79796395 -355.30998613 169.07266571 C-355.31113881 165.15974391 -355.31244136 161.24682217 -355.31383514 157.33390045 C-355.31410484 156.56375533 -355.31437453 155.7936102 -355.31465239 155.00012734 C-355.31938558 142.58575854 -355.33795478 130.17144685 -355.36165431 117.75710137 C-355.38516684 105.28687093 -355.39420726 92.81669731 -355.38833168 80.34644547 C-355.38555071 73.58554166 -355.38981207 66.82481605 -355.41114807 60.06394005 C-355.43051554 53.88199477 -355.43166017 47.70033174 -355.41792175 41.51837388 C-355.41622208 39.2747049 -355.42137884 37.03101879 -355.4338589 34.78738388 C-355.44977341 31.75126472 -355.44134518 28.71618163 -355.42651749 25.68008041 C-355.43702554 24.79696806 -355.4475336 23.9138557 -355.45836008 23.00398237 C-355.39288918 17.12342296 -355.39288918 17.12342296 -353.09583265 13.94550854 C-350.04582094 11.89030933 -347.8336997 11.99407681 -344.17149353 12.00126648 C-343.49232284 11.99714321 -342.81315214 11.99301995 -342.11340052 11.98877174 C-339.83837313 11.97984387 -337.56449849 11.99949866 -335.28955078 12.01904297 C-333.65837972 12.01853418 -332.02720841 12.01627856 -330.39604187 12.0124054 C-325.9663023 12.0069819 -321.5369803 12.0264083 -317.10731578 12.05050635 C-312.47492303 12.07178376 -307.84253211 12.07120681 -303.21009827 12.07319641 C-295.43149619 12.0796459 -287.65305126 12.10090095 -279.87451172 12.13232422 C-269.88453373 12.1726275 -259.89465815 12.19001336 -249.90460873 12.1996336 C-241.32236435 12.20793092 -232.74014173 12.22516917 -224.15791631 12.24467111 C-221.39587127 12.25073967 -218.63382539 12.25588078 -215.87177849 12.26102257 C-211.53553001 12.26979892 -207.1993323 12.28410098 -202.86311531 12.30273247 C-201.26955853 12.30885949 -199.6759943 12.31330712 -198.08242798 12.31597519 C-195.91162856 12.31995129 -193.74094425 12.33006415 -191.57017517 12.34184265 C-190.35399474 12.34611613 -189.13781431 12.35038961 -187.88477993 12.35479259 C-184.93432617 12.48901367 -184.93432617 12.48901367 -181.93432617 13.48901367 C-181.93432617 36.25901367 -181.93432617 59.02901367 -181.93432617 82.48901367 C-178.75973166 80.37261733 -178.06031736 79.22409991 -176.37182617 75.92651367 C-174.14745857 71.59557987 -174.14745857 71.59557987 -171.93432617 70.48901367 C-171.60432617 69.49901367 -171.27432617 68.50901367 -170.93432617 67.48901367 C-169.49682617 65.80151367 -169.49682617 65.80151367 -167.93432617 64.48901367 C-167.27432617 64.48901367 -166.61432617 64.48901367 -165.93432617 64.48901367 C-165.66620117 63.90635742 -165.39807617 63.32370117 -165.12182617 62.72338867 C-163.91951627 60.46114767 -162.59606705 58.68325049 -160.93432617 56.73901367 C-160.41870117 56.12541992 -159.90307617 55.51182617 -159.37182617 54.87963867 C-157.93432617 53.48901367 -157.93432617 53.48901367 -155.93432617 53.48901367 C-155.60432617 52.49901367 -155.27432617 51.50901367 -154.93432617 50.48901367 C-149.46920989 45.48901367 -149.46920989 45.48901367 -146.93432617 45.48901367 C-146.93432617 44.82901367 -146.93432617 44.16901367 -146.93432617 43.48901367 C-145.94432617 43.15901367 -144.95432617 42.82901367 -143.93432617 42.48901367 C-143.41870117 41.97338867 -142.90307617 41.45776367 -142.37182617 40.92651367 C-141.89745117 40.45213867 -141.42307617 39.97776367 -140.93432617 39.48901367 C-140.27432617 39.48901367 -139.61432617 39.48901367 -138.93432617 39.48901367 C-138.60432617 38.49901367 -138.27432617 37.50901367 -137.93432617 36.48901367 C-135.59318528 34.90716172 -133.23739528 33.63212964 -130.68432617 32.42651367 C-128.75379332 31.60897782 -128.75379332 31.60897782 -127.93432617 29.48901367 C-125.37182617 28.86401367 -125.37182617 28.86401367 -122.93432617 28.48901367 C-122.93432617 27.82901367 -122.93432617 27.16901367 -122.93432617 26.48901367 C-118.93432617 24.48901367 -114.93432617 22.48901367 -110.93432617 20.48901367 C-110.02360352 20.02495117 -110.02360352 20.02495117 -109.09448242 19.55151367 C-95.75550382 12.78957601 -82.32408864 7.60357969 -67.51635742 5.11401367 C-65.25000674 4.56542652 -63.34768459 3.85006213 -61.20385742 2.96166992 C-56.71959717 1.23626947 -52.57510315 1.01551135 -47.80932617 0.92651367 C-42.12020588 0.73888791 -36.67442573 0.37822424 -31.05932617 -0.63598633 C-21.03166642 -2.2361448 -10.00995796 -1.74314352 0 0 Z " fill="#FFA200" transform="translate(768.934326171875,383.510986328125)"/>
<path d="M0 0 C0.69958846 -0.00155999 1.39917691 -0.00311998 2.11996502 -0.00472724 C4.46370071 -0.00871527 6.80737161 -0.00555611 9.15110779 -0.00241089 C10.83153827 -0.00376589 12.51196845 -0.00554638 14.19239807 -0.00772095 C18.75627407 -0.01228315 23.32012748 -0.01051078 27.88400388 -0.00734186 C32.65654642 -0.00481244 37.42908702 -0.00715739 42.20162964 -0.00872803 C50.21555428 -0.01054784 58.2294697 -0.00814816 66.24339294 -0.00338745 C75.51492792 0.00205666 84.78644091 0.00029067 94.05797535 -0.00521386 C102.01302833 -0.00974813 109.96807469 -0.01039405 117.92312855 -0.00777519 C122.67672806 -0.00621439 127.43031724 -0.00601332 132.18391609 -0.00931168 C136.65147178 -0.012195 141.11899905 -0.01020616 145.58655167 -0.00441742 C147.22849035 -0.00309239 148.87043141 -0.00347961 150.51236916 -0.00568008 C152.74883857 -0.00840158 154.98521617 -0.00499817 157.22167969 0 C159.10125791 0.00056554 159.10125791 0.00056554 161.01880741 0.0011425 C164.04734802 0.12698364 164.04734802 0.12698364 167.04734802 1.12698364 C168.38659094 5.14471239 168.18281998 9.0060094 168.17039585 13.19500256 C168.1715497 14.13888823 168.17270354 15.08277391 168.17389235 16.05526218 C168.17655914 19.24806585 168.17203631 22.44082006 168.16760254 25.63362122 C168.16803823 27.93372431 168.16891309 30.23382735 168.17019171 32.53393012 C168.17243712 38.87783497 168.16841473 45.22172307 168.16341364 51.56562579 C168.15906352 57.69702601 168.16037317 63.82842634 168.16109549 69.95982763 C168.1624107 82.5059883 168.15906301 95.05214371 168.15307808 107.59830284 C168.14716552 120.02453322 168.14331304 132.45076141 168.14222527 144.87699318 C168.14215653 145.64898212 168.14208779 146.42097105 168.14201696 147.2163536 C168.14167864 151.13673173 168.14137725 155.05710988 168.14109009 158.97748802 C168.13898844 186.76145224 168.13224765 214.54541361 168.12278748 242.32937622 C168.11360638 269.32481877 168.10652113 296.32026054 168.10227966 323.31570435 C168.10214814 324.14749891 168.10201661 324.97929347 168.1018811 325.83629393 C168.1005626 334.18934883 168.09928679 342.54240373 168.09804224 350.89545863 C168.09550588 367.91231568 168.09268462 384.92917268 168.08969116 401.94602966 C168.08948523 403.11969785 168.08948523 403.11969785 168.08927513 404.31707651 C168.08505118 428.30487528 168.07961947 452.29267357 168.07299805 476.2804718 C168.07281049 476.9616487 168.07262293 477.64282561 168.07242969 478.34464423 C168.06481352 505.93875759 168.0559202 533.53287057 168.04734802 561.12698364 C108.97734802 561.12698364 49.90734802 561.12698364 -10.95265198 561.12698364 C-10.95265198 376.32698364 -10.95265198 191.52698364 -10.95265198 1.12698364 C-7.05185708 0.15178492 -4.00301686 0.00120409 0 0 Z " fill="#FFA200" transform="translate(145.95265197753906,395.8730163574219)"/>
<path d="M0 0 C2.74612427 -0.36076355 2.74612427 -0.36076355 6.28564453 -0.34057617 C6.92967224 -0.34101425 7.57369995 -0.34145233 8.23724365 -0.34190369 C10.36940664 -0.33981094 12.50078662 -0.31645865 14.6328125 -0.29296875 C16.10968598 -0.28737448 17.58656502 -0.28310359 19.06344604 -0.28010559 C22.95326063 -0.26864335 26.8427399 -0.23916473 30.73242188 -0.20599365 C34.70047469 -0.17532222 38.6685816 -0.16160655 42.63671875 -0.14648438 C50.42463214 -0.11429599 58.21226911 -0.06308345 66 0 C66.33 1.32 66.66 2.64 67 4 C68.60875 4.1546875 68.60875 4.1546875 70.25 4.3125 C73.97829646 4.99602102 75.19023731 5.67467915 78 8 C80.14733927 8.70514846 80.14733927 8.70514846 82 9 C82 9.66 82 10.32 82 11 C83.30324219 11.36544922 83.30324219 11.36544922 84.6328125 11.73828125 C90.51097066 13.94088576 95.13311707 18.1232095 100 22 C100.73863281 22.58136719 101.47726562 23.16273438 102.23828125 23.76171875 C108.23851163 28.72784129 116.81650811 35.97855494 118 44 C118.66 44 119.32 44 120 44 C120.81837442 45.41328129 121.62946219 46.83078346 122.4375 48.25 C122.88996094 49.03890625 123.34242188 49.8278125 123.80859375 50.640625 C125 53 125 53 125.47265625 55.171875 C125.90270072 57.40148172 125.90270072 57.40148172 129 59 C129.75407101 61.30657014 130.411438 63.645752 131 66 C131.350625 66.928125 131.70125 67.85625 132.0625 68.8125 C133.13094791 72.44522288 133.42149828 75.8650474 133.65625 79.6328125 C133.84636202 81.98412852 133.84636202 81.98412852 135.00488281 83.71777344 C136.3675916 86.84304373 136.25934924 89.48000358 136.265625 92.8828125 C136.26753845 93.53829071 136.2694519 94.19376892 136.27142334 94.86911011 C136.27278003 96.24916978 136.26911971 97.62924243 136.26074219 99.00927734 C136.25000018 101.12496384 136.26067185 103.23980793 136.2734375 105.35546875 C136.27211649 106.69791854 136.2695553 108.04036781 136.265625 109.3828125 C136.26336914 110.60371582 136.26111328 111.82461914 136.25878906 113.08251953 C136 116 136 116 134 118 C133.53340269 120.72469786 133.16400746 123.38179802 132.875 126.125 C132.74544922 127.25615234 132.74544922 127.25615234 132.61328125 128.41015625 C132.40110739 130.27257127 132.19954237 132.13618931 132 134 C131.34 134 130.68 134 130 134 C129.87882813 134.62648438 129.75765625 135.25296875 129.6328125 135.8984375 C129.38144531 137.12433594 129.38144531 137.12433594 129.125 138.375 C128.88136719 139.59316406 128.88136719 139.59316406 128.6328125 140.8359375 C128 143 128 143 126 145 C124.9059549 147.5299793 123.97030573 150.08512358 123.0625 152.6875 C122 155 122 155 119 157 C117.79549696 159.55183404 117.79549696 159.55183404 117 162 C116.34 162 115.68 162 115 162 C114.6596875 162.804375 114.6596875 162.804375 114.3125 163.625 C110.812739 169.95790086 105.03947249 176.04310423 99 180 C98.34 180 97.68 180 97 180 C96.67 180.99 96.34 181.98 96 183 C93.890625 184.71875 93.890625 184.71875 91.25 186.5 C90.38890625 187.0878125 89.5278125 187.675625 88.640625 188.28125 C83.9731165 191.31927328 80.6131897 193.34730352 75 194 C74.67 194.99 74.34 195.98 74 197 C70.875 198.0625 70.875 198.0625 67 199 C63.41550687 199.96013209 60.20296907 200.90006654 56.86914062 202.54150391 C52.47103907 204.44418861 48.32843911 204.432718 43.59375 204.3984375 C42.71021851 204.40130768 41.82668701 204.40417786 40.91638184 204.40713501 C39.05736649 204.40916701 37.19832933 204.4036979 35.33935547 204.39111328 C32.50829861 204.37504709 29.67866918 204.39099126 26.84765625 204.41015625 C25.03385104 204.40817366 23.22004672 204.40432967 21.40625 204.3984375 C20.56751343 204.40451019 19.72877686 204.41058289 18.86462402 204.4168396 C13.46865766 204.35287439 9.84216714 203.37803873 5 201 C3.845 200.67 2.69 200.34 1.5 200 C-7.33900974 197.47456864 -15.43943167 193.15493295 -23 188 C-24.3191582 187.30570621 -25.64649406 186.62469505 -27 186 C-27 185.34 -27 184.68 -27 184 C-28.65 183.34 -30.3 182.68 -32 182 C-32 181.34 -32 180.68 -32 180 C-32.87785156 179.59587891 -32.87785156 179.59587891 -33.7734375 179.18359375 C-36.00117569 177.99937503 -37.721441 176.71029447 -39.625 175.0625 C-40.21539062 174.55847656 -40.80578125 174.05445313 -41.4140625 173.53515625 C-43 172 -43 172 -45 169 C-45 168.01 -45 167.02 -45 166 C-46.32 165.34 -47.64 164.68 -49 164 C-49 163.34 -49 162.68 -49 162 C-49.66 162 -50.32 162 -51 162 C-51.495 160.02 -51.495 160.02 -52 158 C-52.66 158 -53.32 158 -54 158 C-54.4021875 156.824375 -54.4021875 156.824375 -54.8125 155.625 C-55.84814432 152.71885077 -55.84814432 152.71885077 -59 151 C-59.87890625 149.1171875 -59.87890625 149.1171875 -60.5625 146.875 C-60.80742187 146.07964844 -61.05234375 145.28429687 -61.3046875 144.46484375 C-62.28422254 140.99244705 -63.17005721 137.51129641 -64 134 C-65.32 134 -66.64 134 -68 134 C-68 112.22 -68 90.44 -68 68 C-67.01 68 -66.02 68 -65 68 C-64.82984375 67.45472656 -64.6596875 66.90945312 -64.484375 66.34765625 C-62.67459186 60.71615022 -60.49654622 55.36060431 -58 50 C-57.01 50 -56.02 50 -55 50 C-55.268125 49.46375 -55.53625 48.9275 -55.8125 48.375 C-56 46 -56 46 -53.6875 42.75 C-52.3571875 41.38875 -52.3571875 41.38875 -51 40 C-50.34 40 -49.68 40 -49 40 C-48.67 38.68 -48.34 37.36 -48 36 C-47.34 36 -46.68 36 -46 36 C-45.74089844 35.25363281 -45.48179687 34.50726563 -45.21484375 33.73828125 C-41.59501438 25.57911601 -32.31527139 19.63054216 -25 15 C-24.34 15 -23.68 15 -23 15 C-22.67 14.01 -22.34 13.02 -22 12 C-20.35 11.67 -18.7 11.34 -17 11 C-17 10.34 -17 9.68 -17 9 C-13.25806736 7.36290447 -9.54807996 5.83391154 -5.6875 4.5 C-1.81140114 3.3256256 -1.81140114 3.3256256 0 0 Z " fill="#FFA200" transform="translate(191,123)"/>
</svg>
