<?xml version="1.0" encoding="UTF-8"?>
<svg version="1.1" xmlns="http://www.w3.org/2000/svg" width="1080" height="1080">
<path d="M0 0 C79.86 0 159.72 0 242 0 C242 0.99 242 1.98 242 3 C242.99 3 243.98 3 245 3 C245 4.65 245 6.3 245 8 C245.99 8 246.98 8 248 8 C248.103125 8.639375 248.20625 9.27875 248.3125 9.9375 C248.539375 10.618125 248.76625 11.29875 249 12 C249.99 12.33 250.98 12.66 252 13 C252 14.65 252 16.3 252 18 C252.99 18 253.98 18 255 18 C255.103125 18.639375 255.20625 19.27875 255.3125 19.9375 C255.539375 20.618125 255.76625 21.29875 256 22 C256.99 22.33 257.98 22.66 259 23 C259 24.65 259 26.3 259 28 C259.99 27.67 260.98 27.34 262 27 C262.12375 27.804375 262.2475 28.60875 262.375 29.4375 C262.58125 30.283125 262.7875 31.12875 263 32 C263.66 32.33 264.32 32.66 265 33 C265.625 35.5625 265.625 35.5625 266 38 C267.485 37.505 267.485 37.505 269 37 C269.12375 37.804375 269.2475 38.60875 269.375 39.4375 C269.58125 40.283125 269.7875 41.12875 270 42 C270.66 42.33 271.32 42.66 272 43 C272 44.32 272 45.64 272 47 C272.99 47 273.98 47 275 47 C275.33 48.98 275.66 50.96 276 53 C277.485 52.505 277.485 52.505 279 52 C279 53.65 279 55.3 279 57 C279.99 57 280.98 57 282 57 C282.66 58.65 283.32 60.3 284 62 C284.66 62 285.32 62 286 62 C286 63.65 286 65.3 286 67 C286.99 67 287.98 67 289 67 C289.12375 67.639375 289.2475 68.27875 289.375 68.9375 C289.684375 69.9584375 289.684375 69.9584375 290 71 C290.66 71.33 291.32 71.66 292 72 C292.144375 72.66 292.28875 73.32 292.4375 74 C292.623125 74.66 292.80875 75.32 293 76 C293.99 76.33 294.98 76.66 296 77 C296 78.65 296 80.3 296 82 C296.99 82 297.98 82 299 82 C299.103125 82.639375 299.20625 83.27875 299.3125 83.9375 C299.6528125 84.9584375 299.6528125 84.9584375 300 86 C300.99 86.33 301.98 86.66 303 87 C303 88.65 303 90.3 303 92 C303.99 92 304.98 92 306 92 C306.12375 92.639375 306.2475 93.27875 306.375 93.9375 C306.684375 94.9584375 306.684375 94.9584375 307 96 C307.66 96.33 308.32 96.66 309 97 C309.625 99.5625 309.625 99.5625 310 102 C311.485 101.505 311.485 101.505 313 101 C313 102.98 313 104.96 313 107 C313.99 107 314.98 107 316 107 C316.33 108.32 316.66 109.64 317 111 C317.99 111 318.98 111 320 111 C320 112.98 320 114.96 320 117 C320.99 117 321.98 117 323 117 C323.12375 117.639375 323.2475 118.27875 323.375 118.9375 C323.684375 119.9584375 323.684375 119.9584375 324 121 C324.66 121.33 325.32 121.66 326 122 C326.625 124.5625 326.625 124.5625 327 127 C328.485 126.505 328.485 126.505 330 126 C330.33 127.65 330.66 129.3 331 131 C331.66 131 332.32 131 333 131 C333.103125 131.639375 333.20625 132.27875 333.3125 132.9375 C333.539375 133.618125 333.76625 134.29875 334 135 C334.99 135.33 335.98 135.66 337 136 C337.33 137.65 337.66 139.3 338 141 C338.66 141 339.32 141 340 141 C340.12375 141.639375 340.2475 142.27875 340.375 142.9375 C340.58125 143.618125 340.7875 144.29875 341 145 C341.66 145.33 342.32 145.66 343 146 C343.144375 146.66 343.28875 147.32 343.4375 148 C343.623125 148.66 343.80875 149.32 344 150 C344.99 150.33 345.98 150.66 347 151 C347 152.65 347 154.3 347 156 C347.99 156 348.98 156 350 156 C350 157.65 350 159.3 350 161 C351.32 161.33 352.64 161.66 354 162 C354 163.32 354 164.64 354 166 C354.99 166 355.98 166 357 166 C357 167.65 357 169.3 357 171 C357.99 171 358.98 171 360 171 C360.33 172.32 360.66 173.64 361 175 C361.99 175 362.98 175 364 175 C364 176.98 364 178.96 364 181 C364.99 181 365.98 181 367 181 C367.103125 181.598125 367.20625 182.19625 367.3125 182.8125 C367.84018987 185.08110966 367.84018987 185.08110966 369.5625 186.5625 C370.2740625 187.2740625 370.2740625 187.2740625 371 188 C371 188.99 371 189.98 371 191 C371.99 190.67 372.98 190.34 374 190 C374.12375 190.804375 374.2475 191.60875 374.375 192.4375 C374.684375 193.7059375 374.684375 193.7059375 375 195 C375.66 195.33 376.32 195.66 377 196 C377.625 198.5625 377.625 198.5625 378 201 C378.99 200.67 379.98 200.34 381 200 C381 201.98 381 203.96 381 206 C381.99 206 382.98 206 384 206 C384 207.32 384 208.64 384 210 C384.99 210 385.98 210 387 210 C387.66 211.65 388.32 213.3 389 215 C389.66 215 390.32 215 391 215 C391 216.65 391 218.3 391 220 C391.99 220 392.98 220 394 220 C394.103125 220.639375 394.20625 221.27875 394.3125 221.9375 C394.539375 222.618125 394.76625 223.29875 395 224 C395.99 224.33 396.98 224.66 398 225 C398 226.65 398 228.3 398 230 C398.99 230 399.98 230 401 230 C401 231.65 401 233.3 401 235 C401.99 235 402.98 235 404 235 C404.103125 235.639375 404.20625 236.27875 404.3125 236.9375 C404.539375 237.618125 404.76625 238.29875 405 239 C405.99 239.33 406.98 239.66 408 240 C408 241.65 408 243.3 408 245 C408.99 245 409.98 245 411 245 C411.103125 245.639375 411.20625 246.27875 411.3125 246.9375 C411.539375 247.618125 411.76625 248.29875 412 249 C412.99 249.33 413.98 249.66 415 250 C415 251.65 415 253.3 415 255 C415.99 255 416.98 255 418 255 C418 256.65 418 258.3 418 260 C418.99 260 419.98 260 421 260 C421.33 261.65 421.66 263.3 422 265 C422.99 264.67 423.98 264.34 425 264 C425 265.98 425 267.96 425 270 C425.99 270 426.98 270 428 270 C428.103125 270.639375 428.20625 271.27875 428.3125 271.9375 C428.6528125 272.9584375 428.6528125 272.9584375 429 274 C429.99 274.33 430.98 274.66 432 275 C432 276.65 432 278.3 432 280 C432.99 279.67 433.98 279.34 435 279 C435.33 280.65 435.66 282.3 436 284 C436.66 284 437.32 284 438 284 C438.66 285.65 439.32 287.3 440 289 C440.66 289 441.32 289 442 289 C442.12375 289.969375 442.2475 290.93875 442.375 291.9375 C442.58125 292.948125 442.7875 293.95875 443 295 C443.66 295.33 444.32 295.66 445 296 C445 294.68 445 293.36 445 292 C445.99 292 446.98 292 448 292 C448.12375 291.360625 448.2475 290.72125 448.375 290.0625 C448.684375 289.0415625 448.684375 289.0415625 449 288 C449.66 287.67 450.32 287.34 451 287 C451.33 286.01 451.66 285.02 452 284 C452.99 284 453.98 284 455 284 C455.33 282.68 455.66 281.36 456 280 C456.99 280 457.98 280 459 280 C459 279.01 459 278.02 459 277 C459.66 276.67 460.32 276.34 461 276 C461.70151152 274.6846659 462.36525925 273.34882408 463 272 C465 269 465 269 468 268 C468.73323796 265.98491642 468.73323796 265.98491642 469 264 C469.99 264 470.98 264 472 264 C472 262.68 472 261.36 472 260 C472.99 259.67 473.98 259.34 475 259 C477.36506843 256.99878825 477.9893322 256.03200339 479 253 C479.99 253 480.98 253 482 253 C482 251.68 482 250.36 482 249 C482.99 248.67 483.98 248.34 485 248 C485.33 247.01 485.66 246.02 486 245 C486.66 244.67 487.32 244.34 488 244 C489.13350534 241.98330173 489.13350534 241.98330173 490 240 C490.66 240.33 491.32 240.66 492 241 C492.12375 240.360625 492.2475 239.72125 492.375 239.0625 C492.58125 238.381875 492.7875 237.70125 493 237 C493.66 236.67 494.32 236.34 495 236 C495.33 235.01 495.66 234.02 496 233 C496.99 233 497.98 233 499 233 C499 231.68 499 230.36 499 229 C500.32 229 501.64 229 503 229 C503 227.68 503 226.36 503 225 C503.99 225 504.98 225 506 225 C506 223.68 506 222.36 506 221 C506.99 221 507.98 221 509 221 C509.12375 220.360625 509.2475 219.72125 509.375 219.0625 C509.58125 218.381875 509.7875 217.70125 510 217 C510.66 216.67 511.32 216.34 512 216 C512.33 215.01 512.66 214.02 513 213 C513.99 213 514.98 213 516 213 C516 211.68 516 210.36 516 209 C517.32 209 518.64 209 520 209 C520 208.01 520 207.02 520 206 C520.66 205.67 521.32 205.34 522 205 C523.13350534 202.98330173 523.13350534 202.98330173 524 201 C524.66 201.33 525.32 201.66 526 202 C526.12375 201.360625 526.2475 200.72125 526.375 200.0625 C526.58125 199.381875 526.7875 198.70125 527 198 C527.66 197.67 528.32 197.34 529 197 C529.65213292 194.97536745 529.65213292 194.97536745 530 193 C530.99 193 531.98 193 533 193 C533 191.68 533 190.36 533 189 C533.99 188.67 534.98 188.34 536 188 C538.36506843 185.99878825 538.9893322 185.03200339 540 182 C540.99 182 541.98 182 543 182 C543.12375 181.360625 543.2475 180.72125 543.375 180.0625 C543.58125 179.381875 543.7875 178.70125 544 178 C544.66 177.67 545.32 177.34 546 177 C546.33 176.01 546.66 175.02 547 174 C547.99 174 548.98 174 550 174 C550 172.35 550 170.7 550 169 C550.99 169.33 551.98 169.66 553 170 C553.12375 169.360625 553.2475 168.72125 553.375 168.0625 C553.58125 167.381875 553.7875 166.70125 554 166 C554.66 165.67 555.32 165.34 556 165 C556.33 164.01 556.66 163.02 557 162 C557.99 162 558.98 162 560 162 C560 160.68 560 159.36 560 158 C561.32 158 562.64 158 564 158 C564.185625 157.13375 564.185625 157.13375 564.375 156.25 C565.02053903 153.92605949 565.72724889 152.05054346 567 150 C567.99 149.67 568.98 149.34 570 149 C570.33 148.01 570.66 147.02 571 146 C571.99 146 572.98 146 574 146 C574 144.68 574 143.36 574 142 C574.99 142 575.98 142 577 142 C577 140.68 577 139.36 577 138 C578.32 138 579.64 138 581 138 C581 137.01 581 136.02 581 135 C581.66 134.67 582.32 134.34 583 134 C584.13350534 131.98330173 584.13350534 131.98330173 585 130 C585.66 130 586.32 130 587 130 C587.33 129.01 587.66 128.02 588 127 C588.66 126.67 589.32 126.34 590 126 C591.11256016 123.98348472 592.03046084 121.92892471 592.9375 119.8125 C594 118 594 118 597 117 C597.66 116.01 598.32 115.02 599 114 C601 111 601 111 604 110 C604.33 109.01 604.66 108.02 605 107 C605.99 107 606.98 107 608 107 C608 105.68 608 104.36 608 103 C608.99 103 609.98 103 611 103 C611 101.35 611 99.7 611 98 C611.99 98 612.98 98 614 98 C614.33 97.01 614.66 96.02 615 95 C615.66 94.67 616.32 94.34 617 94 C617.33 93.01 617.66 92.02 618 91 C618.99 91 619.98 91 621 91 C621.33 89.68 621.66 88.36 622 87 C622.99 87 623.98 87 625 87 C625.103125 86.4225 625.20625 85.845 625.3125 85.25 C626.10811274 82.64617649 627.22956378 81.05370602 629 79 C629.66 78.67 630.32 78.34 631 78 C631.33 77.01 631.66 76.02 632 75 C632.99 75 633.98 75 635 75 C635 73.68 635 72.36 635 71 C635.99 71 636.98 71 638 71 C638 69.68 638 68.36 638 67 C639.485 66.505 639.485 66.505 641 66 C641.66 65.01 642.32 64.02 643 63 C644.5 60.8125 644.5 60.8125 646 59 C646.66 59 647.32 59 648 59 C648.33 58.01 648.66 57.02 649 56 C649.66 55.67 650.32 55.34 651 55 C651.68486725 53.67592331 652.34870203 52.34090759 653 51 C655.60869565 47.19565217 655.60869565 47.19565217 658 46 C658.66 45.01 659.32 44.02 660 43 C661.5 40.8125 661.5 40.8125 663 39 C663.66 39 664.32 39 665 39 C665.33 38.01 665.66 37.02 666 36 C666.99 36 667.98 36 669 36 C669 34.68 669 33.36 669 32 C669.99 32 670.98 32 672 32 C672 30.68 672 29.36 672 28 C672.99 27.67 673.98 27.34 675 27 C675.33 26.01 675.66 25.02 676 24 C676.66 23.67 677.32 23.34 678 23 C679.13350534 20.98330173 679.13350534 20.98330173 680 19 C680.66 19.33 681.32 19.66 682 20 C682.33 18.68 682.66 17.36 683 16 C683.99 16 684.98 16 686 16 C686.103125 15.4225 686.20625 14.845 686.3125 14.25 C687.10896465 11.64338842 688.19065277 10.0264689 690 8 C690.66 8 691.32 8 692 8 C692.28875 7.4225 692.5775 6.845 692.875 6.25 C693.91666667 4.16666667 694.95833333 2.08333333 696 0 C721.74 0 747.48 0 774 0 C774 1.32 774 2.64 774 4 C773.01 4 772.02 4 771 4 C771 5.32 771 6.64 771 8 C769.515 8.495 769.515 8.495 768 9 C765.63493157 11.00121175 765.0106678 11.96799661 764 15 C763.01 15 762.02 15 761 15 C760.87625 15.639375 760.7525 16.27875 760.625 16.9375 C760.41875 17.618125 760.2125 18.29875 760 19 C759.34 19.33 758.68 19.66 758 20 C757.31513275 21.32407669 756.65129797 22.65909241 756 24 C754.3188652 26.56172922 752.80648407 28.15204823 750.375 30.0625 C747.75315259 31.84853309 747.75315259 31.84853309 747 35 C746.01 35 745.02 35 744 35 C744 36.32 744 37.64 744 39 C742.68 39 741.36 39 740 39 C740 40.32 740 41.64 740 43 C739.01 43 738.02 43 737 43 C737 44.65 737 46.3 737 48 C736.01 47.67 735.02 47.34 734 47 C733.87625 47.639375 733.7525 48.27875 733.625 48.9375 C733.41875 49.618125 733.2125 50.29875 733 51 C732.34 51.33 731.68 51.66 731 52 C730.67 52.99 730.34 53.98 730 55 C729.01 55 728.02 55 727 55 C727 56.32 727 57.64 727 59 C725.68 59 724.36 59 723 59 C722.896875 59.5775 722.79375 60.155 722.6875 60.75 C721.90207202 63.32049158 720.69495803 64.93657284 719 67 C718.34 66.67 717.68 66.34 717 66 C716.67 67.65 716.34 69.3 716 71 C715.01 71 714.02 71 713 71 C713 72.32 713 73.64 713 75 C712.01 75 711.02 75 710 75 C710 76.32 710 77.64 710 79 C708.515 79.495 708.515 79.495 707 80 C704.63493157 82.00121175 704.0106678 82.96799661 703 86 C701.515 86.495 701.515 86.495 700 87 C699.67 87.99 699.34 88.98 699 90 C698.34 90.33 697.68 90.66 697 91 C696.67 91.99 696.34 92.98 696 94 C695.34 94.33 694.68 94.66 694 95 C692.86649466 97.01669827 692.86649466 97.01669827 692 99 C691.34 98.67 690.68 98.34 690 98 C689.87625 98.639375 689.7525 99.27875 689.625 99.9375 C689.41875 100.618125 689.2125 101.29875 689 102 C688.34 102.33 687.68 102.66 687 103 C686.67 103.99 686.34 104.98 686 106 C685.01 106 684.02 106 683 106 C682.67 107.32 682.34 108.64 682 110 C681.01 110 680.02 110 679 110 C679 111.32 679 112.64 679 114 C678.01 114 677.02 114 676 114 C676 115.32 676 116.64 676 118 C674.515 118.495 674.515 118.495 673 119 C672.67 119.99 672.34 120.98 672 122 C671.34 122.33 670.68 122.66 670 123 C669.67 123.99 669.34 124.98 669 126 C668.01 126 667.02 126 666 126 C665.67 127.32 665.34 128.64 665 130 C664.01 130 663.02 130 662 130 C661.8453125 130.86625 661.8453125 130.86625 661.6875 131.75 C660.89103535 134.35661158 659.80934723 135.9735311 658 138 C657.34 138 656.68 138 656 138 C655.67 138.99 655.34 139.98 655 141 C654.34 141.33 653.68 141.66 653 142 C652.34786708 144.02463255 652.34786708 144.02463255 652 146 C651.01 146 650.02 146 649 146 C649 147.32 649 148.64 649 150 C648.01 150.33 647.02 150.66 646 151 C645.34 151.99 644.68 152.98 644 154 C642 157 642 157 639 158 C638.67 158.99 638.34 159.98 638 161 C637.34 161.33 636.68 161.66 636 162 C635.67 162.99 635.34 163.98 635 165 C634.01 165 633.02 165 632 165 C632 166.65 632 168.3 632 170 C631.01 170 630.02 170 629 170 C628.67 170.99 628.34 171.98 628 173 C627.34 173.33 626.68 173.66 626 174 C625.67 174.99 625.34 175.98 625 177 C624.01 177.33 623.02 177.66 622 178 C621.67 178.99 621.34 179.98 621 181 C620.01 181 619.02 181 618 181 C618 182.32 618 183.64 618 185 C617.01 185 616.02 185 615 185 C615 186.32 615 187.64 615 189 C614.01 189.33 613.02 189.66 612 190 C611.67 190.99 611.34 191.98 611 193 C610.01 193 609.02 193 608 193 C608 194.32 608 195.64 608 197 C607.01 197 606.02 197 605 197 C604.67 198.32 604.34 199.64 604 201 C603.01 201 602.02 201 601 201 C600.8453125 201.86625 600.8453125 201.86625 600.6875 202.75 C599.89103535 205.35661158 598.80934723 206.9735311 597 209 C596.34 209 595.68 209 595 209 C594.67 209.99 594.34 210.98 594 212 C593.34 212.33 592.68 212.66 592 213 C591.31513275 214.32407669 590.65129797 215.65909241 590 217 C588.5625 219.25 588.5625 219.25 587 221 C586.01 221 585.02 221 584 221 C583.8453125 221.86625 583.8453125 221.86625 583.6875 222.75 C582.89103535 225.35661158 581.80934723 226.9735311 580 229 C579.34 229 578.68 229 578 229 C577.67 229.99 577.34 230.98 577 232 C576.01 232 575.02 232 574 232 C574 233.32 574 234.64 574 236 C573.01 236 572.02 236 571 236 C571 237.32 571 238.64 571 240 C570.01 240.33 569.02 240.66 568 241 C567.67 241.99 567.34 242.98 567 244 C566.34 244.33 565.68 244.66 565 245 C563.86649466 247.01669827 563.86649466 247.01669827 563 249 C562.34 249 561.68 249 561 249 C560.67 249.99 560.34 250.98 560 252 C559.01 252 558.02 252 557 252 C557 253.32 557 254.64 557 256 C556.01 256 555.02 256 554 256 C554 257.32 554 258.64 554 260 C552.68 260 551.36 260 550 260 C550 261.32 550 262.64 550 264 C549.01 264 548.02 264 547 264 C547 265.32 547 266.64 547 268 C546.01 268 545.02 268 544 268 C543.814375 268.9590625 543.814375 268.9590625 543.625 269.9375 C543.41875 270.618125 543.2125 271.29875 543 272 C542.01 272.495 542.01 272.495 541 273 C540.67 273.99 540.34 274.98 540 276 C539.01 276 538.02 276 537 276 C536.67 277.32 536.34 278.64 536 280 C535.34 280 534.68 280 534 280 C533.67 280.99 533.34 281.98 533 283 C532.01 283.495 532.01 283.495 531 284 C529.86649466 286.01669827 529.86649466 286.01669827 529 288 C528.34 287.67 527.68 287.34 527 287 C526.67 288.65 526.34 290.3 526 292 C525.01 292 524.02 292 523 292 C522.896875 292.5775 522.79375 293.155 522.6875 293.75 C521.89103535 296.35661158 520.80934723 297.9735311 519 300 C518.34 300 517.68 300 517 300 C516.67 300.99 516.34 301.98 516 303 C515.01 303 514.02 303 513 303 C513 304.32 513 305.64 513 307 C512.01 307 511.02 307 510 307 C510 308.32 510 309.64 510 311 C509.01 311.33 508.02 311.66 507 312 C506.67 312.99 506.34 313.98 506 315 C505.01 315 504.02 315 503 315 C503 316.65 503 318.3 503 320 C502.01 320 501.02 320 500 320 C499.67 320.99 499.34 321.98 499 323 C498.01 323 497.02 323 496 323 C496 324.32 496 325.64 496 327 C495.01 327 494.02 327 493 327 C493 328.32 493 329.64 493 331 C491.68 331 490.36 331 489 331 C488.87625 331.5775 488.7525 332.155 488.625 332.75 C487.97946097 335.07394051 487.27275111 336.94945654 486 339 C485.01 339.33 484.02 339.66 483 340 C482.67 340.99 482.34 341.98 482 343 C481.34 343.33 480.68 343.66 480 344 C480 345.32 480 346.64 480 348 C480.66 348.33 481.32 348.66 482 349 C482.625 351.5625 482.625 351.5625 483 354 C483.99 353.67 484.98 353.34 486 353 C486.12375 353.804375 486.2475 354.60875 486.375 355.4375 C486.58125 356.283125 486.7875 357.12875 487 358 C487.66 358.33 488.32 358.66 489 359 C489.33 359.99 489.66 360.98 490 362 C490.99 362.33 491.98 362.66 493 363 C493.33 364.65 493.66 366.3 494 368 C494.66 368 495.32 368 496 368 C496 369.65 496 371.3 496 373 C496.99 373 497.98 373 499 373 C499.66 374.65 500.32 376.3 501 378 C501.66 378 502.32 378 503 378 C503 379.65 503 381.3 503 383 C503.99 383 504.98 383 506 383 C506 384.65 506 386.3 506 388 C507.32 388.33 508.64 388.66 510 389 C510 390.32 510 391.64 510 393 C510.99 393 511.98 393 513 393 C513 394.65 513 396.3 513 398 C513.99 398 514.98 398 516 398 C516.1546875 398.9590625 516.1546875 398.9590625 516.3125 399.9375 C516.539375 400.618125 516.76625 401.29875 517 402 C517.99 402.33 518.98 402.66 520 403 C520 404.65 520 406.3 520 408 C520.99 408 521.98 408 523 408 C523.185625 408.9590625 523.185625 408.9590625 523.375 409.9375 C523.58125 410.618125 523.7875 411.29875 524 412 C524.66 412.33 525.32 412.66 526 413 C526.625 415.5625 526.625 415.5625 527 418 C527.99 417.67 528.98 417.34 530 417 C530.185625 418.2065625 530.185625 418.2065625 530.375 419.4375 C530.58125 420.283125 530.7875 421.12875 531 422 C531.66 422.33 532.32 422.66 533 423 C533.625 425.5625 533.625 425.5625 534 428 C534.99 427.67 535.98 427.34 537 427 C537 428.98 537 430.96 537 433 C537.99 433 538.98 433 540 433 C540 434.32 540 435.64 540 437 C540.99 437 541.98 437 543 437 C543.66 438.65 544.32 440.3 545 442 C545.66 442 546.32 442 547 442 C547 443.65 547 445.3 547 447 C547.99 447 548.98 447 550 447 C550.1546875 447.9590625 550.1546875 447.9590625 550.3125 448.9375 C550.539375 449.618125 550.76625 450.29875 551 451 C551.99 451.33 552.98 451.66 554 452 C554 453.65 554 455.3 554 457 C554.99 457 555.98 457 557 457 C557.185625 457.9590625 557.185625 457.9590625 557.375 458.9375 C557.58125 459.618125 557.7875 460.29875 558 461 C558.66 461.33 559.32 461.66 560 462 C560.144375 462.66 560.28875 463.32 560.4375 464 C560.623125 464.66 560.80875 465.32 561 466 C561.99 466.33 562.98 466.66 564 467 C564 468.65 564 470.3 564 472 C564.99 472 565.98 472 567 472 C567.1546875 472.9590625 567.1546875 472.9590625 567.3125 473.9375 C567.539375 474.618125 567.76625 475.29875 568 476 C568.99 476.33 569.98 476.66 571 477 C571 478.65 571 480.3 571 482 C571.99 482 572.98 482 574 482 C574 483.65 574 485.3 574 487 C574.99 487 575.98 487 577 487 C577.33 488.65 577.66 490.3 578 492 C578.99 491.67 579.98 491.34 581 491 C581 492.98 581 494.96 581 497 C581.99 497 582.98 497 584 497 C584.1546875 497.9590625 584.1546875 497.9590625 584.3125 498.9375 C584.539375 499.618125 584.76625 500.29875 585 501 C585.99 501.33 586.98 501.66 588 502 C588 503.65 588 505.3 588 507 C588.99 506.67 589.98 506.34 591 506 C591.185625 507.2065625 591.185625 507.2065625 591.375 508.4375 C591.58125 509.283125 591.7875 510.12875 592 511 C592.66 511.33 593.32 511.66 594 512 C595.125 514.0625 595.125 514.0625 596 516 C596.66 516 597.32 516 598 516 C598.33 517.65 598.66 519.3 599 521 C599.66 521 600.32 521 601 521 C601 522.65 601 524.3 601 526 C601.99 526 602.98 526 604 526 C604.66 527.65 605.32 529.3 606 531 C606.66 531 607.32 531 608 531 C608 532.65 608 534.3 608 536 C608.99 536 609.98 536 611 536 C611.1546875 536.9590625 611.1546875 536.9590625 611.3125 537.9375 C611.539375 538.618125 611.76625 539.29875 612 540 C612.99 540.33 613.98 540.66 615 541 C615 542.65 615 544.3 615 546 C615.99 546 616.98 546 618 546 C618.185625 546.9590625 618.185625 546.9590625 618.375 547.9375 C618.58125 548.618125 618.7875 549.29875 619 550 C619.66 550.33 620.32 550.66 621 551 C621.625 553.5625 621.625 553.5625 622 556 C622.99 555.67 623.98 555.34 625 555 C625 556.98 625 558.96 625 561 C625.99 561 626.98 561 628 561 C628.33 562.32 628.66 563.64 629 565 C629.99 565 630.98 565 632 565 C632.33 566.65 632.66 568.3 633 570 C633.66 570 634.32 570 635 570 C635.12375 570.804375 635.2475 571.60875 635.375 572.4375 C635.58125 573.283125 635.7875 574.12875 636 575 C636.66 575.33 637.32 575.66 638 576 C638.625 578.5625 638.625 578.5625 639 581 C639.99 580.67 640.98 580.34 642 580 C642.12375 580.804375 642.2475 581.60875 642.375 582.4375 C642.58125 583.283125 642.7875 584.12875 643 585 C643.66 585.33 644.32 585.66 645 586 C645.33 586.99 645.66 587.98 646 589 C646.99 589.33 647.98 589.66 649 590 C649.33 591.65 649.66 593.3 650 595 C650.66 595 651.32 595 652 595 C652 596.65 652 598.3 652 600 C652.99 600 653.98 600 655 600 C655.66 601.65 656.32 603.3 657 605 C657.66 605 658.32 605 659 605 C659 606.65 659 608.3 659 610 C659.99 610 660.98 610 662 610 C662.1546875 610.928125 662.1546875 610.928125 662.3125 611.875 C662.87525373 614.36526484 662.87525373 614.36526484 666 616 C666 617.32 666 618.64 666 620 C666.99 620 667.98 620 669 620 C669 621.65 669 623.3 669 625 C669.99 625 670.98 625 672 625 C672.1546875 625.9590625 672.1546875 625.9590625 672.3125 626.9375 C672.539375 627.618125 672.76625 628.29875 673 629 C673.99 629.33 674.98 629.66 676 630 C676 631.65 676 633.3 676 635 C676.99 635 677.98 635 679 635 C679.1546875 635.928125 679.1546875 635.928125 679.3125 636.875 C679.87525373 639.36526484 679.87525373 639.36526484 683 641 C683 642.32 683 643.64 683 645 C683.99 644.67 684.98 644.34 686 644 C686.12375 644.804375 686.2475 645.60875 686.375 646.4375 C686.58125 647.283125 686.7875 648.12875 687 649 C687.66 649.33 688.32 649.66 689 650 C690.125 652.0625 690.125 652.0625 691 654 C691.66 654 692.32 654 693 654 C693 655.98 693 657.96 693 660 C693.99 660 694.98 660 696 660 C696.66666667 661.33333333 697.33333333 662.66666667 698 664 C698.37125 664.70125 698.7425 665.4025 699.125 666.125 C700 668 700 668 700 670 C700.99 669.67 701.98 669.34 703 669 C703.33 670.65 703.66 672.3 704 674 C704.66 674 705.32 674 706 674 C706.66 675.65 707.32 677.3 708 679 C708.66 679 709.32 679 710 679 C710.33 680.65 710.66 682.3 711 684 C711.66 684 712.32 684 713 684 C713.185625 684.9590625 713.185625 684.9590625 713.375 685.9375 C713.58125 686.618125 713.7875 687.29875 714 688 C714.66 688.33 715.32 688.66 716 689 C716.144375 689.66 716.28875 690.32 716.4375 691 C716.623125 691.66 716.80875 692.32 717 693 C717.99 693.33 718.98 693.66 720 694 C720 695.65 720 697.3 720 699 C720.99 699 721.98 699 723 699 C723.1546875 699.9590625 723.1546875 699.9590625 723.3125 700.9375 C723.539375 701.618125 723.76625 702.29875 724 703 C724.99 703.33 725.98 703.66 727 704 C727 705.65 727 707.3 727 709 C727.99 709 728.98 709 730 709 C730 710.65 730 712.3 730 714 C730.99 714 731.98 714 733 714 C733.33 715.65 733.66 717.3 734 719 C734.99 718.67 735.98 718.34 737 718 C737.12375 718.804375 737.2475 719.60875 737.375 720.4375 C737.58125 721.283125 737.7875 722.12875 738 723 C738.66 723.33 739.32 723.66 740 724 C740.144375 724.66 740.28875 725.32 740.4375 726 C740.623125 726.66 740.80875 727.32 741 728 C741.99 728.33 742.98 728.66 744 729 C745.1875 731.0625 745.1875 731.0625 746 733 C746.33 733 746.66 733 747 733 C747.12375 733.804375 747.2475 734.60875 747.375 735.4375 C747.58125 736.283125 747.7875 737.12875 748 738 C748.66 738.33 749.32 738.66 750 739 C751.125 741.0625 751.125 741.0625 752 743 C752.66 743 753.32 743 754 743 C754.33 744.65 754.66 746.3 755 748 C755.66 748 756.32 748 757 748 C757.1546875 748.8971875 757.1546875 748.8971875 757.3125 749.8125 C758.1032679 752.32857968 759.08428637 753.23754346 761 755 C761.66 755.99 762.32 756.98 763 758 C763.33 758 763.66 758 764 758 C764 759.65 764 761.3 764 763 C764.99 763 765.98 763 767 763 C767.1546875 763.9590625 767.1546875 763.9590625 767.3125 764.9375 C767.539375 765.618125 767.76625 766.29875 768 767 C768.99 767.33 769.98 767.66 771 768 C771 769.65 771 771.3 771 773 C771.99 773 772.98 773 774 773 C774.185625 773.9590625 774.185625 773.9590625 774.375 774.9375 C774.58125 775.618125 774.7875 776.29875 775 777 C775.66 777.33 776.32 777.66 777 778 C777.144375 778.66 777.28875 779.32 777.4375 780 C777.623125 780.66 777.80875 781.32 778 782 C778.99 782.33 779.98 782.66 781 783 C781 784.65 781 786.3 781 788 C781.99 788 782.98 788 784 788 C784.1546875 788.9590625 784.1546875 788.9590625 784.3125 789.9375 C784.539375 790.618125 784.76625 791.29875 785 792 C785.99 792.33 786.98 792.66 788 793 C788 794.65 788 796.3 788 798 C788.99 798 789.98 798 791 798 C791.185625 798.9590625 791.185625 798.9590625 791.375 799.9375 C791.58125 800.618125 791.7875 801.29875 792 802 C792.66 802.33 793.32 802.66 794 803 C794.33 803.99 794.66 804.98 795 806 C795.99 806.33 796.98 806.66 798 807 C799.74627478 809.61941217 800.38722388 811.03824877 801 814 C769.94989113 814.04558815 738.89979108 814.08100019 707.84965671 814.10213066 C704.18704322 814.10463219 700.5244298 814.10722082 696.86181641 814.10986328 C696.13263102 814.1103879 695.40344564 814.11091252 694.65216373 814.11145304 C682.8326942 814.12016461 671.01324406 814.1359387 659.19378604 814.15430559 C647.07326459 814.17298377 634.95275331 814.1841123 622.83221805 814.18817699 C615.34830328 814.19092638 607.86444328 814.1996218 600.38054536 814.21583293 C594.6497442 814.22761711 588.91897843 814.22891663 583.18816757 814.22621536 C580.83144543 814.22676799 578.47472132 814.23077794 576.11801147 814.23841095 C572.91316053 814.24828641 569.70854851 814.2459961 566.50369263 814.24050903 C565.56012693 814.24633472 564.61656122 814.2521604 563.64440262 814.25816262 C562.79047201 814.25418052 561.93654139 814.25019842 561.05673409 814.24609566 C560.31627944 814.2468551 559.5758248 814.24761454 558.81293213 814.24839699 C557 814 557 814 555 812 C554.690625 811.319375 554.38125 810.63875 554.0625 809.9375 C553.09596458 807.65434116 553.09596458 807.65434116 550 807 C549.67 805.35 549.34 803.7 549 802 C548.34 802 547.68 802 547 802 C546.8453125 801.1028125 546.8453125 801.1028125 546.6875 800.1875 C545.8967321 797.67142032 544.91571363 796.76245654 543 795 C542.34 794.01 541.68 793.02 541 792 C540.67 792 540.34 792 540 792 C540 790.35 540 788.7 540 787 C539.01 787 538.02 787 537 787 C536.8453125 786.0409375 536.8453125 786.0409375 536.6875 785.0625 C536.460625 784.381875 536.23375 783.70125 536 783 C535.01 782.67 534.02 782.34 533 782 C533 780.35 533 778.7 533 777 C532.01 777 531.02 777 530 777 C529.814375 776.0409375 529.814375 776.0409375 529.625 775.0625 C529.41875 774.381875 529.2125 773.70125 529 773 C528.34 772.67 527.68 772.34 527 772 C526.375 769.4375 526.375 769.4375 526 767 C525.01 767 524.02 767 523 767 C522.814375 766.0409375 522.814375 766.0409375 522.625 765.0625 C522.41875 764.381875 522.2125 763.70125 522 763 C521.34 762.67 520.68 762.34 520 762 C519.855625 761.34 519.71125 760.68 519.5625 760 C519.376875 759.34 519.19125 758.68 519 758 C518.01 757.67 517.02 757.34 516 757 C514.8125 754.9375 514.8125 754.9375 514 753 C513.67 753 513.34 753 513 753 C512.87625 752.195625 512.7525 751.39125 512.625 750.5625 C512.41875 749.716875 512.2125 748.87125 512 748 C511.34 747.67 510.68 747.34 510 747 C508.875 744.9375 508.875 744.9375 508 743 C507.34 743 506.68 743 506 743 C505.87625 742.195625 505.7525 741.39125 505.625 740.5625 C505.315625 739.2940625 505.315625 739.2940625 505 738 C504.34 737.67 503.68 737.34 503 737 C502.67 736.01 502.34 735.02 502 734 C501.01 733.67 500.02 733.34 499 733 C498.67 731.35 498.34 729.7 498 728 C497.34 728 496.68 728 496 728 C496 726.35 496 724.7 496 723 C495.01 723 494.02 723 493 723 C492.34 721.35 491.68 719.7 491 718 C490.34 718 489.68 718 489 718 C489 716.35 489 714.7 489 713 C488.01 713 487.02 713 486 713 C485.896875 712.360625 485.79375 711.72125 485.6875 711.0625 C485.460625 710.381875 485.23375 709.70125 485 709 C484.01 708.67 483.02 708.34 482 708 C482 706.35 482 704.7 482 703 C481.01 703 480.02 703 479 703 C478.87625 702.360625 478.7525 701.72125 478.625 701.0625 C478.41875 700.381875 478.2125 699.70125 478 699 C477.34 698.67 476.68 698.34 476 698 C475.855625 697.34 475.71125 696.68 475.5625 696 C475.376875 695.34 475.19125 694.68 475 694 C474.01 693.67 473.02 693.34 472 693 C471.6278958 691.67696283 471.29369827 690.34262065 471 689 C470.34 688.67 469.68 688.34 469 688 C468.855625 687.34 468.71125 686.68 468.5625 686 C468.376875 685.34 468.19125 684.68 468 684 C467.01 683.67 466.02 683.34 465 683 C463.8125 680.9375 463.8125 680.9375 463 679 C462.67 679 462.34 679 462 679 C461.87625 678.195625 461.7525 677.39125 461.625 676.5625 C461.315625 675.2940625 461.315625 675.2940625 461 674 C460.34 673.67 459.68 673.34 459 673 C458.375 670.4375 458.375 670.4375 458 668 C457.01 668.33 456.02 668.66 455 669 C454.87625 668.195625 454.7525 667.39125 454.625 666.5625 C454.315625 665.2940625 454.315625 665.2940625 454 664 C453.34 663.67 452.68 663.34 452 663 C451.855625 662.38125 451.71125 661.7625 451.5625 661.125 C450.89230189 658.59314048 449.94075649 657.70786571 448 656 C447.34 655.34 446.68 654.68 446 654 C445.67 654 445.34 654 445 654 C444.67 652.35 444.34 650.7 444 649 C443.34 649 442.68 649 442 649 C441.896875 648.360625 441.79375 647.72125 441.6875 647.0625 C441.460625 646.381875 441.23375 645.70125 441 645 C440.01 644.67 439.02 644.34 438 644 C437.67 642.35 437.34 640.7 437 639 C436.34 639 435.68 639 435 639 C434.87625 638.360625 434.7525 637.72125 434.625 637.0625 C434.41875 636.381875 434.2125 635.70125 434 635 C433.34 634.67 432.68 634.34 432 634 C431.855625 633.34 431.71125 632.68 431.5625 632 C431.376875 631.34 431.19125 630.68 431 630 C430.01 629.67 429.02 629.34 428 629 C427.6278958 627.67696283 427.29369827 626.34262065 427 625 C426.34 624.67 425.68 624.34 425 624 C424.855625 623.34 424.71125 622.68 424.5625 622 C424.376875 621.34 424.19125 620.68 424 620 C423.01 619.67 422.02 619.34 421 619 C421 617.35 421 615.7 421 614 C420.01 614 419.02 614 418 614 C417.87625 613.360625 417.7525 612.72125 417.625 612.0625 C417.41875 611.381875 417.2125 610.70125 417 610 C416.34 609.67 415.68 609.34 415 609 C414.375 606.9375 414.375 606.9375 414 605 C413.01 605 412.02 605 411 605 C410.87625 604.195625 410.7525 603.39125 410.625 602.5625 C410.315625 601.2940625 410.315625 601.2940625 410 600 C409.34 599.67 408.68 599.34 408 599 C407.855625 598.34 407.71125 597.68 407.5625 597 C407.376875 596.34 407.19125 595.68 407 595 C406.01 594.67 405.02 594.34 404 594 C402.8125 591.9375 402.8125 591.9375 402 590 C401.67 590 401.34 590 401 590 C400.87625 589.195625 400.7525 588.39125 400.625 587.5625 C400.315625 586.2940625 400.315625 586.2940625 400 585 C399.34 584.67 398.68 584.34 398 584 C397.67 583.01 397.34 582.02 397 581 C396.01 580.67 395.02 580.34 394 580 C393.67 578.35 393.34 576.7 393 575 C392.34 575 391.68 575 391 575 C390.896875 574.38125 390.79375 573.7625 390.6875 573.125 C390.12474627 570.63473516 390.12474627 570.63473516 387 569 C385.8125 566.875 385.8125 566.875 385 565 C384.67 565 384.34 565 384 565 C384 563.35 384 561.7 384 560 C383.01 560 382.02 560 381 560 C380.896875 559.360625 380.79375 558.72125 380.6875 558.0625 C380.460625 557.381875 380.23375 556.70125 380 556 C379.01 555.67 378.02 555.34 377 555 C377 553.35 377 551.7 377 550 C376.01 550 375.02 550 374 550 C373.87625 549.360625 373.7525 548.72125 373.625 548.0625 C373.41875 547.381875 373.2125 546.70125 373 546 C372.34 545.67 371.68 545.34 371 545 C370.855625 544.34 370.71125 543.68 370.5625 543 C370.376875 542.34 370.19125 541.68 370 541 C369.01 540.67 368.02 540.34 367 540 C366.6278958 538.67696283 366.29369827 537.34262065 366 536 C365.34 535.67 364.68 535.34 364 535 C363.855625 534.34 363.71125 533.68 363.5625 533 C363.376875 532.34 363.19125 531.68 363 531 C362.01 530.67 361.02 530.34 360 530 C358.8125 527.9375 358.8125 527.9375 358 526 C357.67 526 357.34 526 357 526 C356.87625 525.195625 356.7525 524.39125 356.625 523.5625 C356.315625 522.2940625 356.315625 522.2940625 356 521 C355.34 520.67 354.68 520.34 354 520 C352.875 517.9375 352.875 517.9375 352 516 C351.34 516 350.68 516 350 516 C349.87625 515.195625 349.7525 514.39125 349.625 513.5625 C349.315625 512.2940625 349.315625 512.2940625 349 511 C348.34 510.67 347.68 510.34 347 510 C345.875 507.9375 345.875 507.9375 345 506 C344.34 506 343.68 506 343 506 C342.67 505.34 342.34 504.68 342 504 C341.34 505.65 340.68 507.3 340 509 C339.01 508.67 338.02 508.34 337 508 C337 509.32 337 510.64 337 512 C336.01 512.33 335.02 512.66 334 513 C333.67 513.99 333.34 514.98 333 516 C332.34 516.33 331.68 516.66 331 517 C330.67 517.99 330.34 518.98 330 520 C329.01 520.33 328.02 520.66 327 521 C326.67 521.99 326.34 522.98 326 524 C325.01 524 324.02 524 323 524 C323 525.32 323 526.64 323 528 C322.01 528 321.02 528 320 528 C320 529.32 320 530.64 320 532 C319.01 532.33 318.02 532.66 317 533 C316.67 533.99 316.34 534.98 316 536 C315.01 536 314.02 536 313 536 C313 537.32 313 538.64 313 540 C312.01 540.33 311.02 540.66 310 541 C309.67 541.99 309.34 542.98 309 544 C308.01 544 307.02 544 306 544 C306 544.99 306 545.98 306 547 C305.01 547 304.02 547 303 547 C303 548.65 303 550.3 303 552 C302.01 552 301.02 552 300 552 C299.71125 552.5775 299.4225 553.155 299.125 553.75 C298.75375 554.4925 298.3825 555.235 298 556 C297.690625 556.721875 297.38125 557.44375 297.0625 558.1875 C296 560 296 560 293 561 C292.67 561.99 292.34 562.98 292 564 C291.01 564 290.02 564 289 564 C289 564.99 289 565.98 289 567 C288.34 567.33 287.68 567.66 287 568 C286.67 568.99 286.34 569.98 286 571 C285.01 571.33 284.02 571.66 283 572 C282.67 572.99 282.34 573.98 282 575 C281.34 575.33 280.68 575.66 280 576 C279.67 576.99 279.34 577.98 279 579 C278.01 579 277.02 579 276 579 C275.87625 579.639375 275.7525 580.27875 275.625 580.9375 C275.41875 581.618125 275.2125 582.29875 275 583 C274.34 583.33 273.68 583.66 273 584 C272.67 584.99 272.34 585.98 272 587 C271.34 587.33 270.68 587.66 270 588 C269.67 588.99 269.34 589.98 269 591 C268.01 591.33 267.02 591.66 266 592 C265.67 592.99 265.34 593.98 265 595 C264.01 595 263.02 595 262 595 C262 596.32 262 597.64 262 599 C261.01 599 260.02 599 259 599 C258.87625 599.639375 258.7525 600.27875 258.625 600.9375 C258.41875 601.618125 258.2125 602.29875 258 603 C257.34 603.33 256.68 603.66 256 604 C255.67 604.99 255.34 605.98 255 607 C254.01 607 253.02 607 252 607 C252 608.32 252 609.64 252 611 C251.01 611.33 250.02 611.66 249 612 C248.67 612.99 248.34 613.98 248 615 C247.01 615 246.02 615 245 615 C244.67 616.32 244.34 617.64 244 619 C243.34 618.67 242.68 618.34 242 618 C242 619.32 242 620.64 242 622 C241.01 622.33 240.02 622.66 239 623 C237.94978897 624.84971696 237.94978897 624.84971696 237 627 C234.39130435 630.80434783 234.39130435 630.80434783 232 632 C231.67 632.99 231.34 633.98 231 635 C230.01 635 229.02 635 228 635 C227.814375 635.8971875 227.814375 635.8971875 227.625 636.8125 C227 639 227 639 225 642 C224.01 642.33 223.02 642.66 222 643 C221.67 643.99 221.34 644.98 221 646 C220.01 646 219.02 646 218 646 C218 647.32 218 648.64 218 650 C217.01 650 216.02 650 215 650 C214.814375 650.9590625 214.814375 650.9590625 214.625 651.9375 C214.41875 652.618125 214.2125 653.29875 214 654 C213.34 654.33 212.68 654.66 212 655 C211.29848848 656.3153341 210.63474075 657.65117592 210 659 C208 662 208 662 205 663 C204.67 663.99 204.34 664.98 204 666 C203.01 666 202.02 666 201 666 C200.8453125 666.86625 200.8453125 666.86625 200.6875 667.75 C199.88350079 670.38127015 198.86932485 671.98688093 197 674 C196.01 674 195.02 674 194 674 C194 675.32 194 676.64 194 678 C193.01 678 192.02 678 191 678 C191 679.32 191 680.64 191 682 C190.01 682.33 189.02 682.66 188 683 C187.67 683.99 187.34 684.98 187 686 C186.01 686 185.02 686 184 686 C183.814375 686.8971875 183.814375 686.8971875 183.625 687.8125 C183 690 183 690 181 693 C180.01 693.33 179.02 693.66 178 694 C177.67 694.99 177.34 695.98 177 697 C176.34 697.33 175.68 697.66 175 698 C173.86649466 700.01669827 173.86649466 700.01669827 173 702 C172.34 701.67 171.68 701.34 171 701 C170.67 702.65 170.34 704.3 170 706 C169.01 706 168.02 706 167 706 C166.814375 706.8971875 166.814375 706.8971875 166.625 707.8125 C166 710 166 710 164 713 C163.01 713.33 162.02 713.66 161 714 C160.67 714.99 160.34 715.98 160 717 C159.01 717 158.02 717 157 717 C157 718.32 157 719.64 157 721 C156.01 721.33 155.02 721.66 154 722 C153.67 722.99 153.34 723.98 153 725 C152.34 725.33 151.68 725.66 151 726 C150.67 726.99 150.34 727.98 150 729 C149.01 729 148.02 729 147 729 C147 730.32 147 731.64 147 733 C146.01 733.33 145.02 733.66 144 734 C143.67 734.99 143.34 735.98 143 737 C142.01 737 141.02 737 140 737 C139.938125 737.5775 139.87625 738.155 139.8125 738.75 C138.68893916 741.86139925 136.54804465 742.96156428 134 745 C133.13034494 747.12946603 133.13034494 747.12946603 133 749 C132.01 749 131.02 749 130 749 C130 750.32 130 751.64 130 753 C129.01 753.33 128.02 753.66 127 754 C126.67 754.99 126.34 755.98 126 757 C125.01 757 124.02 757 123 757 C123 758.32 123 759.64 123 761 C122.01 761.33 121.02 761.66 120 762 C117.63493157 764.00121175 117.0106678 764.96799661 116 768 C115.01 768 114.02 768 113 768 C113 769.65 113 771.3 113 773 C112.01 773 111.02 773 110 773 C109.67 773.99 109.34 774.98 109 776 C108.34 776.33 107.68 776.66 107 777 C106.29848848 778.3153341 105.63474075 779.65117592 105 781 C103 784 103 784 100 785 C99.67 785.99 99.34 786.98 99 788 C98.01 788 97.02 788 96 788 C96 789.32 96 790.64 96 792 C95.01 792.33 94.02 792.66 93 793 C92.67 793.99 92.34 794.98 92 796 C91.01 796 90.02 796 89 796 C89 797.32 89 798.64 89 800 C88.01 800 87.02 800 86 800 C86 801.32 86 802.64 86 804 C85.01 804.33 84.02 804.66 83 805 C82.67 805.99 82.34 806.98 82 808 C81.01 808 80.02 808 79 808 C79 809.32 79 810.64 79 812 C78.01 812 77.02 812 76 812 C76 812.66 76 813.32 76 814 C50.92 814 25.84 814 0 814 C0 812.35 0 810.7 0 809 C1.32 808.67 2.64 808.34 4 808 C4.33 806.68 4.66 805.36 5 804 C5.66 804.33 6.32 804.66 7 805 C7.12375 804.360625 7.2475 803.72125 7.375 803.0625 C7.58125 802.381875 7.7875 801.70125 8 801 C8.66 800.67 9.32 800.34 10 800 C10.70151152 798.6846659 11.36525925 797.34882408 12 796 C14 793 14 793 17 792 C17.33 791.01 17.66 790.02 18 789 C18.99 789 19.98 789 21 789 C21 787.68 21 786.36 21 785 C21.99 784.67 22.98 784.34 24 784 C24.33 783.01 24.66 782.02 25 781 C25.66 780.67 26.32 780.34 27 780 C27.33 779.01 27.66 778.02 28 777 C28.99 777 29.98 777 31 777 C31 775.35 31 773.7 31 772 C31.99 772 32.98 772 34 772 C34.33 771.01 34.66 770.02 35 769 C35.99 769 36.98 769 38 769 C38.0928125 768.13375 38.0928125 768.13375 38.1875 767.25 C39.31626214 764.12419715 41.41383298 763.01847182 44 761 C45.22527948 759.04978917 45.22527948 759.04978917 46 757 C46.9375 754.8125 46.9375 754.8125 48 753 C48.99 752.67 49.98 752.34 51 752 C51.33 751.01 51.66 750.02 52 749 C52.99 749 53.98 749 55 749 C55 747.68 55 746.36 55 745 C55.99 745 56.98 745 58 745 C58 744.01 58 743.02 58 742 C58.99 741.67 59.98 741.34 61 741 C61.33 740.01 61.66 739.02 62 738 C62.99 738 63.98 738 65 738 C65 736.68 65 735.36 65 734 C65.99 733.67 66.98 733.34 68 733 C68.33 732.01 68.66 731.02 69 730 C69.66 729.67 70.32 729.34 71 729 C71.70151152 727.6846659 72.36525925 726.34882408 73 725 C75 722 75 722 78 721 C78.33 720.01 78.66 719.02 79 718 C79.99 718 80.98 718 82 718 C82 716.68 82 715.36 82 714 C82.99 713.67 83.98 713.34 85 713 C85.33 712.01 85.66 711.02 86 710 C86.99 710 87.98 710 89 710 C89 708.68 89 707.36 89 706 C89.99 706 90.98 706 92 706 C92 704.68 92 703.36 92 702 C92.99 701.67 93.98 701.34 95 701 C95.33 700.01 95.66 699.02 96 698 C96.99 698 97.98 698 99 698 C99 696.68 99 695.36 99 694 C99.99 693.67 100.98 693.34 102 693 C105.07274872 690.41889107 106.38254443 687.44072966 107.9375 683.8125 C109 682 109 682 112 681 C112.33 680.01 112.66 679.02 113 678 C113.99 678 114.98 678 116 678 C116 676.68 116 675.36 116 674 C116.99 673.67 117.98 673.34 119 673 C121.36506843 670.99878825 121.9893322 670.03200339 123 667 C123.99 667 124.98 667 126 667 C126 665.68 126 664.36 126 663 C126.99 662.67 127.98 662.34 129 662 C129.33 661.01 129.66 660.02 130 659 C130.66 658.67 131.32 658.34 132 658 C132.4021875 657.1028125 132.4021875 657.1028125 132.8125 656.1875 C134.34762485 653.35963843 136.50095608 651.98641953 139 650 C139.33 649.01 139.66 648.02 140 647 C140.99 647 141.98 647 143 647 C143 645.68 143 644.36 143 643 C143.99 642.67 144.98 642.34 146 642 C146.33 641.01 146.66 640.02 147 639 C147.99 639 148.98 639 150 639 C150 637.68 150 636.36 150 635 C150.99 635 151.98 635 153 635 C153 633.68 153 632.36 153 631 C153.99 630.67 154.98 630.34 156 630 C156.33 629.01 156.66 628.02 157 627 C157.99 627 158.98 627 160 627 C160 625.68 160 624.36 160 623 C160.99 622.67 161.98 622.34 163 622 C165.42638194 619.96183917 166.70989008 617.87793751 168 615 C168.66 615.33 169.32 615.66 170 616 C170 614.35 170 612.7 170 611 C170.99 611 171.98 611 173 611 C173.28875 610.4225 173.5775 609.845 173.875 609.25 C174.24625 608.5075 174.6175 607.765 175 607 C175.309375 606.278125 175.61875 605.55625 175.9375 604.8125 C177 603 177 603 180 602 C182.36506843 599.99878825 182.9893322 599.03200339 184 596 C184.99 596 185.98 596 187 596 C187 594.68 187 593.36 187 592 C187.99 591.67 188.98 591.34 190 591 C190.33 590.01 190.66 589.02 191 588 C191.99 588 192.98 588 194 588 C194 586.35 194 584.7 194 583 C194.99 583.33 195.98 583.66 197 584 C197.185625 583.0409375 197.185625 583.0409375 197.375 582.0625 C197.58125 581.381875 197.7875 580.70125 198 580 C198.66 579.67 199.32 579.34 200 579 C200.33 578.01 200.66 577.02 201 576 C201.99 576 202.98 576 204 576 C204 574.68 204 573.36 204 572 C204.99 571.67 205.98 571.34 207 571 C207.33 570.01 207.66 569.02 208 568 C208.99 568 209.98 568 211 568 C211.061875 567.443125 211.12375 566.88625 211.1875 566.3125 C212.32778978 563.06705986 214.56296168 561.37611236 217 559 C217.33 558.01 217.66 557.02 218 556 C218.99 556 219.98 556 221 556 C221 554.68 221 553.36 221 552 C221.99 551.67 222.98 551.34 224 551 C224.66 550.01 225.32 549.02 226 548 C226.99387334 546.66209359 227.9926892 545.32781878 229 544 C229.66 544.33 230.32 544.66 231 545 C231 543.68 231 542.36 231 541 C231.99 540.67 232.98 540.34 234 540 C235.12516085 538.16715557 235.12516085 538.16715557 236 536 C236.9375 533.8125 236.9375 533.8125 238 532 C238.99 531.67 239.98 531.34 241 531 C241.66 530.01 242.32 529.02 243 528 C243.66 527.01 244.32 526.02 245 525 C245.99 525 246.98 525 248 525 C248 523.68 248 522.36 248 521 C248.99 520.67 249.98 520.34 251 520 C251.33 519.01 251.66 518.02 252 517 C252.99 517 253.98 517 255 517 C255 515.68 255 514.36 255 513 C255.99 513 256.98 513 258 513 C258.12375 512.360625 258.2475 511.72125 258.375 511.0625 C258.684375 510.0415625 258.684375 510.0415625 259 509 C259.66 508.67 260.32 508.34 261 508 C261.33 507.01 261.66 506.02 262 505 C262.99 505 263.98 505 265 505 C265 503.68 265 502.36 265 501 C265.99 500.67 266.98 500.34 268 500 C268.33 499.01 268.66 498.02 269 497 C269.99 497 270.98 497 272 497 C272.12375 496.360625 272.2475 495.72125 272.375 495.0625 C272.684375 494.0415625 272.684375 494.0415625 273 493 C273.66 492.67 274.32 492.34 275 492 C275.33 491.01 275.66 490.02 276 489 C276.99 489 277.98 489 279 489 C279 487.68 279 486.36 279 485 C279.99 485 280.98 485 282 485 C282 483.68 282 482.36 282 481 C282.99 480.67 283.98 480.34 285 480 C285.33 479.01 285.66 478.02 286 477 C286.99 477 287.98 477 289 477 C289 476.01 289 475.02 289 474 C289.99 474 290.98 474 292 474 C292.12375 473.360625 292.2475 472.72125 292.375 472.0625 C292.684375 471.0415625 292.684375 471.0415625 293 470 C293.66 469.67 294.32 469.34 295 469 C295.33 468.01 295.66 467.02 296 466 C296.99 466 297.98 466 299 466 C299 464.35 299 462.7 299 461 C299.99 460.67 300.98 460.34 302 460 C302.66 459.01 303.32 458.02 304 457 C304.66 456.01 305.32 455.02 306 454 C306.99 454 307.98 454 309 454 C309 453.01 309 452.02 309 451 C308.01 451 307.02 451 306 451 C305.87625 450.360625 305.7525 449.72125 305.625 449.0625 C305.315625 448.0415625 305.315625 448.0415625 305 447 C304.34 446.67 303.68 446.34 303 446 C302.375 443.9375 302.375 443.9375 302 442 C301.01 442 300.02 442 299 442 C298.87625 441.195625 298.7525 440.39125 298.625 439.5625 C298.41875 438.716875 298.2125 437.87125 298 437 C297.34 436.67 296.68 436.34 296 436 C295.855625 435.360625 295.71125 434.72125 295.5625 434.0625 C295.13834965 431.61789145 295.13834965 431.61789145 292 430 C291.34 429.01 290.68 428.02 290 427 C289.67 427 289.34 427 289 427 C288.87625 426.195625 288.7525 425.39125 288.625 424.5625 C288.41875 423.716875 288.2125 422.87125 288 422 C287.34 421.67 286.68 421.34 286 421 C285.67 420.01 285.34 419.02 285 418 C284.01 417.67 283.02 417.34 282 417 C281.67 415.35 281.34 413.7 281 412 C280.34 412 279.68 412 279 412 C278.87625 411.360625 278.7525 410.72125 278.625 410.0625 C278.315625 409.0415625 278.315625 409.0415625 278 408 C277.34 407.67 276.68 407.34 276 407 C275.855625 406.34 275.71125 405.68 275.5625 405 C275.376875 404.34 275.19125 403.68 275 403 C274.01 402.67 273.02 402.34 272 402 C272 400.35 272 398.7 272 397 C271.01 397 270.02 397 269 397 C268.896875 396.360625 268.79375 395.72125 268.6875 395.0625 C268.3471875 394.0415625 268.3471875 394.0415625 268 393 C267.01 392.67 266.02 392.34 265 392 C265 390.35 265 388.7 265 387 C264.01 387 263.02 387 262 387 C261.87625 386.360625 261.7525 385.72125 261.625 385.0625 C261.315625 384.0415625 261.315625 384.0415625 261 383 C260.34 382.67 259.68 382.34 259 382 C258.855625 381.34 258.71125 380.68 258.5625 380 C258.376875 379.34 258.19125 378.68 258 378 C257.01 377.67 256.02 377.34 255 377 C254.6278958 375.67696283 254.29369827 374.34262065 254 373 C253.34 372.67 252.68 372.34 252 372 C251.855625 371.34 251.71125 370.68 251.5625 370 C251.376875 369.34 251.19125 368.68 251 368 C250.01 367.67 249.02 367.34 248 367 C246.8125 364.9375 246.8125 364.9375 246 363 C245.67 363 245.34 363 245 363 C244.87625 362.195625 244.7525 361.39125 244.625 360.5625 C244.41875 359.716875 244.2125 358.87125 244 358 C243.34 357.67 242.68 357.34 242 357 C241.67 356.01 241.34 355.02 241 354 C240.01 353.67 239.02 353.34 238 353 C237.67 351.35 237.34 349.7 237 348 C236.34 348 235.68 348 235 348 C234.896875 347.360625 234.79375 346.72125 234.6875 346.0625 C234.3471875 345.0415625 234.3471875 345.0415625 234 344 C233.01 343.67 232.02 343.34 231 343 C230.67 341.35 230.34 339.7 230 338 C229.34 338 228.68 338 228 338 C228 336.35 228 334.7 228 333 C227.01 333 226.02 333 225 333 C224.896875 332.360625 224.79375 331.72125 224.6875 331.0625 C224.3471875 330.0415625 224.3471875 330.0415625 224 329 C223.01 328.67 222.02 328.34 221 328 C221 326.35 221 324.7 221 323 C220.01 323 219.02 323 218 323 C217.896875 322.38125 217.79375 321.7625 217.6875 321.125 C217.12474627 318.63473516 217.12474627 318.63473516 214 317 C214 315.68 214 314.36 214 313 C213.01 313 212.02 313 211 313 C210.87625 312.360625 210.7525 311.72125 210.625 311.0625 C210.41875 310.381875 210.2125 309.70125 210 309 C209.34 308.67 208.68 308.34 208 308 C207.855625 307.34 207.71125 306.68 207.5625 306 C207.376875 305.34 207.19125 304.68 207 304 C206.01 303.67 205.02 303.34 204 303 C202.8125 300.9375 202.8125 300.9375 202 299 C201.67 299 201.34 299 201 299 C200.87625 298.195625 200.7525 297.39125 200.625 296.5625 C200.41875 295.716875 200.2125 294.87125 200 294 C199.34 293.67 198.68 293.34 198 293 C197.375 290.4375 197.375 290.4375 197 288 C196.01 288.33 195.02 288.66 194 289 C193.87625 288.195625 193.7525 287.39125 193.625 286.5625 C193.41875 285.716875 193.2125 284.87125 193 284 C192.34 283.67 191.68 283.34 191 283 C190.375 280.9375 190.375 280.9375 190 279 C189.01 279 188.02 279 187 279 C186.67 277.35 186.34 275.7 186 274 C185.34 274 184.68 274 184 274 C183.67 272.35 183.34 270.7 183 269 C182.34 269 181.68 269 181 269 C180.34 267.35 179.68 265.7 179 264 C178.34 264 177.68 264 177 264 C176.67 262.35 176.34 260.7 176 259 C175.34 259 174.68 259 174 259 C173.896875 258.360625 173.79375 257.72125 173.6875 257.0625 C173.3471875 256.0415625 173.3471875 256.0415625 173 255 C172.01 254.67 171.02 254.34 170 254 C170 252.35 170 250.7 170 249 C169.01 249 168.02 249 167 249 C166.87625 248.360625 166.7525 247.72125 166.625 247.0625 C166.41875 246.381875 166.2125 245.70125 166 245 C165.34 244.67 164.68 244.34 164 244 C163.7834375 243.01 163.7834375 243.01 163.5625 242 C163.376875 241.34 163.19125 240.68 163 240 C162.01 239.67 161.02 239.34 160 239 C160 237.35 160 235.7 160 234 C159.01 234 158.02 234 157 234 C156.896875 233.360625 156.79375 232.72125 156.6875 232.0625 C156.460625 231.381875 156.23375 230.70125 156 230 C155.01 229.67 154.02 229.34 153 229 C153 227.35 153 225.7 153 224 C152.01 224 151.02 224 150 224 C149.87625 223.360625 149.7525 222.72125 149.625 222.0625 C149.41875 221.381875 149.2125 220.70125 149 220 C148.34 219.67 147.68 219.34 147 219 C146.375 216.9375 146.375 216.9375 146 215 C145.01 215 144.02 215 143 215 C142.87625 214.195625 142.7525 213.39125 142.625 212.5625 C142.41875 211.716875 142.2125 210.87125 142 210 C141.34 209.67 140.68 209.34 140 209 C139.7834375 208.0409375 139.7834375 208.0409375 139.5625 207.0625 C139.13834965 204.61789145 139.13834965 204.61789145 136 203 C135.34 202.01 134.68 201.02 134 200 C133.67 200 133.34 200 133 200 C132.87625 199.195625 132.7525 198.39125 132.625 197.5625 C132.41875 196.716875 132.2125 195.87125 132 195 C131.34 194.67 130.68 194.34 130 194 C129.67 193.01 129.34 192.02 129 191 C128.01 190.67 127.02 190.34 126 190 C125.505 187.525 125.505 187.525 125 185 C124.34 185 123.68 185 123 185 C122.87625 184.360625 122.7525 183.72125 122.625 183.0625 C122.41875 182.381875 122.2125 181.70125 122 181 C121.34 180.67 120.68 180.34 120 180 C119.7834375 179.01 119.7834375 179.01 119.5625 178 C119.376875 177.34 119.19125 176.68 119 176 C118.01 175.67 117.02 175.34 116 175 C116 173.35 116 171.7 116 170 C115.01 170 114.02 170 113 170 C112.896875 169.360625 112.79375 168.72125 112.6875 168.0625 C112.460625 167.381875 112.23375 166.70125 112 166 C111.01 165.67 110.02 165.34 109 165 C109 163.35 109 161.7 109 160 C108.01 160 107.02 160 106 160 C105.87625 159.360625 105.7525 158.72125 105.625 158.0625 C105.41875 157.381875 105.2125 156.70125 105 156 C104.34 155.67 103.68 155.34 103 155 C102.7834375 154.01 102.7834375 154.01 102.5625 153 C102.376875 152.34 102.19125 151.68 102 151 C101.01 150.67 100.02 150.34 99 150 C98.6278958 148.67696283 98.29369827 147.34262065 98 146 C97.34 145.67 96.68 145.34 96 145 C95.7834375 144.01 95.7834375 144.01 95.5625 143 C95.376875 142.34 95.19125 141.68 95 141 C94.01 140.67 93.02 140.34 92 140 C90.8125 137.9375 90.8125 137.9375 90 136 C89.67 136 89.34 136 89 136 C88.87625 135.195625 88.7525 134.39125 88.625 133.5625 C88.41875 132.716875 88.2125 131.87125 88 131 C87.34 130.67 86.68 130.34 86 130 C84.875 127.9375 84.875 127.9375 84 126 C83.34 126 82.68 126 82 126 C81.87625 125.195625 81.7525 124.39125 81.625 123.5625 C81.315625 122.2940625 81.315625 122.2940625 81 121 C80.34 120.67 79.68 120.34 79 120 C79 118.68 79 117.36 79 116 C77.68 116 76.36 116 75 116 C74.67 114.35 74.34 112.7 74 111 C73.34 111 72.68 111 72 111 C72 109.35 72 107.7 72 106 C71.01 106 70.02 106 69 106 C68.896875 105.360625 68.79375 104.72125 68.6875 104.0625 C68.460625 103.381875 68.23375 102.70125 68 102 C66.515 101.505 66.515 101.505 65 101 C65 99.35 65 97.7 65 96 C64.01 96 63.02 96 62 96 C61.8453125 95.0409375 61.8453125 95.0409375 61.6875 94.0625 C61.460625 93.381875 61.23375 92.70125 61 92 C60.01 91.67 59.02 91.34 58 91 C58 89.35 58 87.7 58 86 C57.01 86 56.02 86 55 86 C54.87625 85.360625 54.7525 84.72125 54.625 84.0625 C54.41875 83.381875 54.2125 82.70125 54 82 C53.01 81.505 53.01 81.505 52 81 C51.855625 80.34 51.71125 79.68 51.5625 79 C51.376875 78.34 51.19125 77.68 51 77 C50.01 76.67 49.02 76.34 48 76 C48 74.35 48 72.7 48 71 C47.01 71 46.02 71 45 71 C44.87625 70.360625 44.7525 69.72125 44.625 69.0625 C44.41875 68.381875 44.2125 67.70125 44 67 C43.01 66.505 43.01 66.505 42 66 C41.375 63.4375 41.375 63.4375 41 61 C40.01 61.33 39.02 61.66 38 62 C37.87625 61.195625 37.7525 60.39125 37.625 59.5625 C37.41875 58.716875 37.2125 57.87125 37 57 C36.01 56.505 36.01 56.505 35 56 C34.375 53.9375 34.375 53.9375 34 52 C33.01 52 32.02 52 31 52 C30.505 49.525 30.505 49.525 30 47 C29.34 47 28.68 47 28 47 C27.87625 46.195625 27.7525 45.39125 27.625 44.5625 C27.41875 43.716875 27.2125 42.87125 27 42 C26.34 41.67 25.68 41.34 25 41 C23.875 38.9375 23.875 38.9375 23 37 C22.34 37 21.68 37 21 37 C20.505 34.525 20.505 34.525 20 32 C19.34 32 18.68 32 18 32 C17.896875 31.360625 17.79375 30.72125 17.6875 30.0625 C17.460625 29.381875 17.23375 28.70125 17 28 C16.01 27.67 15.02 27.34 14 27 C13.67 25.35 13.34 23.7 13 22 C12.34 22 11.68 22 11 22 C10.87625 21.360625 10.7525 20.72125 10.625 20.0625 C10.41875 19.381875 10.2125 18.70125 10 18 C9.34 17.67 8.68 17.34 8 17 C7.855625 16.34 7.71125 15.68 7.5625 15 C7.376875 14.34 7.19125 13.68 7 13 C6.01 12.67 5.02 12.34 4 12 C4 10.68 4 9.36 4 8 C3.01 8 2.02 8 1 8 C0.67 5.36 0.34 2.72 0 0 Z M103 56 C103 57.32 103 58.64 103 60 C103.99 60 104.98 60 106 60 C106 61.32 106 62.64 106 64 C106.99 64 107.98 64 109 64 C109.33 65.65 109.66 67.3 110 69 C110.99 69 111.98 69 113 69 C113 70.65 113 72.3 113 74 C113.99 74 114.98 74 116 74 C116.33 75.65 116.66 77.3 117 79 C117.66 79 118.32 79 119 79 C119.33 80.65 119.66 82.3 120 84 C120.99 84 121.98 84 123 84 C123 85.32 123 86.64 123 88 C123.99 88 124.98 88 126 88 C126.12375 88.804375 126.2475 89.60875 126.375 90.4375 C126.58125 91.283125 126.7875 92.12875 127 93 C127.66 93.33 128.32 93.66 129 94 C129.625 96.0625 129.625 96.0625 130 98 C130.99 98 131.98 98 133 98 C133.33 99.65 133.66 101.3 134 103 C134.66 103 135.32 103 136 103 C136.495 105.475 136.495 105.475 137 108 C137.99 108 138.98 108 140 108 C140.495 110.475 140.495 110.475 141 113 C141.66 113 142.32 113 143 113 C143.495 115.475 143.495 115.475 144 118 C144.66 118 145.32 118 146 118 C146.495 119.98 146.495 119.98 147 122 C147.99 122 148.98 122 150 122 C150 123.65 150 125.3 150 127 C150.99 127.495 150.99 127.495 152 128 C153.125 130.0625 153.125 130.0625 154 132 C154.99 132 155.98 132 157 132 C157 133.65 157 135.3 157 137 C157.99 137 158.98 137 160 137 C160.33 138.65 160.66 140.3 161 142 C161.99 142 162.98 142 164 142 C164.185625 143.11375 164.185625 143.11375 164.375 144.25 C164.96561763 146.84871755 165.56286448 148.76445586 167 151 C168.485 151.495 168.485 151.495 170 152 C170.6875 154.0625 170.6875 154.0625 171 156 C171.99 156 172.98 156 174 156 C174 157.65 174 159.3 174 161 C174.66 161.33 175.32 161.66 176 162 C177.125 164.0625 177.125 164.0625 178 166 C178.99 166 179.98 166 181 166 C181 167.65 181 169.3 181 171 C181.99 171 182.98 171 184 171 C184.33 172.65 184.66 174.3 185 176 C185.66 176 186.32 176 187 176 C187.33 177.65 187.66 179.3 188 181 C188.66 181 189.32 181 190 181 C190.99 183.475 190.99 183.475 192 186 C192.66 186 193.32 186 194 186 C194.33 187.32 194.66 188.64 195 190 C195.66 190 196.32 190 197 190 C197.495 192.475 197.495 192.475 198 195 C198.99 195 199.98 195 201 195 C201.495 197.475 201.495 197.475 202 200 C202.66 200 203.32 200 204 200 C204.495 202.475 204.495 202.475 205 205 C205.99 205 206.98 205 208 205 C208 206.65 208 208.3 208 210 C208.99 210 209.98 210 211 210 C211.495 212.475 211.495 212.475 212 215 C212.66 215 213.32 215 214 215 C214.12375 215.639375 214.2475 216.27875 214.375 216.9375 C214.684375 217.9584375 214.684375 217.9584375 215 219 C215.66 219.33 216.32 219.66 217 220 C217.625 222.0625 217.625 222.0625 218 224 C218.99 224 219.98 224 221 224 C221 225.65 221 227.3 221 229 C222.32 229 223.64 229 225 229 C225 230.65 225 232.3 225 234 C225.99 234 226.98 234 228 234 C228.495 236.475 228.495 236.475 229 239 C229.66 239 230.32 239 231 239 C231.33 240.65 231.66 242.3 232 244 C232.66 244 233.32 244 234 244 C234.433125 245.11375 234.433125 245.11375 234.875 246.25 C236.2601849 249.71509946 236.2601849 249.71509946 238 253 C238.99 253.33 239.98 253.66 241 254 C241.6875 256.0625 241.6875 256.0625 242 258 C242.99 258 243.98 258 245 258 C245 259.65 245 261.3 245 263 C245.99 263 246.98 263 248 263 C248.33 264.65 248.66 266.3 249 268 C249.66 268 250.32 268 251 268 C251.33 269.65 251.66 271.3 252 273 C252.99 273 253.98 273 255 273 C255.33 274.65 255.66 276.3 256 278 C256.99 278 257.98 278 259 278 C259.12375 278.7425 259.2475 279.485 259.375 280.25 C259.96120466 282.82930049 260.63284555 284.7482162 262 287 C262.66 287.33 263.32 287.66 264 288 C265.125 290.0625 265.125 290.0625 266 292 C266.99 292 267.98 292 269 292 C269 293.65 269 295.3 269 297 C269.99 297 270.98 297 272 297 C272.12375 297.804375 272.2475 298.60875 272.375 299.4375 C272.58125 300.283125 272.7875 301.12875 273 302 C273.66 302.33 274.32 302.66 275 303 C275.625 305.0625 275.625 305.0625 276 307 C276.99 307 277.98 307 279 307 C279.12375 307.763125 279.2475 308.52625 279.375 309.3125 C279.88102792 312.20267136 279.88102792 312.20267136 282 315 C282.33 315.66 282.66 316.32 283 317 C283.66 317 284.32 317 285 317 C285.4021875 318.11375 285.4021875 318.11375 285.8125 319.25 C286.95276751 321.89061949 288.09380306 323.85552844 290 326 C290.66 326 291.32 326 292 326 C292.33 327.65 292.66 329.3 293 331 C293.99 331 294.98 331 296 331 C296.33 332.65 296.66 334.3 297 336 C297.66 336 298.32 336 299 336 C299.33 337.65 299.66 339.3 300 341 C300.99 341 301.98 341 303 341 C303.12375 341.7425 303.2475 342.485 303.375 343.25 C303.96120466 345.82930049 304.63284555 347.7482162 306 350 C306.66 350.33 307.32 350.66 308 351 C309.88141079 353.90050829 311.50094109 356.88656995 313 360 C313.99 360 314.98 360 316 360 C316.33 361.65 316.66 363.3 317 365 C317.99 365 318.98 365 320 365 C320.12375 365.7425 320.2475 366.485 320.375 367.25 C320.96561763 369.84871755 321.56286448 371.76445586 323 374 C323.99 374.33 324.98 374.66 326 375 C326.3721042 376.32303717 326.70630173 377.65737935 327 379 C327.66 379.33 328.32 379.66 329 380 C329.71247732 381.6476038 330.37400383 383.31763529 331 385 C331.65213539 386.34050052 332.31379969 387.67661368 333 389 C334.32 389 335.64 389 337 389 C337 390.65 337 392.3 337 394 C337.99 394 338.98 394 340 394 C340 395.65 340 397.3 340 399 C340.99 399 341.98 399 343 399 C343.33 400.65 343.66 402.3 344 404 C344.66 404 345.32 404 346 404 C346.33 405.65 346.66 407.3 347 409 C347.99 409 348.98 409 350 409 C350.12375 409.804375 350.2475 410.60875 350.375 411.4375 C350.58125 412.283125 350.7875 413.12875 351 414 C351.66 414.33 352.32 414.66 353 415 C354 416.8125 354 416.8125 355 419 C355.37125 419.7425 355.7425 420.485 356.125 421.25 C356.41375 421.8275 356.7025 422.405 357 423 C357.99 423 358.98 423 360 423 C360.33 424.65 360.66 426.3 361 428 C361.99 428 362.98 428 364 428 C364 429.65 364 431.3 364 433 C364.99 433 365.98 433 367 433 C367.33 434.65 367.66 436.3 368 438 C368.66 438 369.32 438 370 438 C370.33 439.65 370.66 441.3 371 443 C371.66 443 372.32 443 373 443 C373.33 444.32 373.66 445.64 374 447 C374.99 447 375.98 447 377 447 C377.12375 447.804375 377.2475 448.60875 377.375 449.4375 C377.58125 450.283125 377.7875 451.12875 378 452 C378.66 452.33 379.32 452.66 380 453 C380.625 455.0625 380.625 455.0625 381 457 C381.99 457 382.98 457 384 457 C384.33 458.65 384.66 460.3 385 462 C385.66 462 386.32 462 387 462 C387.33 463.65 387.66 465.3 388 467 C388.99 467 389.98 467 391 467 C391.12375 467.7425 391.2475 468.485 391.375 469.25 C391.96561763 471.84871755 392.56286448 473.76445586 394 476 C394.99 476.33 395.98 476.66 397 477 C397.6875 479.0625 397.6875 479.0625 398 481 C398.99 481 399.98 481 401 481 C401 482.65 401 484.3 401 486 C401.66 486.33 402.32 486.66 403 487 C404.125 489.0625 404.125 489.0625 405 491 C405.99 491 406.98 491 408 491 C408 492.65 408 494.3 408 496 C408.99 496 409.98 496 411 496 C411.33 497.65 411.66 499.3 412 501 C412.99 501 413.98 501 415 501 C415.12375 501.7425 415.2475 502.485 415.375 503.25 C415.96561763 505.84871755 416.56286448 507.76445586 418 510 C418.99 510.33 419.98 510.66 421 511 C421.6875 513.0625 421.6875 513.0625 422 515 C422.99 515 423.98 515 425 515 C425 516.65 425 518.3 425 520 C425.66 520.33 426.32 520.66 427 521 C428.125 523.0625 428.125 523.0625 429 525 C429.99 525 430.98 525 432 525 C432 526.65 432 528.3 432 530 C432.99 530 433.98 530 435 530 C435 531.65 435 533.3 435 535 C435.99 535 436.98 535 438 535 C438.33 536.65 438.66 538.3 439 540 C439.66 540 440.32 540 441 540 C441.433125 541.11375 441.433125 541.11375 441.875 542.25 C442.82302644 544.56739797 443.84845911 546.77917115 445 549 C445.99 549 446.98 549 448 549 C448.33 550.65 448.66 552.3 449 554 C449.99 554 450.98 554 452 554 C452 555.65 452 557.3 452 559 C452.99 559 453.98 559 455 559 C455.33 560.65 455.66 562.3 456 564 C456.66 564 457.32 564 458 564 C458.33 565.65 458.66 567.3 459 569 C459.99 569 460.98 569 462 569 C462.12375 569.763125 462.2475 570.52625 462.375 571.3125 C462.88102792 574.20267136 462.88102792 574.20267136 465 577 C465.33 577.66 465.66 578.32 466 579 C466.66 579 467.32 579 468 579 C468.33 580.32 468.66 581.64 469 583 C469.99 583 470.98 583 472 583 C472.33 584.65 472.66 586.3 473 588 C473.99 588 474.98 588 476 588 C476 589.65 476 591.3 476 593 C476.99 593 477.98 593 479 593 C479.33 594.65 479.66 596.3 480 598 C480.66 598 481.32 598 482 598 C482.33 599.65 482.66 601.3 483 603 C483.99 603 484.98 603 486 603 C486.12375 603.7425 486.2475 604.485 486.375 605.25 C486.97122525 607.8733911 487.49197386 609.77764568 489 612 C491.05000871 612.80528889 491.05000871 612.80528889 493 613 C493 614.32 493 615.64 493 617 C493.99 617 494.98 617 496 617 C496 618.65 496 620.3 496 622 C496.99 622 497.98 622 499 622 C499.33 623.65 499.66 625.3 500 627 C500.99 627 501.98 627 503 627 C503 628.65 503 630.3 503 632 C503.99 632 504.98 632 506 632 C506.33 633.65 506.66 635.3 507 637 C507.99 637 508.98 637 510 637 C510.12375 637.7425 510.2475 638.485 510.375 639.25 C510.96120466 641.82930049 511.63284555 643.7482162 513 646 C513.66 646.33 514.32 646.66 515 647 C516.125 649.0625 516.125 649.0625 517 651 C517.99 651 518.98 651 520 651 C520 652.65 520 654.3 520 656 C520.99 656 521.98 656 523 656 C523.33 657.65 523.66 659.3 524 661 C524.66 661 525.32 661 526 661 C526.33 662.65 526.66 664.3 527 666 C527.66 666 528.32 666 529 666 C529.66 667.65 530.32 669.3 531 671 C531.66 671 532.32 671 533 671 C533.12375 671.639375 533.2475 672.27875 533.375 672.9375 C533.58125 673.618125 533.7875 674.29875 534 675 C534.66 675.33 535.32 675.66 536 676 C536.67441131 677.6635479 537.3400321 679.33066942 538 681 C539.39957197 683.28484306 539.39957197 683.28484306 541 685 C541.66 685 542.32 685 543 685 C543.33 686.65 543.66 688.3 544 690 C544.99 690 545.98 690 547 690 C547.33 691.65 547.66 693.3 548 695 C548.66 695 549.32 695 550 695 C550.33 696.65 550.66 698.3 551 700 C551.66 700 552.32 700 553 700 C553.33 701.65 553.66 703.3 554 705 C554.99 705 555.98 705 557 705 C557.0928125 706.0828125 557.0928125 706.0828125 557.1875 707.1875 C558.24371275 710.84362105 560.3074028 712.37471773 563 715 C563.8125 717.3125 563.8125 717.3125 564 719 C564.99 719 565.98 719 567 719 C567.33 720.65 567.66 722.3 568 724 C568.99 724 569.98 724 571 724 C571 725.65 571 727.3 571 729 C571.99 729 572.98 729 574 729 C574.33 730.65 574.66 732.3 575 734 C575.66 734 576.32 734 577 734 C577.33 735.65 577.66 737.3 578 739 C578.66 739 579.32 739 580 739 C580.33 740.32 580.66 741.64 581 743 C581.99 743 582.98 743 584 743 C584 744.65 584 746.3 584 748 C584.99 748.33 585.98 748.66 587 749 C587.6875 751.0625 587.6875 751.0625 588 753 C588.99 753 589.98 753 591 753 C591 754.65 591 756.3 591 758 C591.99 758 592.98 758 594 758 C594.33 759.32 594.66 760.64 595 762 C628.33 761.67 661.66 761.34 696 761 C696 760.01 696 759.02 696 758 C695.01 758 694.02 758 693 758 C692.67 756.68 692.34 755.36 692 754 C691.01 754 690.02 754 689 754 C689 752.35 689 750.7 689 749 C688.01 749 687.02 749 686 749 C686 747.35 686 745.7 686 744 C685.01 744 684.02 744 683 744 C682.67 742.35 682.34 740.7 682 739 C681.34 739 680.68 739 680 739 C679.67 737.35 679.34 735.7 679 734 C678.01 734 677.02 734 676 734 C675.67 732.35 675.34 730.7 675 729 C674.34 729 673.68 729 673 729 C672.71125 728.2575 672.4225 727.515 672.125 726.75 C671.17697356 724.43260203 670.15154089 722.22082885 669 720 C668.01 720 667.02 720 666 720 C665.67 718.35 665.34 716.7 665 715 C664.01 715 663.02 715 662 715 C662 713.35 662 711.7 662 710 C661.01 710 660.02 710 659 710 C658.67 708.35 658.34 706.7 658 705 C657.34 705 656.68 705 656 705 C655.67 703.35 655.34 701.7 655 700 C654.01 700 653.02 700 652 700 C651.814375 698.8553125 651.814375 698.8553125 651.625 697.6875 C651.11897208 694.79732864 651.11897208 694.79732864 649 692 C648.67 691.34 648.34 690.68 648 690 C647.34 690 646.68 690 646 690 C645.67 688.68 645.34 687.36 645 686 C644.01 686 643.02 686 642 686 C641.67 684.35 641.34 682.7 641 681 C640.01 681 639.02 681 638 681 C638 679.35 638 677.7 638 676 C637.01 676 636.02 676 635 676 C634.67 674.35 634.34 672.7 634 671 C633.34 671 632.68 671 632 671 C631.67 669.35 631.34 667.7 631 666 C630.34 666 629.68 666 629 666 C628.71125 665.2575 628.4225 664.515 628.125 663.75 C626.11338588 658.57862213 626.11338588 658.57862213 622 655 C621.67 654.01 621.34 653.02 621 652 C620.01 652 619.02 652 618 652 C618 650.35 618 648.7 618 647 C617.01 647 616.02 647 615 647 C614.67 645.35 614.34 643.7 614 642 C613.01 642 612.02 642 611 642 C610.87625 641.2575 610.7525 640.515 610.625 639.75 C610.03438237 637.15128245 609.43713552 635.23554414 608 633 C607.01 632.67 606.02 632.34 605 632 C604.3125 629.9375 604.3125 629.9375 604 628 C603.01 628 602.02 628 601 628 C601 626.35 601 624.7 601 623 C600.34 622.67 599.68 622.34 599 622 C597.875 619.9375 597.875 619.9375 597 618 C596.01 618 595.02 618 594 618 C594 616.35 594 614.7 594 613 C593.01 613 592.02 613 591 613 C590.67 611.35 590.34 609.7 590 608 C589.34 608 588.68 608 588 608 C587.87625 607.360625 587.7525 606.72125 587.625 606.0625 C587.41875 605.381875 587.2125 604.70125 587 604 C586.34 603.67 585.68 603.34 585 603 C584.27840576 601.35636866 583.60648579 599.68949614 583 598 C582.34 598 581.68 598 581 598 C580.67 596.68 580.34 595.36 580 594 C579.01 594 578.02 594 577 594 C577 592.35 577 590.7 577 589 C576.34 588.67 575.68 588.34 575 588 C574.375 585.9375 574.375 585.9375 574 584 C573.01 584 572.02 584 571 584 C570.67 582.35 570.34 580.7 570 579 C569.34 579 568.68 579 568 579 C567.67 577.35 567.34 575.7 567 574 C566.01 574 565.02 574 564 574 C563.67 572.35 563.34 570.7 563 569 C562.01 569 561.02 569 560 569 C560 567.35 560 565.7 560 564 C559.34 564 558.68 564 558 564 C557.67 562.68 557.34 561.36 557 560 C556.01 560 555.02 560 554 560 C553.67 558.35 553.34 556.7 553 555 C552.01 555 551.02 555 550 555 C550 553.35 550 551.7 550 550 C549.01 550 548.02 550 547 550 C546.87625 549.195625 546.7525 548.39125 546.625 547.5625 C546.41875 546.716875 546.2125 545.87125 546 545 C545.34 544.67 544.68 544.34 544 544 C543.375 541.9375 543.375 541.9375 543 540 C542.01 540 541.02 540 540 540 C539.87625 539.2575 539.7525 538.515 539.625 537.75 C539.03438237 535.15128245 538.43713552 533.23554414 537 531 C536.01 530.67 535.02 530.34 534 530 C533.3125 527.9375 533.3125 527.9375 533 526 C532.01 526 531.02 526 530 526 C530 524.35 530 522.7 530 521 C529.01 521 528.02 521 527 521 C526.67 519.35 526.34 517.7 526 516 C525.01 516 524.02 516 523 516 C523 514.35 523 512.7 523 511 C522.01 511 521.02 511 520 511 C519.67 509.35 519.34 507.7 519 506 C518.01 506 517.02 506 516 506 C515.87625 505.2575 515.7525 504.515 515.625 503.75 C515.03438237 501.15128245 514.43713552 499.23554414 513 497 C512.01 496.67 511.02 496.34 510 496 C509.3125 493.9375 509.3125 493.9375 509 492 C508.01 492 507.02 492 506 492 C506 490.35 506 488.7 506 487 C505.01 487 504.02 487 503 487 C502.67 485.35 502.34 483.7 502 482 C501.01 482 500.02 482 499 482 C499 480.35 499 478.7 499 477 C498.01 477 497.02 477 496 477 C495.67 475.35 495.34 473.7 495 472 C494.34 472 493.68 472 493 472 C492.87625 471.360625 492.7525 470.72125 492.625 470.0625 C492.315625 469.0415625 492.315625 469.0415625 492 468 C491.34 467.67 490.68 467.34 490 467 C489.32558869 465.3364521 488.6599679 463.66933058 488 462 C486.66846734 459.69495956 486.66846734 459.69495956 485 458 C484.01 458 483.02 458 482 458 C482 456.35 482 454.7 482 453 C481.01 453 480.02 453 479 453 C478.67 451.35 478.34 449.7 478 448 C477.34 448 476.68 448 476 448 C475.67 446.35 475.34 444.7 475 443 C474.34 443 473.68 443 473 443 C472.67 441.35 472.34 439.7 472 438 C471.01 438 470.02 438 469 438 C468.87625 437.360625 468.7525 436.72125 468.625 436.0625 C468.315625 435.0415625 468.315625 435.0415625 468 434 C467.34 433.67 466.68 433.34 466 433 C465.28752268 431.3523962 464.62599617 429.68236471 464 428 C463.34786461 426.65949948 462.68620031 425.32338632 462 424 C461.01 424 460.02 424 459 424 C458.67 422.35 458.34 420.7 458 419 C457.01 419 456.02 419 455 419 C455 417.35 455 415.7 455 414 C454.01 414 453.02 414 452 414 C451.67 412.35 451.34 410.7 451 409 C450.34 409 449.68 409 449 409 C448.67 407.35 448.34 405.7 448 404 C447.34 404 446.68 404 446 404 C445.566875 402.88625 445.566875 402.88625 445.125 401.75 C443.7398151 398.28490054 443.7398151 398.28490054 442 395 C441.01 394.67 440.02 394.34 439 394 C438.3125 391.9375 438.3125 391.9375 438 390 C437.01 390 436.02 390 435 390 C435 388.35 435 386.7 435 385 C434.01 385 433.02 385 432 385 C431.67 383.35 431.34 381.7 431 380 C430.34 380 429.68 380 429 380 C428.34 378.35 427.68 376.7 427 375 C426.34 375 425.68 375 425 375 C424.67 373.35 424.34 371.7 424 370 C423.34 370 422.68 370 422 370 C421.566875 368.88625 421.566875 368.88625 421.125 367.75 C419.49833148 363.77369918 418.11445112 360.9790402 415 358 C414.67 357.34 414.34 356.68 414 356 C413.34 356 412.68 356 412 356 C411.67 354.35 411.34 352.7 411 351 C410.01 351 409.02 351 408 351 C407.67 349.35 407.34 347.7 407 346 C406.34 346 405.68 346 405 346 C404.67 344.35 404.34 342.7 404 341 C403.01 341 402.02 341 401 341 C400.67 339.35 400.34 337.7 400 336 C399.34 336 398.68 336 398 336 C397.67 334.68 397.34 333.36 397 332 C396.01 332 395.02 332 394 332 C394 330.35 394 328.7 394 327 C393.34 326.67 392.68 326.34 392 326 C390.875 323.9375 390.875 323.9375 390 322 C389.01 322 388.02 322 387 322 C387 320.35 387 318.7 387 317 C386.01 317 385.02 317 384 317 C383.67 315.35 383.34 313.7 383 312 C382.34 312 381.68 312 381 312 C380.67 310.35 380.34 308.7 380 307 C379.34 307 378.68 307 378 307 C377.566875 305.88625 377.566875 305.88625 377.125 304.75 C376.17697356 302.43260203 375.15154089 300.22082885 374 298 C373.01 298 372.02 298 371 298 C370.87625 297.195625 370.7525 296.39125 370.625 295.5625 C370.315625 294.2940625 370.315625 294.2940625 370 293 C369.34 292.67 368.68 292.34 368 292 C367.375 289.9375 367.375 289.9375 367 288 C366.01 288 365.02 288 364 288 C363.67 286.35 363.34 284.7 363 283 C362.01 283 361.02 283 360 283 C359.87625 282.2575 359.7525 281.515 359.625 280.75 C359.03438237 278.15128245 358.43713552 276.23554414 357 274 C356.01 273.67 355.02 273.34 354 273 C353.6278958 271.67696283 353.29369827 270.34262065 353 269 C352.34 268.67 351.68 268.34 351 268 C350.375 265.9375 350.375 265.9375 350 264 C349.01 264 348.02 264 347 264 C346.67 262.35 346.34 260.7 346 259 C345.01 259 344.02 259 343 259 C343 257.35 343 255.7 343 254 C342.01 254 341.02 254 340 254 C339.67 252.35 339.34 250.7 339 249 C338.34 249 337.68 249 337 249 C336.67 247.35 336.34 245.7 336 244 C335.34 244 334.68 244 334 244 C333.01 241.525 333.01 241.525 332 239 C331.34 239 330.68 239 330 239 C330 237.68 330 236.36 330 235 C328.68 235 327.36 235 326 235 C326 233.35 326 231.7 326 230 C325.01 230 324.02 230 323 230 C323 228.35 323 226.7 323 225 C322.01 225 321.02 225 320 225 C319.67 223.35 319.34 221.7 319 220 C318.34 220 317.68 220 317 220 C316.67 218.35 316.34 216.7 316 215 C315.01 215 314.02 215 313 215 C312.67 213.35 312.34 211.7 312 210 C311.01 210 310.02 210 309 210 C308.87625 209.2575 308.7525 208.515 308.625 207.75 C308.04513299 205.19858515 307.26291261 203.2732427 306 201 C305.01 201 304.02 201 303 201 C302.67 199.35 302.34 197.7 302 196 C301.01 196 300.02 196 299 196 C299 194.35 299 192.7 299 191 C298.01 191 297.02 191 296 191 C295.87625 190.195625 295.7525 189.39125 295.625 188.5625 C295.41875 187.716875 295.2125 186.87125 295 186 C294.34 185.67 293.68 185.34 293 185 C292.375 182.9375 292.375 182.9375 292 181 C291.01 181 290.02 181 289 181 C288.87625 180.236875 288.7525 179.47375 288.625 178.6875 C288.11897208 175.79732864 288.11897208 175.79732864 286 173 C285.67 172.34 285.34 171.68 285 171 C284.34 171 283.68 171 283 171 C282.67 169.68 282.34 168.36 282 167 C281.01 167 280.02 167 279 167 C279 165.35 279 163.7 279 162 C278.01 162 277.02 162 276 162 C275.67 160.35 275.34 158.7 275 157 C274.01 157 273.02 157 272 157 C271.67 155.35 271.34 153.7 271 152 C270.34 152 269.68 152 269 152 C268.67 150.35 268.34 148.7 268 147 C267.01 147 266.02 147 265 147 C264.814375 145.88625 264.814375 145.88625 264.625 144.75 C264.03438237 142.15128245 263.43713552 140.23554414 262 138 C261.01 137.67 260.02 137.34 259 137 C258.3125 134.9375 258.3125 134.9375 258 133 C257.01 133 256.02 133 255 133 C255 131.35 255 129.7 255 128 C254.01 128 253.02 128 252 128 C251.67 126.35 251.34 124.7 251 123 C250.01 123 249.02 123 248 123 C248 121.35 248 119.7 248 118 C247.01 118 246.02 118 245 118 C244.67 116.35 244.34 114.7 244 113 C243.34 113 242.68 113 242 113 C241.87625 112.360625 241.7525 111.72125 241.625 111.0625 C241.41875 110.381875 241.2125 109.70125 241 109 C240.34 108.67 239.68 108.34 239 108 C238.32558869 106.3364521 237.6599679 104.66933058 237 103 C235.66846734 100.69495956 235.66846734 100.69495956 234 99 C233.01 99 232.02 99 231 99 C231 97.35 231 95.7 231 94 C230.01 94 229.02 94 228 94 C228 92.35 228 90.7 228 89 C227.01 89 226.02 89 225 89 C224.67 87.35 224.34 85.7 224 84 C223.34 84 222.68 84 222 84 C221.67 82.35 221.34 80.7 221 79 C220.01 79 219.02 79 218 79 C218 77.68 218 76.36 218 75 C217.01 75 216.02 75 215 75 C214.71125 74.0925 214.4225 73.185 214.125 72.25 C213.23468224 69.67797092 212.28505587 67.38653234 211 65 C210.01 65 209.02 65 208 65 C207.505 62.525 207.505 62.525 207 60 C206.01 60 205.02 60 204 60 C204 58.68 204 57.36 204 56 C170.67 56 137.34 56 103 56 Z " fill="#FFA200" transform="translate(140,133)"/>
</svg>
